<svg xmlns="http://www.w3.org/2000/svg" width="862" height="1044" viewBox="0 0 862 1044">
<path d="M 718 952 L 723 953 L 726 956 L 726 1021 L 720 1025 L 741 1025 L 736 1024 L 733 1021 L 733 956 L 736 953 L 751 955 L 756 960 L 756 963 L 758 964 L 758 969 L 760 970 L 760 973 L 758 974 L 758 981 L 749 990 L 740 991 L 749 991 L 750 989 L 757 987 L 763 981 L 763 978 L 765 977 L 765 962 L 763 961 L 763 958 L 761 956 L 758 956 L 753 952 Z" fill="#F4F1E8" fill-rule="evenodd"/>
<path d="M 448 1025 L 465 1025 L 467 1023 L 467 1018 L 469 1017 L 469 1014 L 471 1013 L 471 1010 L 473 1009 L 473 1006 L 477 1001 L 477 996 L 481 993 L 481 990 L 483 989 L 483 986 L 485 985 L 485 982 L 489 977 L 489 972 L 493 969 L 493 966 L 495 965 L 497 958 L 502 953 L 511 953 L 516 958 L 518 965 L 522 968 L 522 971 L 524 972 L 526 979 L 530 982 L 530 987 L 534 990 L 534 993 L 536 994 L 536 997 L 540 1002 L 540 1009 L 538 1010 L 538 1013 L 534 1016 L 534 1019 L 529 1024 L 522 1024 L 535 1025 L 537 1023 L 537 1020 L 539 1019 L 539 1016 L 541 1015 L 541 1012 L 543 1011 L 543 1008 L 545 1007 L 545 1002 L 549 999 L 549 996 L 551 995 L 551 992 L 553 991 L 553 988 L 555 987 L 555 984 L 557 983 L 557 980 L 559 979 L 559 976 L 561 975 L 561 972 L 563 971 L 563 968 L 565 967 L 565 964 L 569 959 L 569 956 L 572 953 L 577 952 L 564 952 L 566 955 L 562 960 L 562 965 L 558 968 L 558 971 L 556 972 L 556 977 L 554 978 L 554 981 L 552 982 L 552 985 L 550 986 L 550 989 L 548 990 L 548 993 L 545 996 L 537 987 L 537 984 L 535 983 L 535 980 L 533 979 L 533 976 L 531 975 L 531 972 L 529 971 L 529 968 L 527 967 L 527 964 L 525 963 L 525 960 L 521 955 L 525 952 L 492 952 L 494 954 L 494 957 L 492 958 L 492 963 L 490 964 L 490 967 L 488 968 L 488 971 L 486 972 L 486 975 L 484 976 L 484 979 L 482 980 L 482 983 L 480 984 L 480 987 L 478 988 L 478 991 L 476 992 L 475 996 L 471 995 L 471 992 L 469 991 L 469 988 L 467 987 L 465 980 L 461 977 L 461 972 L 457 969 L 457 966 L 455 965 L 455 962 L 451 957 L 451 954 L 453 952 L 436 952 L 441 953 L 444 956 L 444 959 L 446 960 L 446 963 L 448 964 L 448 967 L 450 968 L 450 971 L 452 972 L 454 979 L 458 982 L 458 985 L 460 986 L 462 993 L 470 1002 L 470 1005 L 468 1006 L 468 1009 L 466 1010 L 464 1017 L 457 1024 Z" fill="#F4F1E8" fill-rule="evenodd"/>
<path d="M 386 952 L 391 953 L 394 956 L 394 1015 L 392 1016 L 392 1023 L 386 1025 L 403 1025 L 404 1023 L 407 1023 L 408 1025 L 415 1025 L 416 1023 L 423 1023 L 426 1019 L 429 1019 L 429 1016 L 433 1013 L 433 1010 L 435 1009 L 435 1000 L 433 999 L 431 992 L 427 988 L 424 988 L 423 986 L 418 986 L 417 984 L 400 984 L 399 978 L 401 976 L 399 975 L 399 968 L 401 967 L 401 954 L 407 952 Z M 402 985 L 409 985 L 410 987 L 415 987 L 424 994 L 424 997 L 426 998 L 426 1015 L 424 1016 L 423 1020 L 420 1020 L 419 1022 L 414 1022 L 413 1024 L 408 1024 L 407 1022 L 404 1022 L 401 1019 L 399 988 Z" fill="#F4F1E8" fill-rule="evenodd"/>
<path d="M 292 952 L 297 953 L 300 956 L 300 1021 L 294 1025 L 317 1025 L 310 1024 L 309 1020 L 307 1019 L 308 987 L 345 987 L 346 985 L 352 986 L 352 1021 L 346 1025 L 353 1025 L 354 1023 L 357 1023 L 358 1025 L 367 1025 L 362 1024 L 359 1021 L 359 956 L 365 952 L 344 952 L 352 954 L 352 973 L 354 975 L 352 976 L 351 984 L 308 984 L 307 956 L 313 952 Z" fill="#F4F1E8" fill-rule="evenodd"/>
<path d="M 198 952 L 203 953 L 206 956 L 206 1019 L 204 1020 L 204 1023 L 200 1025 L 209 1025 L 210 1023 L 212 1025 L 221 1025 L 216 1024 L 213 1021 L 213 1018 L 211 1017 L 211 1014 L 213 1013 L 211 1011 L 211 1004 L 213 1003 L 213 996 L 211 995 L 213 993 L 213 990 L 211 988 L 214 985 L 235 985 L 236 987 L 238 985 L 240 987 L 243 987 L 244 985 L 251 985 L 252 987 L 254 985 L 257 985 L 258 1019 L 256 1020 L 256 1023 L 252 1025 L 273 1025 L 268 1024 L 265 1021 L 265 1010 L 263 1009 L 265 1007 L 265 954 L 271 952 L 254 952 L 258 956 L 257 984 L 214 984 L 213 978 L 211 977 L 211 958 L 213 957 L 213 954 L 217 952 Z" fill="#F4F1E8" fill-rule="evenodd"/>
<path d="M 806 950 L 806 955 L 802 960 L 802 965 L 800 966 L 800 971 L 798 972 L 796 983 L 792 988 L 790 999 L 786 1004 L 786 1011 L 784 1012 L 782 1019 L 777 1024 L 772 1025 L 783 1025 L 784 1023 L 786 1025 L 791 1025 L 787 1023 L 787 1016 L 789 1015 L 789 1008 L 793 1003 L 794 997 L 817 997 L 820 1000 L 820 1003 L 822 1004 L 822 1009 L 824 1010 L 824 1015 L 828 1020 L 828 1025 L 845 1025 L 840 1024 L 837 1020 L 833 1019 L 833 1014 L 829 1009 L 829 1004 L 825 999 L 825 994 L 823 993 L 823 990 L 821 989 L 821 984 L 817 979 L 817 974 L 815 973 L 815 968 L 813 967 L 811 956 L 809 955 L 809 952 Z M 804 965 L 807 965 L 808 969 L 810 970 L 810 977 L 812 978 L 812 983 L 814 984 L 814 989 L 816 990 L 815 994 L 795 993 L 797 991 L 797 986 L 799 985 L 799 978 L 801 977 L 801 972 L 803 971 Z" fill="#F4F1E8" fill-rule="evenodd"/>
<path d="M 711 1024 L 708 1024 L 707 1022 L 704 1022 L 701 1019 L 701 1016 L 699 1015 L 699 1010 L 697 1009 L 697 1004 L 695 1003 L 695 1000 L 693 999 L 693 994 L 689 989 L 689 982 L 685 977 L 685 972 L 681 967 L 681 962 L 677 957 L 677 952 L 674 950 L 674 955 L 672 956 L 672 959 L 670 960 L 670 965 L 666 970 L 666 975 L 664 976 L 662 987 L 658 992 L 658 997 L 656 998 L 656 1003 L 654 1004 L 652 1015 L 645 1024 L 636 1024 L 635 1022 L 631 1021 L 631 1018 L 629 1017 L 629 1014 L 625 1009 L 625 1004 L 623 1003 L 623 1000 L 619 995 L 619 990 L 617 989 L 617 986 L 613 981 L 613 974 L 609 969 L 607 958 L 605 957 L 605 954 L 602 952 L 600 954 L 600 957 L 598 958 L 598 963 L 596 964 L 594 975 L 590 980 L 590 987 L 586 990 L 586 995 L 582 1000 L 582 1007 L 578 1012 L 578 1017 L 576 1018 L 576 1021 L 573 1024 L 568 1025 L 585 1025 L 581 1023 L 581 1018 L 583 1017 L 585 1006 L 589 1001 L 589 996 L 591 995 L 591 988 L 593 987 L 593 980 L 597 975 L 597 970 L 599 969 L 600 965 L 604 968 L 606 979 L 610 984 L 610 991 L 612 992 L 612 995 L 614 996 L 614 1001 L 618 1006 L 618 1011 L 620 1012 L 620 1017 L 622 1018 L 622 1025 L 649 1025 L 650 1023 L 653 1023 L 654 1025 L 659 1025 L 655 1023 L 655 1020 L 653 1018 L 657 1013 L 657 1008 L 661 1003 L 662 997 L 685 997 L 688 1000 L 690 1011 L 692 1012 L 692 1015 L 696 1020 L 696 1025 Z M 674 965 L 676 966 L 676 971 L 678 972 L 678 977 L 680 978 L 680 983 L 682 984 L 682 989 L 684 990 L 683 994 L 665 993 L 665 986 L 667 985 L 667 980 L 669 979 L 669 972 L 671 971 L 671 968 Z" fill="#F4F1E8" fill-rule="evenodd"/>
<path d="M 140 950 L 139 952 L 130 952 L 129 954 L 126 954 L 121 960 L 118 960 L 114 964 L 114 967 L 110 972 L 110 977 L 108 978 L 108 999 L 112 1004 L 112 1009 L 118 1014 L 118 1017 L 121 1017 L 124 1021 L 127 1021 L 128 1023 L 131 1023 L 133 1025 L 135 1022 L 132 1022 L 127 1016 L 124 1016 L 121 1013 L 121 1008 L 117 1005 L 117 1002 L 115 1001 L 115 976 L 117 975 L 117 968 L 121 965 L 121 962 L 128 955 L 133 955 L 134 953 L 153 953 L 154 955 L 159 955 L 162 959 L 165 959 L 166 963 L 170 966 L 170 969 L 172 970 L 172 975 L 174 976 L 174 981 L 176 982 L 176 989 L 174 990 L 174 1005 L 172 1006 L 170 1013 L 163 1020 L 160 1020 L 155 1024 L 144 1024 L 147 1027 L 148 1025 L 157 1025 L 158 1023 L 165 1021 L 170 1015 L 173 1015 L 173 1012 L 177 1009 L 177 1006 L 179 1005 L 179 1000 L 181 999 L 181 992 L 183 991 L 183 988 L 181 987 L 181 976 L 179 975 L 179 968 L 173 963 L 173 960 L 170 960 L 167 956 L 164 956 L 159 952 L 152 952 L 151 950 Z" fill="#F4F1E8" fill-rule="evenodd"/>
<path d="M 50 950 L 52 953 L 55 953 L 57 951 L 58 953 L 69 955 L 74 960 L 74 963 L 78 966 L 78 969 L 82 974 L 82 979 L 84 980 L 84 999 L 82 1000 L 82 1009 L 78 1012 L 78 1015 L 73 1020 L 70 1020 L 65 1024 L 46 1024 L 45 1022 L 38 1020 L 29 1011 L 29 1006 L 25 1001 L 25 994 L 21 989 L 21 986 L 23 985 L 23 978 L 25 977 L 23 975 L 23 972 L 25 971 L 25 968 L 29 965 L 29 962 L 36 955 L 39 954 L 32 956 L 22 966 L 22 969 L 20 970 L 20 975 L 18 976 L 18 983 L 16 984 L 16 991 L 18 992 L 18 1005 L 20 1006 L 20 1009 L 32 1021 L 35 1021 L 40 1025 L 45 1025 L 46 1027 L 55 1027 L 56 1025 L 65 1025 L 66 1023 L 73 1021 L 85 1009 L 85 1006 L 89 1001 L 89 996 L 91 995 L 91 982 L 89 981 L 89 972 L 87 971 L 85 964 L 81 960 L 78 960 L 77 958 L 74 960 L 73 956 L 71 954 L 68 954 L 67 952 L 60 952 L 59 950 Z" fill="#F4F1E8" fill-rule="evenodd"/>
<path d="M 678 788 L 680 791 L 689 791 L 692 794 L 692 797 L 694 798 L 694 903 L 692 904 L 692 909 L 689 912 L 680 912 L 680 915 L 741 915 L 741 912 L 730 912 L 729 910 L 726 910 L 725 904 L 723 903 L 723 854 L 775 853 L 776 851 L 780 854 L 780 865 L 778 866 L 778 907 L 773 912 L 766 912 L 764 915 L 787 915 L 788 913 L 797 913 L 798 915 L 825 915 L 825 912 L 814 912 L 809 907 L 809 876 L 807 875 L 807 852 L 809 851 L 809 848 L 807 847 L 809 845 L 809 842 L 807 841 L 809 839 L 809 836 L 807 835 L 809 833 L 809 794 L 812 791 L 821 791 L 823 788 L 762 788 L 764 791 L 775 791 L 776 795 L 778 796 L 778 829 L 780 830 L 780 835 L 778 836 L 777 840 L 723 839 L 723 796 L 725 795 L 726 791 L 737 791 L 737 788 Z" fill="#F4F1E8" fill-rule="evenodd"/>
<path d="M 596 788 L 598 791 L 605 791 L 608 794 L 608 797 L 610 798 L 610 903 L 608 904 L 608 907 L 606 908 L 605 912 L 596 912 L 594 915 L 623 915 L 624 913 L 626 915 L 657 915 L 655 912 L 641 911 L 641 908 L 639 907 L 639 894 L 637 893 L 637 890 L 639 889 L 639 882 L 637 881 L 639 879 L 639 870 L 637 869 L 637 832 L 639 831 L 639 828 L 637 827 L 637 818 L 639 817 L 639 808 L 637 807 L 637 804 L 639 803 L 639 796 L 641 795 L 641 792 L 649 791 L 653 788 Z" fill="#F4F1E8" fill-rule="evenodd"/>
<path d="M 476 788 L 481 789 L 482 791 L 487 791 L 490 794 L 490 843 L 492 844 L 492 883 L 490 884 L 490 907 L 485 912 L 476 912 L 476 915 L 501 915 L 502 913 L 509 913 L 510 915 L 547 915 L 548 913 L 557 913 L 558 911 L 563 911 L 564 909 L 567 909 L 570 905 L 573 905 L 581 897 L 581 894 L 585 889 L 585 882 L 587 881 L 585 866 L 583 865 L 581 858 L 573 850 L 570 850 L 567 846 L 562 846 L 561 844 L 554 844 L 553 842 L 544 842 L 543 840 L 519 839 L 519 800 L 521 799 L 521 794 L 524 791 L 535 791 L 535 788 Z M 522 847 L 524 849 L 535 849 L 536 851 L 541 851 L 550 860 L 550 863 L 554 866 L 554 875 L 556 876 L 556 891 L 554 892 L 552 899 L 541 908 L 528 908 L 527 906 L 524 906 L 521 903 L 521 900 L 519 899 L 519 850 Z" fill="#F4F1E8" fill-rule="evenodd"/>
<path d="M 288 788 L 292 791 L 297 791 L 302 796 L 302 901 L 300 902 L 300 909 L 297 912 L 292 912 L 288 915 L 301 915 L 302 913 L 304 915 L 349 915 L 347 912 L 344 912 L 343 914 L 341 912 L 336 912 L 331 907 L 331 892 L 329 891 L 329 864 L 331 863 L 329 861 L 329 832 L 331 831 L 329 829 L 329 824 L 331 823 L 331 810 L 329 809 L 329 804 L 331 803 L 331 794 L 334 791 L 337 791 L 338 789 L 345 788 Z" fill="#F4F1E8" fill-rule="evenodd"/>
<path d="M 170 788 L 177 789 L 182 794 L 182 799 L 184 800 L 184 805 L 182 806 L 184 808 L 184 811 L 182 812 L 184 814 L 184 889 L 182 890 L 182 909 L 179 912 L 170 912 L 168 915 L 239 915 L 240 913 L 255 911 L 256 909 L 259 909 L 262 905 L 265 905 L 271 899 L 271 896 L 273 895 L 273 892 L 277 887 L 277 876 L 279 875 L 279 872 L 277 871 L 277 866 L 275 865 L 273 858 L 265 850 L 262 850 L 257 846 L 252 846 L 251 844 L 244 844 L 243 842 L 234 842 L 233 840 L 211 839 L 211 800 L 213 799 L 213 794 L 216 791 L 225 791 L 227 788 Z M 207 902 L 209 901 L 210 903 L 208 904 Z M 214 847 L 216 849 L 227 849 L 228 851 L 233 851 L 244 862 L 244 865 L 246 866 L 246 873 L 248 874 L 248 891 L 246 892 L 246 897 L 237 906 L 234 906 L 233 908 L 218 908 L 211 899 L 211 850 Z" fill="#F4F1E8" fill-rule="evenodd"/>
<path d="M 459 786 L 456 786 L 455 788 L 368 788 L 375 789 L 376 791 L 381 791 L 382 795 L 384 796 L 384 905 L 382 906 L 382 909 L 379 912 L 370 912 L 370 915 L 433 915 L 431 912 L 420 912 L 413 905 L 413 854 L 411 853 L 413 851 L 413 800 L 445 799 L 446 801 L 451 801 L 454 804 L 454 811 L 457 813 L 457 796 L 459 795 Z M 401 862 L 403 861 L 404 863 L 402 864 Z M 403 858 L 405 857 L 406 859 L 404 860 Z" fill="#F4F1E8" fill-rule="evenodd"/>
<path d="M 86 786 L 86 789 L 82 792 L 82 797 L 78 802 L 78 807 L 74 812 L 74 817 L 70 822 L 70 827 L 66 832 L 64 843 L 62 844 L 62 847 L 60 848 L 60 851 L 58 852 L 58 855 L 56 856 L 56 859 L 52 864 L 50 875 L 46 880 L 46 887 L 42 890 L 42 893 L 40 894 L 40 897 L 38 898 L 37 902 L 22 902 L 22 931 L 25 931 L 25 922 L 34 915 L 143 915 L 144 917 L 147 917 L 148 919 L 152 920 L 152 923 L 154 924 L 154 931 L 157 931 L 157 908 L 159 907 L 159 900 L 156 900 L 155 902 L 140 902 L 137 899 L 137 896 L 133 891 L 133 886 L 129 883 L 129 878 L 125 873 L 125 868 L 123 867 L 123 864 L 121 863 L 121 860 L 119 859 L 119 856 L 115 851 L 115 846 L 111 841 L 109 830 L 103 825 L 103 818 L 101 817 L 101 812 L 97 809 L 95 798 L 93 797 L 93 794 L 91 793 L 89 786 Z M 78 833 L 82 834 L 82 839 L 84 840 L 84 847 L 86 848 L 86 851 L 88 852 L 88 857 L 90 858 L 90 861 L 94 866 L 94 871 L 96 872 L 98 883 L 100 884 L 100 887 L 104 892 L 104 897 L 106 898 L 105 902 L 66 902 L 65 904 L 60 904 L 59 902 L 53 901 L 53 898 L 55 897 L 55 892 L 57 891 L 57 888 L 59 887 L 59 882 L 61 881 L 61 876 L 63 875 L 63 872 L 67 867 L 67 862 L 69 861 L 69 856 L 71 855 L 71 848 L 73 847 L 73 842 L 75 841 L 75 838 L 77 837 Z" fill="#F4F1E8" fill-rule="evenodd"/>
<path d="M 372 492 L 372 495 L 422 545 L 425 545 L 428 549 L 438 539 L 441 539 L 441 536 L 446 531 L 449 531 L 449 528 L 453 527 L 453 524 L 457 523 L 457 520 L 461 519 L 461 516 L 465 515 L 465 512 L 470 507 L 473 507 L 473 504 L 482 495 L 485 495 L 485 492 L 482 492 L 481 488 L 478 488 L 477 484 L 473 483 L 473 480 L 468 480 L 461 490 L 458 490 L 429 520 L 426 520 L 411 504 L 407 503 L 407 500 L 387 480 L 384 480 Z M 413 524 L 415 523 L 416 525 L 414 526 Z M 412 519 L 414 520 L 413 524 L 411 523 Z" fill="#F4F1E8" fill-rule="evenodd"/>
<path d="M 426 360 L 398 388 L 398 391 L 394 392 L 394 395 L 390 396 L 372 414 L 372 417 L 429 473 L 431 471 L 431 468 L 434 465 L 437 465 L 443 459 L 443 456 L 454 445 L 457 445 L 475 427 L 475 424 L 479 423 L 485 416 L 481 413 L 481 410 L 478 410 L 459 391 L 459 388 L 456 388 L 437 369 L 437 366 L 433 365 L 433 362 L 431 360 Z" fill="#F4F1E8" fill-rule="evenodd"/>
<path d="M 457 16 L 434 16 L 433 18 L 418 20 L 413 24 L 408 24 L 403 28 L 398 28 L 395 32 L 392 32 L 391 34 L 384 36 L 381 40 L 378 40 L 375 44 L 372 44 L 369 48 L 366 48 L 363 52 L 360 52 L 353 60 L 350 60 L 350 63 L 346 64 L 310 100 L 310 103 L 304 108 L 304 111 L 294 120 L 294 123 L 290 124 L 289 128 L 286 128 L 277 138 L 274 138 L 271 142 L 264 144 L 261 148 L 256 148 L 251 152 L 244 152 L 243 154 L 234 154 L 233 156 L 212 156 L 211 154 L 200 154 L 199 152 L 192 152 L 191 150 L 180 148 L 177 144 L 174 144 L 176 146 L 176 149 L 180 152 L 180 155 L 190 165 L 193 165 L 202 175 L 205 175 L 206 177 L 209 177 L 210 179 L 213 179 L 218 183 L 223 183 L 224 185 L 239 187 L 244 191 L 246 189 L 253 189 L 254 191 L 269 191 L 270 189 L 275 189 L 276 187 L 289 187 L 290 185 L 295 185 L 296 183 L 307 181 L 308 179 L 311 179 L 312 177 L 315 177 L 320 173 L 329 173 L 334 169 L 339 169 L 340 167 L 345 167 L 350 163 L 357 163 L 358 161 L 363 161 L 364 159 L 369 159 L 370 157 L 375 157 L 376 155 L 381 155 L 382 153 L 393 153 L 394 155 L 397 155 L 398 159 L 402 162 L 402 175 L 404 176 L 404 191 L 406 192 L 406 205 L 408 206 L 408 215 L 410 216 L 410 221 L 407 224 L 398 224 L 397 226 L 388 226 L 387 228 L 368 228 L 366 230 L 363 227 L 361 216 L 355 210 L 352 210 L 351 208 L 322 208 L 321 210 L 314 210 L 313 212 L 310 212 L 309 214 L 306 214 L 305 216 L 302 216 L 301 218 L 294 220 L 291 224 L 288 224 L 287 226 L 280 228 L 277 232 L 270 232 L 269 234 L 264 234 L 263 236 L 250 236 L 249 238 L 238 238 L 237 240 L 216 241 L 225 241 L 226 243 L 237 243 L 238 245 L 249 245 L 250 247 L 261 247 L 262 249 L 279 249 L 280 251 L 285 251 L 287 253 L 288 251 L 293 251 L 298 247 L 303 247 L 308 243 L 313 243 L 314 241 L 319 241 L 321 239 L 322 241 L 329 241 L 330 243 L 335 243 L 336 245 L 339 245 L 340 247 L 343 247 L 344 249 L 347 249 L 350 252 L 350 257 L 348 258 L 348 263 L 346 264 L 346 273 L 344 274 L 344 279 L 342 280 L 342 289 L 340 290 L 340 297 L 338 298 L 338 307 L 333 312 L 330 312 L 329 314 L 326 314 L 325 316 L 322 316 L 321 318 L 314 320 L 311 324 L 308 324 L 305 328 L 302 328 L 299 332 L 296 332 L 289 340 L 286 340 L 270 356 L 270 359 L 264 364 L 264 367 L 258 372 L 258 375 L 256 376 L 256 379 L 254 380 L 254 383 L 252 384 L 252 387 L 250 388 L 250 391 L 246 396 L 246 401 L 242 406 L 242 413 L 240 414 L 240 421 L 238 422 L 238 429 L 236 430 L 236 437 L 234 438 L 234 449 L 232 450 L 232 459 L 230 460 L 230 477 L 228 478 L 228 503 L 230 504 L 230 519 L 232 520 L 232 531 L 234 532 L 234 545 L 236 546 L 236 553 L 238 554 L 238 567 L 240 568 L 240 585 L 242 586 L 242 619 L 244 621 L 249 621 L 250 623 L 253 623 L 258 627 L 263 627 L 268 631 L 273 631 L 274 633 L 281 633 L 281 626 L 285 623 L 286 631 L 284 633 L 288 637 L 295 637 L 296 639 L 303 639 L 304 641 L 307 641 L 314 633 L 317 633 L 322 627 L 325 627 L 332 619 L 335 619 L 344 609 L 349 609 L 354 603 L 357 603 L 359 601 L 359 598 L 354 598 L 349 594 L 344 594 L 343 592 L 336 592 L 331 588 L 326 588 L 325 586 L 320 586 L 319 584 L 314 584 L 313 582 L 308 582 L 307 580 L 303 579 L 301 560 L 295 557 L 296 555 L 299 555 L 299 546 L 297 545 L 297 536 L 295 535 L 295 530 L 291 525 L 292 523 L 299 523 L 300 525 L 303 525 L 304 527 L 307 527 L 308 529 L 311 529 L 312 531 L 315 531 L 316 533 L 319 533 L 320 535 L 323 535 L 324 537 L 327 537 L 328 539 L 331 539 L 332 541 L 339 543 L 342 547 L 347 547 L 352 551 L 357 551 L 366 559 L 371 559 L 372 561 L 379 563 L 382 567 L 385 567 L 386 569 L 393 571 L 398 576 L 398 639 L 400 640 L 400 675 L 402 676 L 402 679 L 404 680 L 406 687 L 410 688 L 410 691 L 412 692 L 412 695 L 414 696 L 414 699 L 416 700 L 416 703 L 418 704 L 418 707 L 420 708 L 422 715 L 426 718 L 426 721 L 429 721 L 429 716 L 437 707 L 437 704 L 439 703 L 439 700 L 441 699 L 443 692 L 447 689 L 449 682 L 453 679 L 453 676 L 455 675 L 455 620 L 457 619 L 457 616 L 455 615 L 457 608 L 455 606 L 457 605 L 457 574 L 461 573 L 462 571 L 465 571 L 466 569 L 469 569 L 470 567 L 473 567 L 474 565 L 477 565 L 478 563 L 481 563 L 484 559 L 487 559 L 488 557 L 491 557 L 492 555 L 495 555 L 496 553 L 499 553 L 500 551 L 503 551 L 504 549 L 507 549 L 508 547 L 515 545 L 518 541 L 523 541 L 524 539 L 527 539 L 530 535 L 533 535 L 538 531 L 543 531 L 544 529 L 547 529 L 548 527 L 551 527 L 552 525 L 555 525 L 556 523 L 559 523 L 561 521 L 562 527 L 560 528 L 560 533 L 558 534 L 558 541 L 556 542 L 556 549 L 554 550 L 554 561 L 552 562 L 552 573 L 550 574 L 550 579 L 546 580 L 545 582 L 542 582 L 541 584 L 536 584 L 535 586 L 530 586 L 529 588 L 524 588 L 523 590 L 518 590 L 517 592 L 512 592 L 511 594 L 506 594 L 505 596 L 494 598 L 494 601 L 497 601 L 502 607 L 505 607 L 510 613 L 517 615 L 526 625 L 529 625 L 534 631 L 537 631 L 546 639 L 559 639 L 560 637 L 565 637 L 566 635 L 575 635 L 580 631 L 585 631 L 590 627 L 595 627 L 596 625 L 599 625 L 604 621 L 609 621 L 610 619 L 613 619 L 613 576 L 615 575 L 615 564 L 617 563 L 617 552 L 619 551 L 619 538 L 621 537 L 621 520 L 623 519 L 623 512 L 625 511 L 625 504 L 627 503 L 627 478 L 625 477 L 625 464 L 623 463 L 623 452 L 621 451 L 621 444 L 619 443 L 617 424 L 615 423 L 615 418 L 613 417 L 613 410 L 611 409 L 609 398 L 607 397 L 607 394 L 605 393 L 605 390 L 603 389 L 603 386 L 601 385 L 599 378 L 595 375 L 593 368 L 587 363 L 587 360 L 581 355 L 581 352 L 578 352 L 573 347 L 573 344 L 570 344 L 561 334 L 558 334 L 553 328 L 550 328 L 541 320 L 538 320 L 537 318 L 534 318 L 533 316 L 530 316 L 529 314 L 526 314 L 521 310 L 516 310 L 513 307 L 513 302 L 511 301 L 511 294 L 509 293 L 509 284 L 507 283 L 507 278 L 505 277 L 505 268 L 503 267 L 503 262 L 501 261 L 501 250 L 499 249 L 499 240 L 501 239 L 501 234 L 503 233 L 503 210 L 501 209 L 501 204 L 497 200 L 494 200 L 493 198 L 488 198 L 487 196 L 466 196 L 465 198 L 454 200 L 453 202 L 450 202 L 445 206 L 439 205 L 443 201 L 443 198 L 447 195 L 447 192 L 468 171 L 471 171 L 478 163 L 481 163 L 488 155 L 495 153 L 499 149 L 499 146 L 503 143 L 503 140 L 505 139 L 505 132 L 507 131 L 507 122 L 509 121 L 509 82 L 507 81 L 507 74 L 505 73 L 505 66 L 501 61 L 501 56 L 499 55 L 497 48 L 493 45 L 493 42 L 489 39 L 489 36 L 477 24 L 474 24 L 469 20 L 464 20 L 463 18 L 458 18 Z M 411 678 L 413 677 L 414 679 L 412 680 Z M 285 614 L 287 613 L 288 615 L 286 616 Z M 269 594 L 271 593 L 272 595 L 270 596 Z M 445 582 L 447 581 L 448 583 L 446 584 Z M 292 557 L 296 560 L 295 564 L 292 564 L 289 561 Z M 375 544 L 377 543 L 378 545 L 376 546 Z M 335 508 L 337 507 L 338 509 L 336 510 Z M 328 495 L 330 496 L 329 500 L 327 499 Z M 287 480 L 293 479 L 294 481 L 288 482 Z M 357 490 L 361 489 L 361 486 L 384 463 L 387 463 L 392 468 L 392 471 L 395 471 L 410 486 L 410 489 L 413 489 L 429 505 L 471 463 L 478 471 L 482 472 L 482 475 L 500 492 L 500 495 L 429 566 L 426 566 L 397 537 L 397 534 L 387 524 L 384 524 L 381 521 L 381 518 L 363 500 L 360 500 L 357 497 Z M 368 455 L 370 456 L 369 460 L 367 459 Z M 333 350 L 335 349 L 336 351 L 334 352 Z M 426 343 L 429 343 L 494 408 L 494 411 L 497 411 L 500 414 L 500 417 L 429 488 L 426 488 L 425 484 L 422 484 L 421 480 L 418 480 L 417 476 L 414 476 L 413 472 L 410 472 L 409 468 L 406 468 L 401 463 L 401 460 L 398 460 L 397 456 L 394 456 L 393 452 L 390 452 L 389 448 L 386 448 L 385 444 L 382 444 L 381 440 L 378 440 L 369 431 L 369 428 L 366 428 L 357 419 L 357 414 L 373 399 L 373 396 L 377 395 L 377 392 L 396 373 L 399 373 L 413 359 L 413 356 L 417 355 L 425 347 Z M 339 324 L 341 323 L 342 325 L 340 326 Z M 357 292 L 359 291 L 360 293 L 358 294 Z M 442 235 L 447 235 L 452 231 L 469 231 L 470 233 L 477 233 L 478 235 L 481 235 L 482 237 L 485 237 L 486 239 L 489 239 L 492 242 L 492 249 L 490 250 L 490 259 L 488 260 L 488 265 L 486 266 L 486 275 L 484 276 L 484 283 L 482 284 L 482 291 L 480 292 L 479 296 L 468 296 L 467 294 L 454 294 L 451 291 L 451 288 L 449 287 L 449 278 L 447 277 L 447 270 L 445 269 L 445 260 L 443 259 L 443 252 L 441 251 L 441 242 L 439 241 L 439 238 Z M 364 231 L 369 231 L 370 233 L 379 233 L 380 235 L 391 235 L 392 237 L 403 237 L 404 239 L 414 240 L 414 245 L 412 246 L 412 251 L 410 252 L 410 259 L 408 260 L 408 269 L 406 270 L 404 285 L 402 286 L 402 291 L 399 294 L 388 294 L 387 296 L 378 296 L 377 298 L 372 298 L 369 295 L 369 288 L 367 287 L 367 280 L 365 279 L 365 270 L 363 269 L 363 262 L 361 261 L 361 254 L 359 253 L 359 250 L 361 249 L 361 242 L 363 241 Z M 331 230 L 333 229 L 334 231 L 332 232 Z M 327 231 L 328 227 L 332 228 L 329 232 Z M 317 172 L 319 171 L 320 173 L 318 174 Z M 320 167 L 322 168 L 321 172 L 319 171 Z M 321 154 L 323 153 L 324 155 L 322 156 Z M 317 150 L 319 149 L 320 151 L 318 152 Z M 345 148 L 347 147 L 350 151 L 346 152 Z M 323 148 L 325 147 L 326 149 L 324 150 Z M 323 142 L 327 141 L 328 143 L 324 144 Z M 329 140 L 333 139 L 334 141 L 330 142 Z M 359 136 L 361 135 L 362 137 L 360 138 Z M 333 134 L 335 133 L 336 135 L 334 136 Z M 341 129 L 342 125 L 346 126 L 343 130 Z M 349 122 L 353 121 L 354 123 L 350 124 Z M 337 122 L 339 121 L 340 123 L 338 124 Z M 343 118 L 347 117 L 348 121 L 346 122 Z M 345 108 L 349 107 L 350 111 L 348 112 Z M 347 98 L 349 97 L 350 99 L 348 100 Z M 350 95 L 354 96 L 353 102 L 349 97 Z M 347 95 L 348 91 L 352 92 L 349 96 Z M 350 83 L 352 84 L 351 88 L 349 87 Z" fill="#F4F1E8" fill-rule="evenodd"/>
</svg>