<svg xmlns="http://www.w3.org/2000/svg" width="800" height="113" viewBox="0 0 800 113">
<path d="M 0 101 L 0 109 L 799 109 L 799 102 L 747 102 L 746 101 L 744 101 L 743 102 L 741 101 L 738 101 L 737 102 L 736 101 L 735 102 L 687 102 L 686 101 L 684 102 L 682 101 L 679 101 L 678 102 L 677 101 L 676 102 L 674 101 L 672 101 L 671 102 L 627 102 L 626 101 L 621 101 L 620 102 L 574 102 L 573 101 L 566 101 L 565 102 L 561 102 L 560 101 L 558 102 L 505 102 L 504 101 L 502 101 L 501 102 L 497 102 L 496 101 L 495 102 L 444 102 L 443 101 L 440 101 L 439 102 L 436 102 L 435 101 L 433 102 L 377 102 L 376 101 L 374 102 L 372 101 L 370 102 L 325 102 L 324 101 L 315 101 L 314 102 L 308 102 L 307 101 L 288 101 L 287 102 L 272 102 L 271 101 L 269 101 L 268 102 L 261 102 L 260 101 L 257 101 L 256 102 L 253 102 L 252 101 L 251 102 L 204 102 L 203 101 L 198 101 L 197 102 L 195 101 L 190 101 L 189 102 L 136 102 L 135 101 Z" fill="#7A4B00" fill-rule="evenodd"/>
<path d="M 782 50 L 781 51 L 781 55 L 782 57 L 783 57 L 799 74 L 799 63 L 795 60 L 786 50 Z" fill="#7A4B00" fill-rule="evenodd"/>
<path d="M 0 23 L 0 31 L 7 31 L 8 32 L 7 34 L 8 41 L 7 42 L 4 39 L 0 38 L 0 45 L 1 47 L 4 49 L 8 55 L 8 62 L 7 63 L 1 57 L 1 56 L 0 56 L 0 66 L 8 75 L 8 86 L 7 87 L 5 86 L 0 86 L 0 94 L 799 94 L 799 86 L 747 86 L 746 85 L 746 72 L 763 58 L 763 53 L 762 52 L 760 52 L 751 58 L 747 62 L 746 61 L 746 52 L 748 51 L 756 42 L 755 38 L 750 38 L 747 42 L 746 41 L 746 32 L 747 31 L 798 31 L 799 32 L 799 40 L 798 41 L 795 38 L 793 38 L 791 39 L 791 41 L 790 42 L 791 43 L 791 45 L 799 54 L 799 23 Z M 686 31 L 738 31 L 739 32 L 739 41 L 738 42 L 734 38 L 732 38 L 730 40 L 730 44 L 734 48 L 734 49 L 736 50 L 737 52 L 736 53 L 737 52 L 739 54 L 739 62 L 738 63 L 729 54 L 729 53 L 726 51 L 726 50 L 722 50 L 720 52 L 721 56 L 723 57 L 724 59 L 732 66 L 734 70 L 739 74 L 739 86 L 738 87 L 737 86 L 686 86 L 685 85 L 685 73 L 690 68 L 691 69 L 691 68 L 703 57 L 703 53 L 702 52 L 699 52 L 688 60 L 687 62 L 685 61 L 685 53 L 695 43 L 695 39 L 693 37 L 690 38 L 686 41 L 685 40 L 685 32 Z M 626 31 L 677 31 L 678 32 L 678 40 L 677 41 L 675 39 L 671 38 L 670 39 L 670 44 L 677 52 L 679 56 L 679 62 L 678 63 L 676 62 L 675 60 L 674 60 L 665 50 L 661 50 L 660 51 L 660 55 L 672 67 L 672 68 L 679 76 L 679 85 L 677 87 L 676 86 L 626 86 L 625 85 L 625 73 L 633 65 L 639 61 L 643 56 L 642 52 L 638 52 L 630 58 L 627 62 L 625 61 L 625 52 L 628 50 L 628 49 L 630 48 L 635 42 L 634 38 L 632 37 L 629 39 L 627 38 L 628 39 L 626 41 L 625 40 L 625 32 Z M 565 31 L 617 31 L 618 32 L 618 41 L 617 42 L 616 40 L 613 38 L 611 38 L 609 40 L 609 45 L 613 48 L 618 54 L 618 61 L 616 62 L 610 56 L 610 55 L 609 55 L 608 53 L 605 51 L 605 50 L 601 50 L 600 51 L 600 55 L 601 57 L 618 74 L 618 86 L 617 87 L 616 86 L 567 86 L 566 87 L 564 85 L 564 73 L 582 57 L 582 52 L 578 52 L 572 56 L 572 57 L 566 62 L 564 61 L 564 53 L 568 49 L 569 49 L 569 48 L 573 45 L 574 43 L 574 39 L 571 36 L 566 41 L 564 40 L 564 32 Z M 502 32 L 503 31 L 556 31 L 557 32 L 557 41 L 556 42 L 553 38 L 550 38 L 549 40 L 549 44 L 554 51 L 557 53 L 558 55 L 558 62 L 557 63 L 543 49 L 540 49 L 539 54 L 540 56 L 558 75 L 558 85 L 557 86 L 504 86 L 503 87 L 502 86 L 502 72 L 509 67 L 511 64 L 517 60 L 520 57 L 520 54 L 519 52 L 515 52 L 503 62 L 502 61 L 502 52 L 507 47 L 508 47 L 512 42 L 511 38 L 509 37 L 506 38 L 503 42 L 502 41 Z M 442 31 L 494 31 L 495 32 L 495 41 L 494 42 L 490 38 L 488 38 L 486 40 L 486 44 L 489 47 L 488 49 L 489 48 L 495 55 L 495 62 L 494 63 L 485 54 L 485 53 L 481 50 L 478 50 L 476 52 L 477 56 L 490 69 L 490 70 L 495 74 L 495 86 L 494 87 L 492 86 L 442 86 L 441 85 L 441 73 L 454 61 L 455 61 L 459 56 L 459 53 L 458 52 L 455 52 L 446 58 L 443 62 L 441 61 L 441 53 L 451 43 L 451 39 L 449 37 L 446 38 L 443 41 L 441 40 L 441 32 Z M 381 32 L 382 31 L 433 31 L 434 32 L 434 40 L 433 41 L 430 38 L 428 38 L 426 39 L 426 44 L 435 55 L 435 62 L 434 63 L 432 62 L 421 50 L 417 50 L 416 51 L 416 55 L 418 58 L 420 59 L 435 75 L 435 85 L 432 87 L 431 86 L 382 86 L 381 85 L 381 73 L 382 71 L 389 65 L 391 64 L 392 65 L 391 64 L 398 58 L 399 54 L 398 52 L 395 52 L 386 58 L 383 62 L 381 61 L 381 52 L 385 49 L 391 42 L 391 39 L 389 37 L 385 38 L 382 42 L 381 41 Z M 321 31 L 373 31 L 374 32 L 374 41 L 373 42 L 368 38 L 365 40 L 365 44 L 374 54 L 374 62 L 373 63 L 368 58 L 368 57 L 367 57 L 363 53 L 362 51 L 360 50 L 356 50 L 356 55 L 357 57 L 374 74 L 374 86 L 373 87 L 372 86 L 324 86 L 323 87 L 320 85 L 320 73 L 338 57 L 338 53 L 337 52 L 334 52 L 321 62 L 320 61 L 320 53 L 327 46 L 328 46 L 330 43 L 330 39 L 328 37 L 325 38 L 323 40 L 321 40 L 320 39 L 320 32 Z M 258 32 L 259 31 L 312 31 L 313 32 L 313 41 L 312 42 L 309 38 L 307 38 L 305 40 L 305 45 L 313 53 L 313 55 L 314 56 L 314 62 L 313 63 L 311 62 L 310 60 L 308 59 L 299 49 L 296 49 L 295 51 L 295 55 L 314 75 L 314 85 L 313 86 L 260 86 L 259 87 L 258 86 L 258 72 L 273 59 L 274 59 L 276 57 L 276 54 L 275 52 L 272 52 L 267 55 L 259 62 L 258 61 L 258 52 L 267 44 L 267 42 L 268 41 L 267 40 L 267 38 L 264 37 L 262 38 L 259 42 L 258 41 Z M 197 32 L 198 31 L 249 31 L 251 33 L 251 41 L 250 42 L 246 38 L 244 38 L 242 40 L 242 44 L 251 54 L 251 62 L 250 63 L 248 62 L 241 54 L 241 53 L 238 51 L 238 50 L 234 50 L 232 54 L 233 56 L 246 69 L 246 70 L 249 72 L 251 75 L 251 85 L 250 86 L 198 86 L 197 85 L 197 73 L 215 57 L 215 54 L 214 52 L 211 52 L 206 55 L 201 60 L 200 60 L 199 62 L 197 61 L 197 53 L 207 43 L 207 39 L 205 37 L 202 38 L 199 41 L 197 39 Z M 138 31 L 189 31 L 190 32 L 190 40 L 189 41 L 184 38 L 182 39 L 182 44 L 191 56 L 191 63 L 190 64 L 177 50 L 175 49 L 172 51 L 172 55 L 174 58 L 176 59 L 190 74 L 191 76 L 191 86 L 190 87 L 188 87 L 187 86 L 139 86 L 138 87 L 137 86 L 137 72 L 151 60 L 152 60 L 155 56 L 155 53 L 154 52 L 150 52 L 143 58 L 139 60 L 138 62 L 137 61 L 137 52 L 141 48 L 142 48 L 147 42 L 147 39 L 144 37 L 143 38 L 141 38 L 138 42 L 137 41 L 137 32 Z M 76 32 L 77 31 L 129 31 L 130 32 L 130 41 L 128 42 L 125 38 L 122 38 L 121 40 L 121 44 L 130 54 L 130 62 L 129 63 L 117 50 L 113 50 L 111 53 L 112 54 L 112 56 L 130 75 L 130 85 L 129 86 L 80 86 L 79 87 L 76 85 L 76 73 L 94 57 L 94 53 L 93 52 L 90 52 L 88 54 L 85 55 L 83 58 L 80 59 L 77 62 L 76 61 L 76 59 L 77 58 L 76 57 L 76 53 L 83 46 L 84 46 L 87 42 L 86 41 L 86 39 L 83 37 L 79 40 L 77 40 L 76 39 Z M 15 32 L 16 31 L 68 31 L 69 32 L 69 41 L 68 42 L 66 39 L 62 38 L 60 42 L 61 43 L 61 45 L 68 52 L 70 56 L 70 63 L 69 64 L 68 62 L 67 62 L 66 60 L 64 59 L 63 57 L 54 49 L 51 51 L 51 55 L 53 58 L 56 60 L 57 62 L 60 64 L 61 66 L 70 75 L 70 85 L 69 86 L 16 86 L 15 85 L 15 72 L 23 65 L 24 65 L 33 56 L 33 53 L 32 52 L 29 52 L 27 54 L 25 54 L 22 56 L 22 57 L 16 62 L 15 61 L 15 52 L 21 46 L 22 46 L 25 41 L 25 39 L 24 39 L 23 37 L 20 37 L 16 41 L 15 40 Z" fill="#7A4B00" fill-rule="evenodd"/>
<path d="M 799 3 L 420 4 L 419 5 L 181 5 L 180 6 L 0 6 L 0 15 L 69 15 L 70 14 L 301 14 L 302 13 L 511 13 L 512 12 L 722 12 L 723 11 L 799 11 Z" fill="#7A4B00" fill-rule="evenodd"/>
</svg>