<svg xmlns="http://www.w3.org/2000/svg" width="485" height="143" viewBox="0 0 485 143">
<path d="M 261 140 L 276 140 Z" fill="#000000" fill-rule="evenodd"/>
<path d="M 284 140 L 390 140 L 391 141 L 445 140 L 446 141 L 484 141 L 484 140 L 443 140 L 442 139 L 443 138 L 484 138 L 325 138 L 438 138 L 439 139 L 438 140 Z" fill="#000000" fill-rule="evenodd"/>
<path d="M 309 138 L 316 138 Z" fill="#000000" fill-rule="evenodd"/>
<path d="M 3 119 L 3 121 L 22 121 L 23 122 L 22 123 L 4 123 L 3 124 L 4 127 L 122 127 L 123 126 L 125 127 L 385 127 L 386 126 L 388 127 L 481 127 L 481 125 L 478 123 L 480 121 L 480 119 L 316 119 L 315 118 L 313 119 L 311 118 L 309 119 L 303 119 L 302 118 L 301 119 L 300 118 L 299 119 L 297 118 L 296 119 L 292 118 L 290 119 L 287 118 L 286 119 L 280 119 L 279 118 L 278 119 L 277 118 L 272 119 L 269 118 L 268 119 L 267 118 L 263 119 L 254 119 L 253 118 L 252 119 L 243 119 L 242 118 L 238 119 L 234 118 L 233 119 L 232 118 L 226 118 L 225 119 L 224 118 L 216 118 L 215 116 L 214 118 L 205 118 L 204 119 L 203 118 L 187 118 L 186 119 L 184 118 L 180 119 L 179 118 L 172 118 L 171 119 L 170 118 L 157 118 L 156 119 L 151 118 L 148 119 L 147 118 L 145 119 L 142 118 L 133 118 L 132 119 L 131 118 L 126 119 L 122 118 L 113 118 L 112 119 L 111 118 L 62 118 L 61 119 L 60 118 L 47 118 L 46 119 L 43 118 L 4 118 Z M 472 123 L 473 122 L 476 123 L 475 124 Z M 258 123 L 259 122 L 279 122 L 280 123 L 279 124 L 259 124 Z M 231 123 L 232 122 L 257 122 L 258 123 L 257 124 L 232 124 Z M 227 123 L 228 122 L 230 123 L 229 124 Z M 223 123 L 224 122 L 227 123 L 226 124 Z M 219 123 L 220 122 L 221 123 L 220 124 Z M 202 123 L 203 122 L 205 123 L 204 124 Z M 192 123 L 193 122 L 194 123 L 193 124 Z M 186 123 L 187 122 L 188 123 L 187 124 Z M 182 123 L 183 122 L 184 123 L 183 124 Z M 172 123 L 173 122 L 175 123 L 174 124 Z M 151 123 L 152 122 L 155 123 L 154 124 Z M 148 123 L 149 122 L 150 123 L 149 124 Z M 145 123 L 146 122 L 148 123 L 147 124 Z M 140 123 L 141 122 L 144 123 L 143 124 Z M 130 123 L 131 122 L 132 123 L 131 124 Z M 120 123 L 121 122 L 124 123 L 123 124 Z M 74 123 L 75 122 L 76 123 L 75 124 Z M 48 123 L 49 122 L 50 123 L 49 124 Z M 280 123 L 281 122 L 344 122 L 345 121 L 347 122 L 349 121 L 352 122 L 355 121 L 360 122 L 420 122 L 421 121 L 422 122 L 471 122 L 472 123 L 471 124 L 366 124 L 365 125 L 364 124 L 352 124 L 350 125 L 349 124 L 281 124 Z M 115 122 L 118 121 L 119 123 L 116 124 Z M 99 122 L 100 121 L 102 122 L 101 123 Z M 96 123 L 97 121 L 99 122 L 97 124 Z M 93 122 L 94 121 L 96 122 L 95 123 Z M 91 122 L 92 121 L 93 122 L 92 123 Z M 85 122 L 89 121 L 90 123 L 89 124 Z M 72 122 L 73 121 L 74 122 L 73 123 Z M 69 122 L 70 121 L 71 122 L 70 123 Z M 65 122 L 66 121 L 69 122 L 68 123 Z M 56 122 L 57 121 L 62 121 L 63 122 L 62 123 L 57 123 Z M 49 122 L 50 121 L 55 122 L 52 124 Z M 46 122 L 47 121 L 49 122 L 48 123 Z M 43 122 L 44 121 L 46 122 L 45 123 Z M 37 122 L 38 121 L 41 122 L 40 123 Z M 32 122 L 33 121 L 36 122 L 35 123 Z" fill="#000000" fill-rule="evenodd"/>
<path d="M 353 77 L 351 77 L 347 80 L 352 84 L 356 80 Z" fill="#000000" fill-rule="evenodd"/>
<path d="M 339 77 L 335 80 L 340 84 L 343 80 Z" fill="#000000" fill-rule="evenodd"/>
<path d="M 344 71 L 341 75 L 344 78 L 346 78 L 350 74 L 347 71 Z" fill="#000000" fill-rule="evenodd"/>
<path d="M 3 48 L 3 52 L 15 74 L 14 76 L 11 74 L 8 76 L 4 75 L 4 81 L 7 79 L 12 80 L 16 76 L 24 92 L 23 98 L 19 103 L 12 105 L 3 104 L 3 106 L 16 107 L 21 105 L 27 98 L 26 96 L 27 92 L 25 86 L 20 79 L 14 65 L 10 60 L 6 51 Z M 14 76 L 15 75 L 16 76 L 15 77 Z" fill="#000000" fill-rule="evenodd"/>
<path d="M 163 39 L 154 48 L 133 80 L 127 92 L 128 99 L 133 104 L 141 107 L 158 106 L 166 99 L 168 99 L 173 104 L 180 107 L 189 107 L 191 108 L 201 105 L 206 98 L 207 90 L 205 85 L 195 70 L 188 65 L 202 86 L 204 92 L 201 101 L 193 105 L 182 105 L 174 102 L 170 98 L 170 95 L 186 80 L 190 82 L 194 78 L 192 75 L 186 77 L 174 69 L 170 63 L 168 62 L 167 59 L 170 57 L 170 55 L 165 52 L 160 56 L 165 61 L 158 70 L 152 76 L 148 78 L 143 76 L 140 79 L 140 81 L 143 83 L 148 80 L 150 82 L 152 82 L 164 93 L 165 96 L 158 102 L 148 105 L 136 103 L 131 99 L 130 91 L 132 89 L 132 87 L 135 84 L 137 79 L 153 54 L 163 42 L 172 43 L 179 51 L 186 63 L 189 63 L 188 59 L 173 40 Z M 169 82 L 170 81 L 172 82 L 171 83 Z M 156 82 L 158 81 L 160 83 L 158 84 Z M 168 81 L 169 80 L 170 81 L 169 82 Z M 155 81 L 156 80 L 157 81 L 156 82 Z M 164 78 L 165 77 L 166 78 L 165 79 Z M 152 78 L 154 77 L 156 80 L 154 81 Z M 170 76 L 171 77 L 169 80 L 166 81 L 163 84 L 162 87 L 159 84 Z M 154 77 L 155 76 L 156 77 L 155 78 Z M 180 76 L 183 80 L 176 85 L 170 93 L 168 94 L 163 88 L 164 87 L 166 89 L 168 89 L 173 83 L 179 80 L 176 76 L 177 75 Z M 161 76 L 163 75 L 165 77 L 163 78 Z M 155 76 L 156 75 L 157 76 L 156 77 Z M 175 75 L 176 74 L 177 75 L 176 76 Z M 160 75 L 161 74 L 162 75 L 161 76 Z M 156 75 L 157 74 L 159 75 L 158 76 Z M 158 73 L 160 72 L 161 74 L 159 75 Z M 161 70 L 167 64 L 176 74 L 171 77 L 170 76 L 171 73 L 167 69 L 165 69 L 163 71 Z" fill="#000000" fill-rule="evenodd"/>
<path d="M 348 39 L 345 38 L 338 42 L 308 84 L 305 96 L 309 103 L 314 107 L 322 109 L 328 109 L 338 105 L 339 103 L 342 102 L 345 99 L 350 101 L 353 104 L 363 108 L 370 108 L 378 106 L 382 102 L 385 93 L 377 76 L 363 56 L 357 50 L 352 42 Z M 345 64 L 356 76 L 361 79 L 346 94 L 344 93 L 340 87 L 341 86 L 344 89 L 346 89 L 349 87 L 347 83 L 344 83 L 340 87 L 330 80 L 331 78 L 334 77 L 340 71 Z M 343 41 L 347 41 L 352 46 L 355 52 L 373 75 L 381 91 L 381 98 L 378 102 L 370 105 L 362 105 L 354 102 L 348 97 L 350 93 L 361 82 L 364 81 L 369 83 L 371 78 L 367 75 L 365 77 L 362 77 L 355 72 L 347 64 L 346 60 L 348 57 L 344 54 L 340 58 L 342 63 L 336 72 L 328 79 L 324 76 L 319 79 L 321 84 L 324 84 L 326 82 L 329 82 L 331 84 L 333 84 L 343 94 L 343 97 L 336 103 L 325 106 L 314 104 L 311 101 L 309 97 L 309 90 L 313 82 L 331 56 L 335 52 L 338 46 Z" fill="#000000" fill-rule="evenodd"/>
<path d="M 251 39 L 238 55 L 220 83 L 217 90 L 217 99 L 220 103 L 229 108 L 245 107 L 251 104 L 256 98 L 270 107 L 283 108 L 289 106 L 293 103 L 295 99 L 294 89 L 290 80 L 285 74 L 278 62 L 274 58 L 266 44 L 260 38 Z M 253 88 L 258 87 L 259 89 L 255 92 Z M 258 87 L 259 86 L 260 87 L 259 88 Z M 249 84 L 252 83 L 254 87 L 253 88 Z M 252 83 L 253 82 L 254 83 L 253 84 Z M 247 83 L 248 82 L 250 83 L 249 84 Z M 258 82 L 259 81 L 260 82 L 259 83 Z M 251 77 L 253 76 L 258 79 L 254 83 L 253 82 L 254 80 Z M 271 79 L 260 87 L 259 86 L 260 84 L 259 83 L 264 81 L 266 78 L 264 76 L 265 75 Z M 250 76 L 251 75 L 252 76 L 251 77 Z M 264 74 L 259 78 L 258 76 L 260 73 L 255 69 L 245 81 L 242 79 L 254 67 L 255 64 Z M 253 41 L 257 40 L 264 46 L 268 54 L 274 63 L 276 64 L 289 84 L 292 92 L 292 98 L 287 104 L 284 105 L 269 104 L 262 100 L 258 96 L 260 91 L 267 84 L 273 80 L 277 82 L 281 78 L 278 75 L 273 77 L 265 72 L 258 65 L 256 60 L 259 58 L 259 56 L 255 52 L 250 56 L 254 61 L 247 71 L 239 78 L 234 75 L 229 80 L 234 83 L 236 81 L 240 81 L 245 84 L 255 95 L 248 103 L 238 106 L 227 104 L 221 100 L 220 91 L 222 86 L 242 54 Z" fill="#000000" fill-rule="evenodd"/>
<path d="M 435 37 L 431 39 L 428 44 L 427 43 L 408 71 L 399 86 L 397 97 L 403 104 L 410 107 L 420 107 L 427 104 L 434 98 L 436 98 L 441 104 L 451 108 L 462 107 L 472 97 L 473 88 L 471 82 L 458 62 L 457 58 L 449 48 L 448 44 L 443 39 Z M 438 81 L 439 80 L 440 81 L 439 82 Z M 431 81 L 432 80 L 433 81 L 432 82 Z M 437 80 L 438 79 L 439 80 L 438 81 Z M 432 80 L 433 79 L 434 80 L 433 81 Z M 463 76 L 467 81 L 470 90 L 470 93 L 466 100 L 461 104 L 457 105 L 450 105 L 441 101 L 438 97 L 438 93 L 442 88 L 452 79 L 458 80 Z M 432 76 L 433 75 L 434 76 L 433 77 Z M 439 73 L 440 75 L 436 80 L 434 80 L 433 77 L 436 76 Z M 459 73 L 460 72 L 461 73 L 460 74 Z M 433 75 L 431 76 L 429 74 L 424 79 L 421 77 L 430 70 Z M 432 68 L 433 70 L 431 71 L 430 70 Z M 432 68 L 433 67 L 434 68 L 433 69 Z M 435 64 L 450 77 L 436 91 L 429 83 L 431 81 L 432 84 L 436 87 L 439 82 L 442 81 L 446 77 L 442 73 L 440 74 L 439 71 L 436 68 L 433 67 Z M 439 40 L 445 45 L 460 72 L 459 73 L 457 72 L 454 75 L 449 73 L 437 61 L 437 59 L 440 56 L 437 53 L 434 53 L 431 56 L 434 60 L 432 64 L 420 75 L 414 73 L 411 77 L 414 80 L 420 79 L 423 81 L 435 94 L 424 103 L 411 104 L 405 102 L 401 99 L 401 90 L 403 85 L 427 49 L 428 45 L 435 40 Z" fill="#000000" fill-rule="evenodd"/>
<path d="M 76 37 L 71 40 L 70 43 L 63 51 L 58 60 L 48 73 L 39 91 L 40 96 L 47 104 L 55 107 L 68 106 L 79 98 L 87 104 L 94 107 L 108 106 L 117 97 L 117 89 L 115 82 L 103 65 L 103 63 L 98 58 L 91 46 L 91 44 L 86 39 L 82 37 Z M 81 81 L 82 80 L 83 81 L 82 82 Z M 80 80 L 81 79 L 82 80 L 81 81 Z M 79 79 L 80 78 L 81 79 L 80 80 Z M 64 78 L 66 76 L 79 87 L 83 83 L 82 82 L 83 81 L 85 81 L 88 78 L 90 79 L 82 87 L 79 92 L 70 82 Z M 86 74 L 88 73 L 93 77 L 90 79 Z M 82 73 L 83 75 L 74 82 L 73 80 L 76 78 L 76 76 Z M 69 73 L 70 75 L 67 77 L 66 76 Z M 69 73 L 70 72 L 71 73 L 70 74 Z M 70 72 L 78 62 L 87 73 L 83 74 L 82 73 L 83 72 L 79 68 L 77 68 L 74 71 L 77 75 L 76 76 Z M 76 40 L 83 40 L 86 42 L 87 46 L 90 49 L 97 61 L 101 65 L 101 67 L 107 74 L 107 76 L 112 83 L 112 86 L 114 90 L 114 96 L 108 104 L 103 105 L 93 104 L 86 101 L 81 96 L 88 84 L 96 78 L 101 79 L 103 77 L 103 75 L 101 73 L 97 75 L 89 71 L 81 63 L 79 59 L 81 55 L 78 52 L 74 55 L 76 60 L 70 69 L 64 75 L 61 76 L 58 74 L 54 77 L 54 79 L 56 81 L 59 81 L 61 79 L 72 87 L 77 94 L 76 97 L 71 102 L 64 105 L 58 105 L 50 103 L 44 98 L 43 96 L 44 85 L 50 77 L 51 73 L 55 69 L 68 49 Z" fill="#000000" fill-rule="evenodd"/>
<path d="M 3 15 L 3 17 L 5 18 L 8 17 L 9 18 L 62 18 L 63 19 L 62 20 L 3 20 L 3 24 L 30 24 L 31 25 L 26 33 L 14 33 L 5 38 L 3 36 L 3 40 L 11 53 L 11 55 L 14 59 L 18 69 L 21 72 L 21 74 L 31 89 L 35 88 L 37 83 L 51 64 L 64 43 L 73 34 L 83 34 L 88 36 L 92 40 L 102 56 L 104 57 L 104 59 L 109 64 L 109 67 L 117 79 L 119 85 L 123 88 L 138 67 L 151 45 L 160 36 L 168 35 L 173 36 L 176 38 L 182 45 L 182 47 L 187 55 L 194 63 L 196 63 L 196 62 L 184 46 L 184 44 L 188 41 L 198 40 L 207 43 L 209 45 L 203 52 L 199 54 L 205 59 L 207 59 L 212 64 L 214 64 L 215 61 L 223 54 L 214 46 L 214 44 L 216 42 L 226 41 L 235 44 L 237 46 L 212 84 L 209 82 L 206 76 L 201 71 L 199 67 L 196 66 L 196 68 L 208 85 L 211 88 L 213 88 L 229 62 L 246 38 L 253 34 L 260 35 L 271 46 L 291 77 L 293 78 L 293 80 L 299 90 L 302 89 L 303 85 L 306 82 L 310 74 L 327 51 L 335 38 L 340 35 L 347 35 L 350 36 L 356 42 L 358 46 L 360 47 L 363 53 L 377 71 L 388 91 L 394 86 L 395 83 L 407 67 L 414 54 L 426 38 L 430 35 L 438 34 L 443 35 L 448 39 L 455 52 L 468 71 L 476 89 L 476 96 L 474 101 L 467 108 L 457 111 L 450 111 L 446 109 L 443 109 L 435 104 L 429 108 L 418 111 L 416 110 L 406 110 L 397 106 L 391 98 L 382 108 L 375 111 L 360 111 L 356 109 L 353 109 L 344 104 L 337 109 L 323 112 L 322 111 L 316 111 L 310 108 L 304 102 L 301 97 L 299 98 L 296 104 L 292 108 L 281 112 L 267 110 L 261 107 L 257 103 L 255 103 L 250 109 L 243 112 L 227 111 L 219 107 L 214 102 L 214 100 L 212 98 L 203 107 L 193 111 L 179 110 L 173 108 L 167 103 L 156 110 L 141 110 L 140 109 L 139 110 L 130 107 L 126 103 L 124 98 L 122 97 L 115 106 L 102 111 L 101 110 L 90 109 L 85 107 L 81 103 L 78 103 L 71 109 L 53 110 L 45 108 L 33 98 L 29 105 L 23 109 L 13 111 L 3 110 L 4 112 L 8 113 L 18 113 L 24 111 L 28 108 L 34 112 L 37 112 L 42 108 L 48 111 L 58 113 L 60 112 L 62 113 L 63 112 L 69 112 L 73 110 L 80 113 L 85 109 L 96 113 L 98 112 L 103 113 L 107 111 L 110 111 L 115 108 L 119 109 L 121 112 L 125 112 L 127 109 L 130 108 L 134 111 L 144 113 L 157 112 L 160 110 L 164 113 L 168 113 L 173 110 L 177 112 L 188 114 L 189 113 L 196 113 L 203 109 L 205 109 L 212 114 L 217 109 L 219 109 L 223 112 L 237 115 L 245 114 L 250 111 L 255 114 L 259 114 L 262 111 L 271 114 L 282 114 L 283 113 L 285 114 L 294 109 L 296 109 L 302 114 L 306 109 L 308 109 L 317 114 L 331 114 L 340 110 L 345 114 L 350 110 L 359 113 L 364 113 L 365 114 L 372 113 L 373 114 L 378 113 L 385 109 L 390 115 L 392 114 L 395 109 L 405 113 L 422 113 L 427 112 L 429 110 L 433 114 L 436 114 L 440 111 L 444 111 L 448 113 L 464 113 L 474 106 L 476 108 L 478 113 L 480 112 L 477 107 L 480 106 L 480 101 L 477 100 L 479 97 L 479 87 L 474 75 L 466 63 L 466 61 L 458 51 L 456 46 L 463 41 L 474 41 L 479 44 L 476 49 L 470 56 L 478 64 L 480 64 L 480 62 L 474 55 L 478 51 L 481 44 L 479 41 L 472 38 L 460 39 L 455 43 L 452 41 L 455 38 L 464 35 L 474 36 L 478 38 L 480 38 L 480 37 L 473 33 L 465 33 L 464 32 L 459 33 L 452 37 L 450 37 L 441 32 L 431 32 L 422 37 L 413 33 L 400 32 L 395 25 L 396 24 L 413 24 L 414 25 L 416 24 L 430 24 L 431 25 L 433 24 L 467 24 L 468 25 L 469 24 L 470 25 L 477 24 L 478 25 L 483 22 L 483 21 L 479 20 L 482 18 L 481 15 L 464 15 L 463 14 L 449 15 L 448 16 L 443 14 L 441 15 L 267 15 L 266 16 L 265 15 L 225 15 L 224 14 L 219 15 L 218 14 L 217 15 L 179 15 L 178 14 L 177 15 L 129 15 L 128 14 L 125 15 L 123 14 L 117 14 L 116 15 L 112 14 L 109 15 L 108 14 L 99 15 L 98 14 L 87 14 L 86 15 L 84 14 L 72 14 L 71 15 L 69 14 L 67 15 L 64 14 L 56 14 L 55 15 L 53 14 L 10 14 L 8 15 L 4 14 Z M 165 111 L 166 110 L 167 111 L 166 112 Z M 344 110 L 345 109 L 347 110 L 346 111 Z M 210 110 L 211 109 L 213 110 L 212 111 Z M 79 110 L 80 109 L 81 110 L 80 111 Z M 346 109 L 347 108 L 348 109 L 347 110 Z M 258 109 L 259 108 L 260 109 L 259 110 Z M 212 109 L 213 108 L 214 109 L 213 110 Z M 168 108 L 169 110 L 167 111 L 166 110 Z M 80 109 L 81 108 L 82 109 L 81 110 Z M 302 108 L 303 107 L 304 108 L 303 109 Z M 81 108 L 82 107 L 83 108 L 82 109 Z M 213 107 L 214 106 L 215 108 L 214 109 Z M 207 107 L 208 106 L 209 107 L 208 108 Z M 39 107 L 36 110 L 32 108 L 37 106 Z M 392 106 L 393 105 L 394 106 L 393 107 Z M 391 105 L 392 104 L 393 105 L 392 106 Z M 298 105 L 299 104 L 300 105 L 299 106 Z M 118 105 L 121 103 L 122 108 L 126 105 L 127 107 L 125 110 L 121 110 Z M 121 103 L 122 102 L 124 103 L 123 104 Z M 300 102 L 301 101 L 302 102 L 301 103 Z M 394 57 L 395 58 L 391 62 L 389 60 Z M 297 58 L 298 57 L 299 58 L 298 59 Z M 394 57 L 395 56 L 396 57 L 395 58 Z M 296 57 L 297 56 L 298 57 L 297 58 Z M 214 56 L 215 57 L 211 60 L 210 59 Z M 206 56 L 208 55 L 209 57 L 208 58 Z M 30 56 L 32 55 L 33 57 L 32 58 Z M 384 55 L 386 54 L 389 58 L 388 59 Z M 119 55 L 120 54 L 123 56 L 125 54 L 127 55 L 124 59 Z M 29 55 L 30 54 L 31 55 L 30 56 Z M 203 54 L 205 53 L 207 55 L 205 56 Z M 38 53 L 39 55 L 34 60 L 32 58 Z M 386 53 L 387 52 L 388 53 L 387 54 Z M 306 53 L 308 55 L 300 62 L 298 59 L 302 58 L 304 55 L 302 53 L 303 52 Z M 295 52 L 297 56 L 296 57 L 292 55 Z M 214 56 L 216 52 L 219 54 L 216 57 Z M 205 53 L 206 52 L 207 53 L 206 54 Z M 395 51 L 399 54 L 397 57 L 395 56 L 396 55 L 394 53 Z M 388 52 L 389 51 L 390 52 L 389 53 Z M 295 52 L 296 51 L 297 52 L 296 53 Z M 206 52 L 207 51 L 209 52 L 208 53 Z M 126 54 L 127 51 L 130 53 L 128 55 Z M 30 51 L 31 53 L 28 55 L 27 54 Z M 300 51 L 302 50 L 303 52 L 302 53 Z M 296 51 L 297 50 L 298 51 L 297 52 Z M 125 51 L 126 50 L 127 51 L 126 52 Z M 30 51 L 31 50 L 32 51 L 31 52 Z M 124 50 L 125 49 L 126 50 L 125 51 Z M 31 50 L 32 49 L 33 50 L 32 51 Z M 390 50 L 392 48 L 395 51 L 393 52 Z M 297 50 L 299 48 L 301 49 L 300 51 Z M 32 49 L 33 48 L 34 49 L 33 50 Z M 209 49 L 212 47 L 216 52 L 214 53 Z M 125 49 L 119 55 L 116 53 L 123 47 Z M 280 42 L 289 42 L 294 43 L 297 45 L 296 48 L 287 55 L 292 59 L 294 59 L 297 62 L 299 67 L 301 67 L 308 58 L 313 56 L 312 54 L 303 49 L 301 46 L 303 43 L 308 41 L 311 42 L 313 41 L 318 42 L 326 47 L 312 66 L 300 85 L 287 66 L 285 61 L 274 47 L 275 45 Z M 58 44 L 59 46 L 33 85 L 28 80 L 22 68 L 18 63 L 14 53 L 9 46 L 17 41 L 23 41 L 29 43 L 31 45 L 31 47 L 23 55 L 29 58 L 35 65 L 37 60 L 40 57 L 45 55 L 44 53 L 39 51 L 35 46 L 36 44 L 45 41 L 54 42 Z M 417 44 L 416 47 L 409 56 L 395 80 L 390 85 L 385 79 L 374 61 L 363 47 L 364 45 L 373 41 L 382 41 L 387 43 L 389 45 L 388 48 L 380 55 L 392 66 L 397 59 L 403 55 L 402 52 L 400 52 L 396 49 L 393 45 L 394 43 L 401 40 L 407 40 Z M 100 42 L 107 40 L 113 40 L 120 43 L 121 45 L 117 50 L 112 53 L 112 55 L 117 56 L 123 63 L 126 61 L 130 55 L 134 54 L 134 52 L 128 49 L 124 45 L 125 43 L 131 41 L 137 41 L 147 45 L 148 47 L 142 54 L 142 56 L 134 69 L 125 81 L 122 83 L 110 62 L 100 49 L 98 45 Z M 35 40 L 36 39 L 37 40 L 36 41 Z M 118 39 L 119 38 L 121 39 L 120 40 Z M 116 38 L 117 37 L 119 38 L 118 39 Z M 120 40 L 128 36 L 139 36 L 147 38 L 151 42 L 147 43 L 139 39 L 128 39 L 123 42 L 121 42 Z M 36 39 L 40 36 L 54 36 L 61 39 L 62 41 L 59 42 L 52 39 L 40 39 L 39 40 Z M 359 41 L 364 37 L 370 35 L 383 35 L 392 40 L 390 42 L 381 38 L 373 38 L 366 40 L 361 44 Z M 329 42 L 326 44 L 322 41 L 315 39 L 306 39 L 299 43 L 290 39 L 279 39 L 272 43 L 270 41 L 277 36 L 290 36 L 300 40 L 305 36 L 313 35 L 324 38 Z M 180 40 L 188 35 L 201 35 L 209 39 L 217 35 L 225 35 L 233 37 L 240 42 L 237 43 L 235 41 L 229 39 L 216 39 L 211 43 L 202 38 L 190 38 L 183 42 Z M 95 41 L 96 38 L 104 35 L 113 35 L 117 37 L 116 38 L 107 37 L 100 39 L 97 42 Z M 7 42 L 10 38 L 18 35 L 27 36 L 36 41 L 33 43 L 27 39 L 18 38 L 12 40 L 9 43 Z M 391 39 L 396 35 L 406 34 L 407 35 L 412 35 L 421 40 L 419 42 L 414 39 L 407 37 L 401 37 L 394 40 Z M 295 35 L 297 34 L 300 37 L 299 38 Z M 207 35 L 208 34 L 210 35 L 209 36 Z M 120 35 L 121 34 L 122 35 L 121 36 Z M 388 34 L 389 33 L 390 34 L 389 35 Z M 206 34 L 207 33 L 208 34 L 207 35 Z M 36 34 L 37 33 L 38 34 L 37 35 Z M 126 33 L 127 32 L 128 33 L 127 34 Z M 37 33 L 38 32 L 39 33 L 38 34 Z M 29 33 L 30 32 L 31 34 L 30 35 Z M 212 33 L 214 31 L 216 32 L 215 34 Z M 36 32 L 37 31 L 38 32 L 37 33 Z M 207 31 L 208 30 L 209 31 L 208 32 Z M 35 31 L 36 30 L 37 31 L 36 32 Z M 213 30 L 214 29 L 215 30 L 214 31 Z M 208 30 L 209 29 L 210 30 L 209 31 Z M 32 29 L 33 31 L 31 33 L 30 31 Z M 212 29 L 213 28 L 214 29 L 213 30 Z M 209 29 L 210 28 L 211 29 L 210 30 Z M 121 29 L 122 28 L 123 29 L 122 30 Z M 391 28 L 393 27 L 394 29 L 392 30 Z M 32 28 L 34 27 L 36 30 L 35 31 Z M 212 26 L 213 28 L 211 29 L 210 28 Z M 122 27 L 124 26 L 127 30 L 125 31 Z M 300 25 L 304 30 L 304 34 L 302 36 L 301 31 L 299 31 L 297 34 L 296 33 L 296 30 Z M 302 25 L 303 24 L 311 24 L 312 25 L 313 24 L 330 24 L 331 25 L 334 24 L 348 24 L 349 25 L 350 24 L 365 24 L 366 25 L 368 24 L 372 25 L 373 24 L 375 25 L 388 24 L 390 26 L 384 33 L 382 32 L 369 32 L 361 35 L 358 38 L 356 38 L 355 36 L 351 34 L 341 32 L 336 34 L 331 39 L 329 39 L 325 36 L 313 33 L 310 33 L 308 35 Z M 215 25 L 216 24 L 217 25 L 218 24 L 221 25 L 222 24 L 228 24 L 229 25 L 230 24 L 234 25 L 236 24 L 250 24 L 251 25 L 253 24 L 297 24 L 298 27 L 296 28 L 292 34 L 277 33 L 268 38 L 262 33 L 250 32 L 241 39 L 236 35 L 220 32 Z M 126 25 L 127 24 L 207 24 L 208 26 L 201 33 L 191 32 L 186 33 L 180 37 L 178 37 L 174 34 L 168 32 L 163 32 L 158 34 L 152 39 L 146 35 L 143 35 L 139 33 L 131 33 L 129 28 Z M 36 25 L 37 24 L 119 24 L 120 25 L 115 33 L 105 32 L 92 37 L 85 32 L 75 31 L 68 34 L 64 38 L 53 33 L 42 33 Z M 405 20 L 406 19 L 407 20 L 406 21 Z M 388 20 L 389 19 L 391 20 L 390 21 Z M 363 20 L 364 19 L 365 20 L 364 21 Z M 357 20 L 358 19 L 360 20 L 359 21 Z M 340 20 L 341 19 L 343 20 L 342 21 Z M 414 19 L 415 18 L 431 18 L 432 19 L 435 18 L 437 19 L 439 18 L 444 19 L 446 18 L 458 18 L 459 19 L 477 19 L 478 20 L 477 21 L 427 21 L 426 20 L 419 21 Z M 406 19 L 407 18 L 412 19 L 409 21 Z M 395 19 L 396 18 L 405 18 L 406 19 L 405 20 L 396 20 Z M 391 19 L 392 18 L 393 19 L 392 20 Z M 380 19 L 381 18 L 382 19 L 381 20 Z M 372 19 L 373 18 L 375 19 L 374 20 Z M 366 19 L 367 18 L 370 19 L 368 21 Z M 360 19 L 361 18 L 364 19 L 363 20 Z M 351 19 L 352 18 L 357 18 L 358 19 L 357 20 L 352 20 Z M 343 19 L 344 18 L 350 18 L 352 20 L 351 21 L 348 20 L 346 21 Z M 314 19 L 315 18 L 322 18 L 330 20 L 329 21 L 315 21 Z M 273 20 L 274 18 L 277 19 L 282 19 L 283 18 L 288 18 L 289 19 L 290 18 L 293 19 L 295 18 L 304 18 L 305 19 L 313 18 L 314 19 L 312 21 L 274 21 Z M 244 19 L 245 18 L 250 18 L 253 20 L 248 21 Z M 72 19 L 73 18 L 216 18 L 217 19 L 221 18 L 243 18 L 245 20 L 244 21 L 207 21 L 206 20 L 73 20 Z M 64 19 L 65 18 L 70 18 L 71 19 L 70 20 L 65 20 Z M 252 19 L 256 18 L 257 16 L 258 18 L 265 17 L 266 18 L 272 18 L 273 20 L 272 21 L 255 21 Z" fill="#000000" fill-rule="evenodd"/>
<path d="M 334 3 L 372 3 Z" fill="#000000" fill-rule="evenodd"/>
</svg>