<svg xmlns="http://www.w3.org/2000/svg" width="800" height="127" viewBox="0 0 800 127">
<path d="M 0 118 L 0 125 L 15 125 L 16 126 L 799 126 L 799 118 Z" fill="#7A4B00" fill-rule="evenodd"/>
<path d="M 0 16 L 0 23 L 2 25 L 1 26 L 2 27 L 2 38 L 3 39 L 2 42 L 3 43 L 3 48 L 4 49 L 6 60 L 10 66 L 10 68 L 11 69 L 11 71 L 13 73 L 13 75 L 19 84 L 23 88 L 22 89 L 24 89 L 31 96 L 32 96 L 33 98 L 36 100 L 36 101 L 40 102 L 46 106 L 45 107 L 0 107 L 0 114 L 799 114 L 799 106 L 768 106 L 767 107 L 765 107 L 764 106 L 758 106 L 757 105 L 760 103 L 767 101 L 767 100 L 769 99 L 771 96 L 772 96 L 779 89 L 780 89 L 788 78 L 789 74 L 793 69 L 793 66 L 797 59 L 797 56 L 799 51 L 799 16 Z M 312 106 L 313 105 L 314 106 L 313 107 Z M 742 105 L 743 104 L 744 105 L 743 106 Z M 726 105 L 727 104 L 728 105 L 727 106 Z M 460 105 L 461 104 L 462 105 L 461 106 Z M 342 105 L 343 104 L 344 105 L 343 106 Z M 326 105 L 327 104 L 328 105 L 327 106 Z M 208 105 L 209 104 L 210 105 L 209 106 Z M 735 101 L 736 102 L 736 105 L 735 106 L 734 105 L 734 102 Z M 729 102 L 730 101 L 731 102 L 730 103 Z M 335 101 L 336 102 L 336 106 L 335 107 L 334 106 L 334 102 Z M 329 102 L 330 101 L 331 102 L 330 103 Z M 205 102 L 206 101 L 207 102 L 206 103 Z M 765 96 L 758 101 L 753 102 L 750 104 L 748 104 L 747 105 L 744 105 L 743 104 L 753 91 L 760 93 Z M 705 96 L 712 93 L 714 91 L 717 91 L 721 95 L 727 104 L 726 105 L 720 104 L 717 102 L 715 102 L 711 100 L 709 98 L 707 98 Z M 631 96 L 623 102 L 620 102 L 610 106 L 609 105 L 619 91 L 622 91 L 624 93 L 627 93 Z M 572 96 L 577 93 L 579 93 L 581 91 L 584 91 L 586 95 L 590 99 L 594 105 L 593 106 L 592 105 L 586 104 L 583 102 L 581 102 Z M 498 96 L 489 102 L 487 102 L 484 104 L 482 104 L 478 106 L 476 105 L 487 91 L 489 91 L 491 93 L 493 93 Z M 439 96 L 444 93 L 446 93 L 448 91 L 451 91 L 461 104 L 460 105 L 457 105 L 456 104 L 448 102 Z M 365 96 L 356 102 L 354 102 L 347 105 L 344 105 L 343 104 L 345 102 L 346 99 L 353 91 L 360 93 L 362 95 L 364 95 Z M 305 96 L 310 93 L 312 93 L 314 91 L 317 91 L 321 95 L 322 98 L 327 104 L 326 105 L 323 105 L 322 104 L 314 102 Z M 231 96 L 223 102 L 217 103 L 213 105 L 210 105 L 209 104 L 219 91 L 222 91 L 224 93 L 227 93 Z M 172 96 L 176 93 L 179 93 L 182 91 L 184 91 L 194 105 L 193 106 L 192 105 L 188 105 L 183 102 L 181 102 L 177 100 Z M 97 96 L 91 101 L 89 101 L 86 103 L 84 103 L 80 105 L 77 105 L 76 106 L 75 105 L 82 95 L 86 91 L 88 91 Z M 38 96 L 45 92 L 47 92 L 49 90 L 52 93 L 52 95 L 61 105 L 59 106 L 55 104 L 52 104 L 50 102 L 47 102 L 43 100 Z M 222 88 L 228 79 L 232 79 L 235 81 L 238 81 L 244 84 L 244 85 L 237 92 L 236 92 L 235 94 L 231 93 L 227 90 Z M 41 79 L 47 87 L 42 91 L 38 92 L 35 94 L 31 92 L 25 85 L 26 83 L 28 83 L 31 81 L 33 81 L 34 80 L 35 81 L 38 79 Z M 763 78 L 778 84 L 778 85 L 772 91 L 771 90 L 772 91 L 768 94 L 756 88 L 756 86 Z M 707 78 L 714 86 L 714 88 L 711 90 L 709 90 L 703 94 L 701 94 L 695 88 L 695 87 L 692 85 L 695 82 L 697 82 Z M 629 78 L 644 84 L 644 85 L 635 94 L 631 93 L 629 91 L 625 90 L 622 88 L 624 84 Z M 573 78 L 578 83 L 581 88 L 580 89 L 578 89 L 576 91 L 574 91 L 568 94 L 563 90 L 559 84 L 560 83 L 563 83 Z M 497 78 L 512 84 L 512 85 L 510 86 L 506 91 L 505 90 L 506 91 L 504 92 L 503 94 L 496 92 L 489 88 L 489 87 Z M 441 78 L 448 87 L 445 90 L 435 94 L 432 90 L 426 85 L 426 84 Z M 363 78 L 378 84 L 377 86 L 368 94 L 365 92 L 363 92 L 361 90 L 360 91 L 355 87 L 357 86 L 359 82 Z M 344 78 L 348 83 L 350 87 L 350 90 L 343 99 L 342 98 L 343 99 L 340 103 L 339 102 L 339 96 L 340 95 L 340 91 L 341 90 L 341 84 Z M 307 78 L 314 86 L 314 88 L 303 94 L 301 94 L 294 87 L 294 86 L 292 85 L 292 84 L 293 83 L 294 84 L 301 80 L 303 80 Z M 211 78 L 214 82 L 214 84 L 216 86 L 217 89 L 213 93 L 207 102 L 206 101 L 207 85 L 209 83 L 209 79 Z M 173 78 L 180 85 L 181 88 L 180 89 L 178 89 L 176 91 L 174 91 L 173 92 L 172 91 L 173 92 L 172 93 L 168 94 L 163 90 L 159 84 L 160 83 L 163 83 L 167 80 L 170 80 Z M 88 87 L 92 81 L 94 81 L 93 80 L 96 78 L 97 79 L 99 79 L 100 81 L 102 80 L 104 82 L 107 82 L 110 84 L 106 90 L 101 94 L 90 89 Z M 744 77 L 750 86 L 750 90 L 740 103 L 739 102 L 739 96 L 741 91 L 741 84 L 743 82 L 743 78 Z M 726 77 L 727 78 L 727 81 L 729 84 L 730 95 L 731 96 L 731 100 L 729 102 L 720 89 L 720 87 L 724 81 L 724 79 Z M 611 77 L 612 78 L 612 80 L 615 84 L 614 85 L 616 86 L 617 89 L 607 102 L 606 101 L 607 85 L 609 83 L 609 79 Z M 592 77 L 594 80 L 594 83 L 596 86 L 596 94 L 597 95 L 597 102 L 596 103 L 594 99 L 590 95 L 589 92 L 586 89 Z M 478 77 L 482 84 L 481 85 L 484 87 L 484 89 L 474 103 L 473 102 L 473 95 L 475 90 L 474 86 L 476 83 L 476 81 Z M 460 77 L 461 78 L 461 82 L 463 86 L 463 91 L 464 92 L 464 97 L 465 98 L 465 102 L 464 103 L 458 96 L 457 93 L 453 89 L 454 86 L 456 84 L 456 82 Z M 192 77 L 194 80 L 194 83 L 196 86 L 196 94 L 197 95 L 197 102 L 196 103 L 194 99 L 190 95 L 189 92 L 188 92 L 186 89 Z M 77 77 L 81 85 L 83 87 L 83 89 L 73 102 L 72 101 L 73 87 L 74 86 L 75 80 Z M 58 77 L 60 78 L 60 82 L 62 85 L 62 92 L 63 93 L 63 101 L 62 102 L 52 88 L 54 86 L 54 84 L 57 80 L 57 78 Z M 326 76 L 327 77 L 327 81 L 329 84 L 329 90 L 330 91 L 330 95 L 331 96 L 331 100 L 329 102 L 327 98 L 320 89 L 320 87 L 322 85 L 322 83 L 324 81 Z M 379 68 L 380 67 L 381 68 L 380 69 Z M 772 66 L 776 66 L 777 67 L 780 67 L 781 68 L 780 69 L 781 68 L 784 68 L 788 70 L 785 76 L 780 82 L 777 80 L 769 78 L 765 75 L 767 71 Z M 372 66 L 376 66 L 380 69 L 381 68 L 384 68 L 385 70 L 386 69 L 388 70 L 383 79 L 380 82 L 377 80 L 369 78 L 364 75 Z M 697 65 L 706 75 L 701 78 L 690 81 L 685 76 L 684 72 L 682 70 L 685 68 L 689 68 Z M 638 66 L 640 65 L 647 68 L 651 68 L 654 70 L 651 76 L 647 81 L 644 81 L 641 79 L 638 79 L 631 75 L 634 70 Z M 563 65 L 570 72 L 570 73 L 572 74 L 572 75 L 567 78 L 556 81 L 551 75 L 549 70 L 552 68 L 556 68 Z M 508 65 L 510 67 L 514 67 L 522 70 L 514 82 L 513 81 L 508 80 L 505 78 L 503 78 L 498 75 L 500 72 Z M 431 65 L 436 70 L 439 75 L 435 78 L 432 78 L 429 80 L 423 81 L 419 76 L 416 70 L 417 69 L 419 69 L 423 67 L 427 67 Z M 297 65 L 306 75 L 301 78 L 298 78 L 290 82 L 282 70 L 283 69 L 293 67 Z M 231 75 L 235 69 L 240 65 L 247 68 L 251 68 L 254 70 L 249 79 L 246 81 L 233 77 Z M 165 66 L 170 72 L 170 74 L 172 75 L 167 78 L 156 81 L 151 75 L 149 70 L 152 68 L 159 67 L 162 65 Z M 105 65 L 110 67 L 113 67 L 115 69 L 117 68 L 121 70 L 119 72 L 116 78 L 112 82 L 104 78 L 101 78 L 97 75 L 101 69 L 103 68 Z M 30 65 L 34 69 L 38 75 L 28 80 L 25 80 L 23 82 L 19 78 L 15 70 L 18 68 L 22 68 Z M 718 61 L 722 65 L 722 67 L 724 69 L 725 73 L 722 79 L 720 81 L 720 83 L 717 85 L 715 83 L 714 80 L 711 78 L 711 76 L 712 75 L 713 70 L 716 65 L 716 63 Z M 485 61 L 488 63 L 491 73 L 493 76 L 492 79 L 490 80 L 486 86 L 484 84 L 484 82 L 482 80 L 479 73 L 480 69 L 481 68 L 482 69 L 483 68 L 482 69 L 481 67 Z M 453 61 L 456 67 L 458 69 L 459 73 L 456 77 L 456 79 L 454 81 L 453 84 L 451 86 L 445 78 L 445 74 L 447 72 L 447 69 L 449 67 L 449 64 Z M 752 60 L 754 62 L 753 64 L 755 65 L 755 67 L 757 70 L 757 73 L 759 75 L 759 78 L 755 82 L 753 86 L 750 83 L 747 76 L 745 74 L 745 71 L 748 65 Z M 618 60 L 621 63 L 621 66 L 626 76 L 624 79 L 623 78 L 624 80 L 622 82 L 620 81 L 621 83 L 619 86 L 615 81 L 615 79 L 611 73 L 616 62 Z M 584 60 L 587 63 L 592 72 L 589 78 L 587 80 L 587 82 L 585 85 L 583 85 L 577 77 L 579 73 L 579 71 L 581 68 L 582 63 Z M 451 61 L 452 60 L 453 61 L 452 62 Z M 352 60 L 355 65 L 356 70 L 359 75 L 359 78 L 357 79 L 356 82 L 353 86 L 350 83 L 350 81 L 348 79 L 345 73 L 345 71 L 347 67 Z M 318 60 L 322 65 L 322 67 L 325 71 L 325 73 L 322 79 L 320 81 L 320 83 L 318 86 L 314 82 L 314 80 L 313 80 L 311 77 L 311 75 L 313 73 L 313 70 Z M 218 60 L 220 61 L 221 66 L 226 76 L 225 78 L 224 77 L 225 78 L 219 86 L 217 84 L 216 81 L 214 79 L 214 77 L 211 73 L 216 62 Z M 185 60 L 186 61 L 186 63 L 190 68 L 192 73 L 190 75 L 189 78 L 187 80 L 186 84 L 184 86 L 178 79 L 177 76 L 181 68 L 182 63 Z M 85 60 L 88 66 L 88 68 L 90 70 L 90 73 L 92 76 L 90 79 L 89 78 L 90 79 L 85 86 L 80 78 L 80 76 L 78 73 L 78 70 L 80 68 L 81 65 L 82 64 L 83 65 L 82 63 L 84 62 Z M 51 60 L 54 64 L 58 73 L 54 79 L 52 84 L 50 86 L 43 77 L 48 66 L 48 64 Z M 783 52 L 787 52 L 788 53 L 789 52 L 794 52 L 795 53 L 793 54 L 794 55 L 794 57 L 792 60 L 791 65 L 789 67 L 788 66 L 785 66 L 774 62 L 779 55 Z M 675 53 L 676 52 L 683 52 L 684 53 L 687 52 L 691 55 L 696 62 L 695 63 L 690 64 L 687 66 L 683 66 L 681 67 L 679 65 L 679 63 L 677 59 L 677 56 Z M 649 52 L 658 52 L 659 53 L 660 52 L 661 53 L 658 64 L 656 67 L 650 66 L 647 64 L 644 64 L 641 62 L 644 57 Z M 542 53 L 543 52 L 544 53 L 545 52 L 553 52 L 554 53 L 556 53 L 557 54 L 557 56 L 559 57 L 562 62 L 559 64 L 556 64 L 555 65 L 547 67 L 545 64 Z M 517 52 L 520 52 L 521 53 L 523 52 L 527 52 L 528 53 L 525 64 L 523 67 L 518 66 L 515 64 L 512 64 L 508 62 L 512 56 Z M 409 53 L 410 52 L 421 52 L 425 55 L 430 62 L 426 64 L 423 64 L 420 66 L 416 66 L 414 67 L 411 61 L 411 58 Z M 383 52 L 387 52 L 388 53 L 392 52 L 394 54 L 391 65 L 389 67 L 388 66 L 384 66 L 381 64 L 378 64 L 374 62 L 379 55 Z M 275 53 L 276 52 L 288 52 L 292 56 L 292 58 L 293 58 L 296 62 L 292 64 L 289 64 L 287 66 L 282 66 L 281 67 L 279 65 L 278 59 Z M 247 53 L 249 52 L 260 52 L 261 53 L 259 61 L 256 67 L 254 66 L 250 66 L 247 64 L 243 64 L 241 62 Z M 142 54 L 145 52 L 153 52 L 158 56 L 162 62 L 159 64 L 147 67 L 145 64 Z M 116 52 L 119 52 L 120 53 L 121 52 L 126 52 L 127 53 L 126 54 L 126 58 L 124 62 L 124 65 L 122 67 L 117 65 L 114 65 L 107 62 L 112 55 Z M 8 53 L 9 52 L 20 52 L 29 62 L 26 64 L 22 64 L 19 66 L 13 67 L 12 66 L 12 64 L 10 60 L 10 57 Z M 417 48 L 418 47 L 419 48 L 418 49 Z M 363 47 L 365 50 L 365 54 L 367 57 L 369 64 L 365 70 L 362 72 L 361 74 L 359 71 L 359 69 L 357 66 L 357 64 L 355 61 L 354 57 L 355 56 L 355 54 L 362 47 Z M 307 47 L 309 47 L 316 55 L 316 58 L 315 59 L 314 64 L 309 74 L 301 64 L 302 60 L 304 57 L 305 50 Z M 251 48 L 252 47 L 253 48 L 252 49 Z M 763 46 L 764 47 L 765 53 L 766 54 L 767 59 L 769 62 L 769 64 L 763 73 L 761 74 L 759 71 L 759 69 L 754 58 L 754 56 Z M 708 46 L 716 55 L 716 59 L 714 61 L 712 69 L 709 74 L 701 64 L 702 60 L 704 57 L 705 50 Z M 629 46 L 631 49 L 631 51 L 633 55 L 632 56 L 635 62 L 635 65 L 628 74 L 625 70 L 625 68 L 623 65 L 623 63 L 620 56 Z M 574 46 L 582 55 L 582 59 L 580 62 L 580 65 L 577 70 L 577 72 L 575 74 L 567 64 L 569 60 L 569 57 L 572 51 L 572 48 Z M 496 46 L 498 48 L 498 50 L 500 54 L 500 57 L 503 64 L 495 74 L 488 59 L 488 55 Z M 441 46 L 450 56 L 449 60 L 447 63 L 447 65 L 445 67 L 445 70 L 442 74 L 440 70 L 435 64 L 435 62 L 437 59 L 437 56 Z M 229 46 L 232 52 L 232 55 L 235 62 L 235 65 L 228 74 L 225 70 L 225 67 L 223 65 L 223 63 L 220 57 L 223 52 Z M 174 46 L 183 57 L 181 60 L 180 65 L 178 67 L 178 69 L 175 74 L 167 64 L 169 61 L 169 57 L 171 54 L 172 48 Z M 95 46 L 97 48 L 96 50 L 98 52 L 100 60 L 102 63 L 94 74 L 91 70 L 91 67 L 90 66 L 91 64 L 90 65 L 89 64 L 89 62 L 86 57 L 90 51 Z M 40 46 L 45 51 L 49 57 L 47 60 L 46 65 L 44 67 L 44 70 L 41 74 L 34 64 L 34 62 L 38 52 L 38 49 Z M 286 43 L 287 42 L 288 44 L 287 45 Z M 777 35 L 779 40 L 779 46 L 780 47 L 780 49 L 771 61 L 770 60 L 770 57 L 768 54 L 767 48 L 765 45 L 765 43 L 771 38 L 773 38 L 774 36 Z M 693 35 L 698 37 L 705 43 L 705 46 L 699 61 L 690 49 L 691 42 L 692 41 L 692 36 Z M 643 35 L 645 40 L 646 49 L 644 51 L 644 53 L 639 58 L 639 59 L 637 60 L 635 57 L 635 53 L 633 50 L 634 49 L 631 44 L 634 40 Z M 560 35 L 566 38 L 572 44 L 570 46 L 568 56 L 565 60 L 557 50 L 558 39 Z M 491 105 L 498 101 L 500 101 L 516 86 L 518 82 L 521 79 L 524 72 L 526 70 L 526 67 L 531 57 L 531 53 L 534 45 L 534 36 L 535 35 L 536 36 L 536 42 L 537 43 L 536 46 L 538 49 L 539 57 L 540 58 L 540 60 L 542 62 L 544 70 L 546 72 L 548 77 L 556 88 L 561 93 L 562 93 L 564 96 L 565 96 L 570 101 L 572 101 L 574 103 L 576 103 L 579 105 L 578 106 L 492 106 Z M 510 35 L 512 38 L 512 44 L 514 48 L 512 51 L 511 50 L 512 52 L 510 54 L 508 53 L 509 55 L 505 61 L 503 58 L 500 46 L 498 44 L 504 38 Z M 427 35 L 435 39 L 437 42 L 439 43 L 437 47 L 437 51 L 435 54 L 435 57 L 433 60 L 430 58 L 424 49 L 425 39 Z M 377 35 L 379 40 L 378 41 L 379 42 L 380 49 L 376 55 L 373 58 L 372 57 L 373 59 L 371 61 L 369 58 L 369 55 L 368 54 L 365 43 L 369 39 Z M 293 35 L 301 39 L 305 43 L 304 49 L 302 52 L 302 55 L 299 61 L 290 49 L 291 47 L 291 42 L 292 41 L 292 36 Z M 243 35 L 244 36 L 243 37 L 245 41 L 246 50 L 244 53 L 242 54 L 240 58 L 237 60 L 235 57 L 235 53 L 233 50 L 234 49 L 231 44 L 235 39 L 237 39 Z M 160 35 L 166 38 L 171 43 L 167 58 L 165 60 L 161 56 L 157 50 L 158 39 Z M 109 35 L 111 38 L 112 50 L 110 53 L 108 54 L 107 57 L 105 59 L 104 58 L 105 59 L 104 61 L 102 59 L 101 53 L 98 46 L 98 43 L 102 39 L 105 38 Z M 26 35 L 34 39 L 38 44 L 34 54 L 34 57 L 32 60 L 29 58 L 27 54 L 23 50 L 24 40 Z M 540 33 L 541 33 L 546 40 L 545 41 L 546 40 L 552 48 L 551 49 L 549 48 L 547 49 L 546 48 L 541 48 L 540 47 L 540 42 L 539 41 L 539 34 Z M 274 33 L 285 47 L 284 49 L 283 48 L 275 48 L 274 47 L 274 44 L 273 43 L 273 34 Z M 674 32 L 679 40 L 685 47 L 684 49 L 683 48 L 675 48 L 674 47 L 674 42 L 673 41 L 673 33 Z M 534 33 L 535 32 L 536 33 L 535 34 Z M 530 32 L 531 33 L 530 47 L 529 48 L 520 49 L 519 47 L 527 36 L 528 37 L 527 36 Z M 272 33 L 273 32 L 274 33 L 273 34 Z M 140 32 L 152 48 L 151 49 L 149 48 L 141 48 L 140 47 L 140 42 L 139 41 L 139 33 Z M 129 32 L 130 33 L 129 47 L 128 48 L 120 48 L 118 49 L 117 48 Z M 6 32 L 15 43 L 17 47 L 16 49 L 15 48 L 13 48 L 12 49 L 11 48 L 7 48 L 6 47 L 7 46 L 6 45 L 6 41 L 5 40 L 5 33 Z M 797 31 L 798 32 L 798 39 L 797 40 L 797 45 L 795 48 L 787 48 L 786 49 L 785 47 Z M 663 31 L 664 32 L 664 41 L 663 42 L 663 46 L 661 48 L 657 48 L 656 49 L 654 48 L 652 49 L 651 47 L 653 46 L 656 42 L 656 40 L 659 36 L 661 35 Z M 407 31 L 418 46 L 417 48 L 409 48 L 407 46 L 407 41 L 406 40 L 406 32 Z M 397 31 L 398 32 L 398 38 L 397 39 L 397 45 L 395 48 L 387 48 L 386 49 L 385 47 L 389 43 Z M 263 31 L 264 32 L 264 41 L 263 42 L 263 46 L 261 48 L 253 48 L 252 46 L 257 40 L 259 36 L 261 35 Z M 794 28 L 795 29 L 789 37 L 788 36 L 789 37 L 786 42 L 783 44 L 781 41 L 781 36 L 780 35 L 780 33 L 783 31 L 787 31 L 788 29 L 792 29 Z M 676 28 L 680 28 L 682 30 L 687 31 L 688 33 L 689 32 L 690 33 L 690 35 L 689 36 L 689 42 L 687 45 L 675 29 Z M 660 28 L 661 29 L 656 37 L 654 39 L 653 38 L 654 39 L 649 45 L 647 41 L 647 35 L 646 33 L 650 31 L 653 31 L 657 28 Z M 542 28 L 546 28 L 548 30 L 550 30 L 557 33 L 556 38 L 555 39 L 555 43 L 554 44 L 553 44 L 541 29 Z M 528 28 L 529 29 L 525 33 L 523 37 L 521 39 L 520 38 L 521 39 L 520 41 L 516 44 L 515 43 L 515 38 L 513 33 L 517 31 L 521 31 L 524 28 Z M 410 28 L 413 28 L 417 31 L 421 31 L 424 33 L 423 35 L 423 40 L 421 45 L 418 42 L 411 31 L 409 30 Z M 394 28 L 395 29 L 383 45 L 381 41 L 381 36 L 380 35 L 380 33 L 388 29 Z M 275 29 L 276 28 L 280 28 L 284 31 L 289 32 L 290 33 L 290 35 L 289 36 L 289 41 L 286 43 Z M 260 28 L 261 29 L 260 31 L 256 34 L 257 35 L 256 37 L 254 38 L 252 42 L 249 45 L 247 41 L 247 35 L 246 33 L 247 32 L 252 31 L 257 28 Z M 142 28 L 146 28 L 148 29 L 149 31 L 153 31 L 157 33 L 156 38 L 155 39 L 155 43 L 154 44 L 150 41 L 145 33 L 141 29 Z M 127 28 L 128 29 L 124 33 L 119 41 L 115 44 L 114 43 L 113 33 L 115 31 L 119 31 L 123 28 Z M 9 28 L 12 28 L 17 31 L 20 31 L 23 33 L 22 35 L 22 41 L 20 45 L 16 39 L 15 39 L 11 34 L 10 31 L 8 29 Z M 534 28 L 535 27 L 536 29 L 535 30 Z M 402 26 L 403 27 L 403 38 L 404 39 L 404 47 L 405 48 L 405 52 L 406 53 L 407 59 L 411 66 L 412 71 L 414 73 L 414 75 L 422 86 L 431 95 L 432 95 L 435 99 L 437 100 L 436 101 L 439 101 L 443 104 L 444 103 L 447 105 L 444 107 L 364 107 L 363 106 L 358 106 L 357 105 L 360 103 L 367 101 L 367 100 L 371 96 L 379 90 L 392 71 L 393 65 L 397 59 L 397 56 L 399 51 L 400 39 L 401 38 L 401 27 Z M 134 26 L 136 27 L 136 29 L 135 30 L 136 32 L 135 33 L 135 35 L 136 36 L 136 43 L 137 44 L 137 48 L 139 53 L 139 57 L 143 65 L 144 70 L 156 88 L 170 101 L 172 101 L 174 103 L 178 104 L 179 105 L 177 107 L 91 107 L 90 106 L 91 104 L 99 101 L 104 96 L 105 96 L 105 95 L 114 87 L 120 78 L 122 77 L 122 74 L 125 69 L 127 62 L 129 60 L 129 57 L 130 56 L 130 53 L 132 48 L 132 42 L 133 41 L 133 27 Z M 679 25 L 680 23 L 791 23 L 792 24 L 789 26 L 783 27 L 781 29 L 773 32 L 769 36 L 760 42 L 753 52 L 749 56 L 739 79 L 739 83 L 738 84 L 738 88 L 737 89 L 737 98 L 735 101 L 733 97 L 733 88 L 731 83 L 731 78 L 729 75 L 729 73 L 727 71 L 727 68 L 725 65 L 726 64 L 722 59 L 723 58 L 721 57 L 718 53 L 717 50 L 715 49 L 715 48 L 708 41 L 708 40 L 701 36 L 697 32 L 685 26 L 680 26 Z M 668 23 L 669 24 L 670 46 L 671 47 L 672 54 L 673 55 L 674 60 L 677 65 L 678 70 L 681 74 L 682 78 L 688 86 L 697 95 L 698 95 L 704 101 L 708 103 L 710 103 L 713 105 L 711 107 L 709 107 L 708 106 L 707 107 L 672 107 L 671 106 L 666 106 L 665 107 L 624 107 L 623 106 L 624 104 L 629 103 L 634 100 L 635 101 L 634 99 L 646 89 L 654 78 L 656 73 L 659 70 L 658 69 L 663 59 L 665 49 L 666 48 L 666 40 L 667 39 L 667 24 Z M 545 24 L 546 23 L 657 23 L 658 24 L 656 26 L 651 26 L 647 29 L 639 32 L 627 42 L 627 43 L 620 50 L 619 53 L 617 54 L 614 58 L 614 60 L 611 64 L 610 69 L 605 80 L 605 85 L 603 90 L 603 102 L 602 103 L 603 105 L 602 106 L 600 105 L 600 92 L 598 87 L 597 77 L 594 72 L 593 67 L 591 65 L 591 62 L 587 57 L 586 54 L 576 43 L 575 40 L 574 41 L 570 37 L 567 36 L 564 32 L 560 31 L 553 27 L 547 26 Z M 412 24 L 413 23 L 525 23 L 526 24 L 523 26 L 519 26 L 507 32 L 503 36 L 500 37 L 484 54 L 478 65 L 478 67 L 476 69 L 476 73 L 474 75 L 474 77 L 473 78 L 473 82 L 472 83 L 472 87 L 471 88 L 470 105 L 469 106 L 468 105 L 467 89 L 466 88 L 465 80 L 464 79 L 463 74 L 461 71 L 460 66 L 458 64 L 458 62 L 456 58 L 453 55 L 451 51 L 446 46 L 446 45 L 439 38 L 435 36 L 431 32 L 427 31 L 425 29 L 419 26 L 414 26 Z M 401 24 L 402 23 L 403 25 L 402 26 Z M 279 25 L 280 23 L 391 23 L 392 24 L 389 26 L 388 25 L 385 27 L 383 27 L 381 29 L 373 32 L 369 36 L 360 42 L 360 43 L 349 56 L 339 79 L 339 83 L 338 84 L 338 88 L 337 89 L 337 97 L 335 101 L 333 97 L 333 88 L 331 83 L 331 78 L 327 71 L 326 66 L 320 54 L 318 53 L 315 48 L 305 38 L 301 36 L 297 32 L 285 26 L 280 26 Z M 268 23 L 269 24 L 270 46 L 271 47 L 271 50 L 273 54 L 273 57 L 274 58 L 275 63 L 277 65 L 277 67 L 278 68 L 277 69 L 288 86 L 297 95 L 298 95 L 304 101 L 308 102 L 313 105 L 309 107 L 308 106 L 303 106 L 302 107 L 224 107 L 223 106 L 225 104 L 229 103 L 231 101 L 234 101 L 233 100 L 247 88 L 258 71 L 259 66 L 263 59 L 264 52 L 266 48 L 266 43 L 267 42 L 267 24 Z M 145 24 L 146 23 L 257 23 L 258 24 L 256 26 L 251 26 L 247 29 L 239 32 L 234 37 L 231 38 L 225 44 L 225 45 L 222 47 L 217 55 L 214 58 L 214 60 L 210 66 L 209 72 L 205 80 L 205 86 L 203 90 L 203 98 L 202 99 L 203 103 L 201 106 L 200 105 L 200 92 L 198 87 L 197 77 L 194 72 L 193 67 L 191 65 L 191 62 L 188 59 L 186 54 L 176 42 L 175 42 L 170 37 L 167 36 L 166 34 L 162 31 L 160 31 L 151 26 L 147 26 Z M 133 24 L 134 23 L 136 25 L 134 26 Z M 11 24 L 12 23 L 123 23 L 124 24 L 121 26 L 118 26 L 117 27 L 115 27 L 111 30 L 109 30 L 98 38 L 90 45 L 85 53 L 81 57 L 80 61 L 76 67 L 75 72 L 72 78 L 72 82 L 71 83 L 71 87 L 70 88 L 70 95 L 69 96 L 69 105 L 68 106 L 67 105 L 67 100 L 66 99 L 66 89 L 64 86 L 63 76 L 60 72 L 59 67 L 57 64 L 57 62 L 55 58 L 49 51 L 47 47 L 38 38 L 35 37 L 30 32 L 24 29 L 22 29 L 20 27 L 14 26 Z" fill="#7A4B00" fill-rule="evenodd"/>
<path d="M 0 3 L 0 11 L 799 11 L 799 3 Z" fill="#7A4B00" fill-rule="evenodd"/>
</svg>