<svg xmlns="http://www.w3.org/2000/svg" width="800" height="110" viewBox="0 0 800 110">
<path d="M 0 15 L 0 39 L 1 40 L 0 41 L 0 53 L 7 62 L 7 89 L 6 90 L 4 89 L 3 90 L 0 90 L 0 108 L 799 108 L 799 90 L 748 90 L 746 88 L 746 62 L 776 24 L 778 23 L 779 24 L 780 23 L 783 23 L 788 29 L 790 33 L 796 39 L 799 44 L 799 32 L 798 31 L 799 30 L 799 15 Z M 737 48 L 738 47 L 739 48 L 738 49 Z M 665 48 L 666 47 L 667 48 L 666 49 Z M 591 48 L 592 47 L 593 48 L 592 49 Z M 372 48 L 373 47 L 374 48 L 373 49 Z M 298 48 L 299 47 L 300 48 L 299 49 Z M 226 48 L 227 47 L 228 48 L 227 49 Z M 5 48 L 6 47 L 7 48 L 6 49 Z M 590 47 L 591 46 L 592 47 L 591 48 Z M 518 47 L 519 46 L 520 47 L 519 48 Z M 444 47 L 445 46 L 446 48 L 445 49 Z M 151 47 L 152 46 L 153 47 L 152 48 Z M 4 47 L 5 46 L 6 47 L 5 48 Z M 736 46 L 737 45 L 738 47 L 737 48 Z M 517 46 L 518 45 L 519 46 L 518 47 Z M 443 46 L 444 45 L 445 46 L 444 47 Z M 371 46 L 372 45 L 373 47 L 372 48 Z M 150 46 L 151 45 L 152 46 L 151 47 Z M 78 46 L 79 45 L 80 47 L 79 48 Z M 15 46 L 16 45 L 17 46 L 16 47 Z M 735 45 L 736 44 L 737 45 L 736 46 Z M 663 45 L 664 44 L 666 47 L 665 48 Z M 455 45 L 456 44 L 457 45 L 456 46 Z M 442 45 L 443 44 L 444 45 L 443 46 Z M 383 45 L 384 44 L 385 45 L 384 46 Z M 370 45 L 371 44 L 372 45 L 371 46 Z M 162 45 L 163 44 L 164 45 L 163 46 Z M 90 45 L 91 44 L 92 45 L 91 46 Z M 77 45 L 78 44 L 79 45 L 78 46 Z M 16 45 L 17 44 L 18 45 L 17 46 Z M 3 45 L 4 44 L 5 45 L 4 46 Z M 749 44 L 750 43 L 751 44 L 750 45 Z M 734 44 L 735 43 L 736 44 L 735 45 Z M 662 44 L 663 43 L 664 44 L 663 45 Z M 588 44 L 589 43 L 591 46 L 590 47 Z M 530 44 L 531 43 L 532 44 L 531 45 Z M 456 44 L 457 43 L 458 44 L 457 45 Z M 441 44 L 442 43 L 443 44 L 442 45 Z M 384 44 L 385 43 L 386 44 L 385 45 Z M 369 44 L 370 43 L 371 44 L 370 45 Z M 295 44 L 296 43 L 299 47 L 298 48 Z M 163 44 L 164 43 L 165 44 L 164 45 Z M 91 44 L 92 43 L 93 44 L 92 45 Z M 76 44 L 77 43 L 78 44 L 77 45 Z M 17 44 L 18 43 L 19 44 L 18 45 Z M 2 44 L 3 43 L 4 44 L 3 45 Z M 587 43 L 588 42 L 589 43 L 588 44 Z M 515 43 L 516 42 L 517 43 L 516 44 Z M 457 43 L 458 42 L 459 43 L 458 44 Z M 294 43 L 295 42 L 296 43 L 295 44 Z M 222 43 L 223 42 L 227 46 L 227 47 L 226 48 L 222 44 Z M 148 43 L 149 42 L 151 45 L 150 46 Z M 92 43 L 93 42 L 94 43 L 93 44 Z M 1 43 L 2 42 L 3 43 L 2 44 Z M 750 42 L 751 41 L 752 42 L 751 43 Z M 586 42 L 587 41 L 588 42 L 587 43 Z M 514 42 L 515 41 L 516 42 L 515 43 Z M 440 42 L 441 41 L 442 43 L 441 44 Z M 147 42 L 148 41 L 149 42 L 148 43 Z M 93 42 L 94 41 L 95 42 L 94 43 Z M 75 42 L 76 41 L 77 42 L 76 43 Z M 18 42 L 19 41 L 20 42 L 19 43 Z M 732 41 L 733 40 L 735 43 L 734 44 Z M 679 41 L 680 40 L 681 41 L 680 42 Z M 660 41 L 661 40 L 663 43 L 662 44 Z M 367 41 L 368 40 L 370 43 L 369 44 Z M 312 41 L 313 40 L 314 41 L 313 42 Z M 146 41 L 147 40 L 148 41 L 147 42 Z M 74 41 L 75 40 L 76 41 L 75 42 Z M 19 41 L 20 40 L 21 41 L 20 42 Z M 0 41 L 1 40 L 2 41 L 1 42 Z M 731 40 L 732 39 L 733 40 L 732 41 Z M 659 40 L 660 39 L 661 40 L 660 41 Z M 512 40 L 513 39 L 514 40 L 513 41 Z M 459 40 L 460 39 L 461 40 L 460 41 Z M 438 40 L 440 39 L 441 41 L 440 42 Z M 387 40 L 388 39 L 389 40 L 388 41 Z M 366 40 L 367 39 L 368 40 L 367 41 Z M 292 40 L 293 39 L 295 42 L 294 43 Z M 94 40 L 95 39 L 96 40 L 95 41 Z M 73 40 L 74 39 L 75 40 L 74 41 Z M 730 39 L 731 38 L 732 39 L 731 40 Z M 658 39 L 659 38 L 660 39 L 659 40 Z M 584 39 L 585 38 L 587 41 L 586 42 Z M 437 39 L 438 38 L 439 39 L 438 40 Z M 365 39 L 366 38 L 367 39 L 366 40 Z M 291 39 L 292 38 L 293 39 L 292 40 Z M 219 39 L 220 38 L 223 42 L 222 43 Z M 144 39 L 146 38 L 147 40 L 146 41 Z M 72 39 L 73 38 L 74 39 L 73 40 Z M 657 38 L 658 37 L 659 38 L 658 39 Z M 583 38 L 584 37 L 585 38 L 584 39 Z M 511 38 L 512 37 L 513 38 L 512 39 Z M 290 38 L 291 37 L 292 38 L 291 39 Z M 218 38 L 219 37 L 220 38 L 219 39 Z M 728 37 L 729 36 L 730 37 L 729 38 Z M 656 37 L 657 36 L 658 37 L 657 38 Z M 582 37 L 583 36 L 584 37 L 583 38 Z M 510 37 L 511 36 L 512 37 L 511 38 Z M 289 37 L 290 36 L 291 37 L 290 38 Z M 217 37 L 218 36 L 219 37 L 218 38 Z M 143 37 L 144 36 L 145 37 L 144 38 Z M 71 37 L 72 36 L 73 37 L 72 38 Z M 509 36 L 510 35 L 511 36 L 510 37 Z M 435 36 L 436 35 L 437 36 L 436 37 Z M 363 36 L 364 35 L 365 36 L 364 37 Z M 216 36 L 217 35 L 218 36 L 217 37 Z M 142 36 L 143 35 L 144 36 L 143 37 Z M 70 36 L 71 35 L 72 36 L 71 37 Z M 727 35 L 728 34 L 729 35 L 728 36 Z M 655 35 L 656 34 L 657 36 L 656 37 Z M 508 35 L 509 34 L 510 35 L 509 36 Z M 434 35 L 435 34 L 436 35 L 435 36 Z M 298 35 L 299 34 L 300 35 L 299 36 Z M 141 35 L 142 34 L 143 35 L 142 36 Z M 69 35 L 70 34 L 71 35 L 70 36 Z M 24 35 L 25 34 L 26 35 L 25 36 Z M 726 34 L 727 33 L 728 34 L 727 35 Z M 654 34 L 655 33 L 656 34 L 655 35 Z M 433 34 L 434 33 L 435 34 L 434 35 Z M 361 34 L 362 33 L 363 34 L 362 35 Z M 287 34 L 288 33 L 289 34 L 288 35 Z M 68 34 L 69 33 L 70 34 L 69 35 Z M 725 33 L 726 32 L 727 33 L 726 34 Z M 653 33 L 654 32 L 655 33 L 654 34 Z M 611 33 L 612 32 L 613 33 L 612 34 Z M 579 33 L 580 32 L 583 36 L 582 37 Z M 507 33 L 508 32 L 509 34 L 508 35 Z M 432 33 L 433 32 L 434 33 L 433 34 Z M 360 33 L 361 32 L 362 33 L 361 34 Z M 286 33 L 287 32 L 288 33 L 287 34 Z M 214 33 L 215 32 L 217 35 L 216 36 Z M 100 33 L 101 32 L 102 33 L 101 34 Z M 663 32 L 664 31 L 665 32 L 664 33 Z M 652 32 L 653 31 L 654 32 L 653 33 Z M 578 32 L 579 31 L 580 32 L 579 33 Z M 540 32 L 541 31 L 542 32 L 541 33 Z M 506 32 L 507 31 L 508 32 L 507 33 Z M 370 32 L 371 31 L 372 32 L 371 33 Z M 319 32 L 320 31 L 321 32 L 320 33 Z M 285 32 L 286 31 L 287 32 L 286 33 Z M 247 32 L 248 31 L 249 32 L 248 33 Z M 213 32 L 214 31 L 215 32 L 214 33 Z M 173 32 L 174 31 L 175 32 L 174 33 Z M 139 32 L 140 31 L 142 34 L 141 35 Z M 101 32 L 102 31 L 103 32 L 102 33 Z M 67 32 L 68 31 L 69 33 L 68 34 Z M 734 31 L 735 30 L 736 31 L 735 32 Z M 613 31 L 614 30 L 615 31 L 614 32 Z M 588 31 L 589 30 L 590 31 L 589 32 Z M 577 31 L 578 30 L 579 31 L 578 32 Z M 541 31 L 542 30 L 543 31 L 542 32 Z M 505 31 L 506 30 L 507 31 L 506 32 Z M 431 31 L 432 30 L 433 32 L 432 33 Z M 295 31 L 296 30 L 297 31 L 296 32 Z M 284 31 L 285 30 L 286 31 L 285 32 Z M 223 31 L 224 30 L 225 31 L 224 32 Z M 212 31 L 213 30 L 214 31 L 213 32 Z M 174 31 L 175 30 L 176 31 L 175 32 Z M 149 31 L 150 30 L 151 32 L 150 33 Z M 138 31 L 139 30 L 140 31 L 139 32 Z M 76 31 L 77 30 L 78 31 L 77 32 Z M 66 31 L 67 30 L 68 31 L 67 32 Z M 2 31 L 3 30 L 4 31 L 3 32 Z M 797 30 L 798 29 L 799 30 L 798 31 Z M 723 30 L 724 29 L 725 30 L 724 31 Z M 651 30 L 652 29 L 653 31 L 652 32 Z M 614 30 L 615 29 L 616 30 L 615 31 Z M 504 30 L 505 29 L 506 30 L 505 31 Z M 430 30 L 431 29 L 432 30 L 431 31 Z M 368 30 L 369 29 L 370 30 L 369 31 Z M 358 30 L 359 29 L 361 32 L 360 33 Z M 294 30 L 295 29 L 296 30 L 295 31 Z M 222 30 L 223 29 L 224 30 L 223 31 Z M 137 30 L 138 29 L 139 30 L 138 31 Z M 102 30 L 103 29 L 104 30 L 103 31 Z M 65 30 L 66 29 L 67 30 L 66 31 Z M 796 29 L 797 28 L 798 29 L 797 30 Z M 761 29 L 762 28 L 763 29 L 762 30 Z M 722 29 L 723 28 L 724 29 L 723 30 Z M 650 29 L 651 28 L 652 29 L 651 30 Z M 586 29 L 587 28 L 588 29 L 587 30 Z M 357 29 L 358 28 L 359 29 L 358 30 Z M 293 29 L 294 28 L 295 29 L 294 30 Z M 283 29 L 284 28 L 285 30 L 284 31 Z M 221 29 L 222 28 L 223 29 L 222 30 Z M 136 29 L 137 28 L 138 29 L 137 30 Z M 64 29 L 65 28 L 66 29 L 65 30 Z M 795 28 L 796 27 L 797 28 L 796 29 Z M 721 28 L 722 27 L 723 28 L 722 29 Z M 649 28 L 650 27 L 651 28 L 650 29 Z M 575 28 L 576 27 L 578 30 L 577 31 Z M 543 28 L 544 27 L 545 28 L 544 29 Z M 469 28 L 470 27 L 471 28 L 470 29 Z M 367 28 L 368 27 L 369 28 L 368 29 Z M 356 28 L 357 27 L 358 28 L 357 29 Z M 282 28 L 283 27 L 284 28 L 283 29 Z M 250 28 L 251 27 L 252 28 L 251 29 Z M 210 28 L 211 27 L 213 30 L 212 31 Z M 176 28 L 177 27 L 178 28 L 177 29 Z M 104 28 L 105 27 L 106 28 L 105 29 Z M 659 27 L 660 26 L 661 27 L 660 28 Z M 574 27 L 575 26 L 576 27 L 575 28 Z M 502 27 L 503 26 L 505 29 L 504 30 Z M 366 27 L 367 26 L 368 27 L 367 28 Z M 251 27 L 252 26 L 253 27 L 252 28 Z M 209 27 L 210 26 L 211 27 L 210 28 Z M 177 27 L 178 26 L 179 27 L 178 28 Z M 794 26 L 795 25 L 796 26 L 795 27 Z M 730 26 L 731 25 L 732 26 L 731 27 Z M 658 26 L 659 25 L 660 26 L 659 27 Z M 617 26 L 618 25 L 619 26 L 618 27 Z M 573 26 L 574 25 L 575 26 L 574 27 Z M 501 26 L 502 25 L 503 26 L 502 27 Z M 427 26 L 428 25 L 431 29 L 430 30 Z M 355 26 L 356 25 L 357 26 L 356 27 Z M 291 26 L 292 25 L 293 26 L 292 27 Z M 280 26 L 281 25 L 282 26 L 281 27 Z M 208 26 L 209 25 L 210 26 L 209 27 Z M 134 26 L 135 25 L 137 28 L 136 29 Z M 62 26 L 63 25 L 65 28 L 64 29 Z M 719 25 L 720 24 L 721 25 L 720 26 Z M 692 25 L 693 24 L 694 25 L 693 26 Z M 657 25 L 658 24 L 659 25 L 658 26 Z M 647 25 L 648 24 L 649 26 L 648 27 Z M 583 25 L 584 24 L 585 25 L 584 26 Z M 511 25 L 512 24 L 513 25 L 512 26 Z M 500 25 L 501 24 L 502 25 L 501 26 Z M 426 25 L 427 24 L 428 25 L 427 26 Z M 354 25 L 355 24 L 356 25 L 355 26 Z M 290 25 L 291 24 L 292 25 L 291 26 Z M 207 25 L 208 24 L 209 25 L 208 26 Z M 133 25 L 134 24 L 135 25 L 134 26 Z M 61 25 L 62 24 L 63 25 L 62 26 Z M 792 24 L 793 23 L 794 24 L 793 25 Z M 729 24 L 730 23 L 731 24 L 730 25 Z M 718 24 L 719 23 L 720 24 L 719 25 Z M 706 23 L 708 23 L 711 26 L 711 27 L 716 32 L 717 35 L 724 42 L 727 47 L 739 61 L 739 89 L 738 90 L 737 89 L 675 89 L 674 88 L 674 62 L 681 52 L 683 51 L 685 47 L 687 46 L 690 41 L 694 37 L 697 32 Z M 656 24 L 657 23 L 658 24 L 657 25 Z M 646 24 L 647 23 L 648 24 L 647 25 Z M 630 24 L 632 23 L 636 23 L 666 60 L 667 62 L 667 89 L 666 90 L 664 89 L 663 90 L 601 90 L 600 89 L 600 61 L 604 57 L 605 54 L 610 49 L 615 42 L 618 39 L 619 40 L 618 38 Z M 582 24 L 583 23 L 584 24 L 583 25 Z M 572 24 L 573 23 L 574 25 L 573 26 Z M 558 24 L 560 24 L 561 23 L 564 25 L 567 30 L 572 35 L 572 36 L 577 41 L 577 42 L 592 60 L 593 62 L 593 88 L 591 90 L 529 89 L 528 88 L 528 61 L 532 55 L 538 49 L 541 44 Z M 510 24 L 511 23 L 512 24 L 511 25 Z M 482 25 L 486 23 L 487 24 L 489 23 L 495 29 L 498 34 L 504 40 L 506 44 L 511 49 L 511 50 L 516 55 L 521 62 L 520 63 L 521 64 L 521 87 L 519 90 L 455 90 L 453 88 L 453 62 L 461 51 L 467 45 L 470 40 L 476 34 Z M 436 24 L 437 23 L 438 24 L 437 25 Z M 425 24 L 426 23 L 427 24 L 426 25 Z M 411 24 L 413 25 L 413 24 L 415 23 L 419 27 L 419 28 L 435 47 L 438 52 L 446 61 L 445 63 L 446 64 L 446 89 L 445 90 L 414 90 L 413 89 L 382 89 L 381 88 L 381 62 Z M 353 24 L 354 23 L 355 24 L 354 25 Z M 337 24 L 339 23 L 343 23 L 374 61 L 374 89 L 373 90 L 308 90 L 307 89 L 307 62 L 310 59 L 310 57 L 319 47 L 322 42 L 328 36 Z M 289 24 L 290 23 L 291 24 L 290 25 Z M 279 24 L 280 23 L 281 25 L 280 26 Z M 264 25 L 269 23 L 276 31 L 278 35 L 284 41 L 286 45 L 289 47 L 294 55 L 295 55 L 300 61 L 300 89 L 299 90 L 236 89 L 235 88 L 235 61 L 238 58 L 240 54 L 245 49 L 245 48 L 247 47 L 250 43 L 251 40 L 254 38 L 254 37 Z M 217 24 L 218 23 L 219 24 L 218 25 Z M 191 24 L 193 23 L 197 23 L 200 28 L 202 29 L 202 30 L 224 56 L 228 62 L 228 89 L 227 90 L 194 90 L 193 89 L 192 90 L 162 90 L 160 88 L 161 87 L 161 60 L 170 50 L 174 44 L 175 45 L 174 44 L 182 35 L 183 35 L 183 33 Z M 132 24 L 133 23 L 134 24 L 133 25 Z M 120 23 L 123 23 L 126 28 L 136 39 L 139 44 L 144 49 L 144 50 L 149 55 L 150 58 L 154 62 L 154 88 L 152 90 L 89 89 L 88 88 L 88 62 L 105 41 L 105 40 L 115 29 L 115 28 L 118 25 L 119 26 L 118 25 Z M 71 24 L 72 23 L 73 24 L 72 25 Z M 60 24 L 61 23 L 62 24 L 61 25 Z M 44 24 L 51 23 L 54 28 L 69 46 L 68 47 L 69 46 L 71 48 L 71 49 L 76 54 L 81 61 L 81 89 L 80 90 L 16 90 L 14 88 L 14 62 L 17 57 L 22 52 L 23 52 L 22 51 L 26 47 L 29 42 L 35 36 Z" fill="#7A4B00" fill-rule="evenodd"/>
<path d="M 0 3 L 0 12 L 799 12 L 799 3 Z" fill="#7A4B00" fill-rule="evenodd"/>
</svg>