<svg xmlns="http://www.w3.org/2000/svg" width="643" height="161" viewBox="0 0 643 161">
<path d="M 0 144 L 0 150 L 31 150 L 32 151 L 35 150 L 37 151 L 40 150 L 43 151 L 44 150 L 48 151 L 49 150 L 66 150 L 67 151 L 68 150 L 78 150 L 79 151 L 83 150 L 85 151 L 86 150 L 88 151 L 89 150 L 90 151 L 95 151 L 96 150 L 99 151 L 108 151 L 109 150 L 110 151 L 112 150 L 113 151 L 114 150 L 117 151 L 118 150 L 127 150 L 128 151 L 129 150 L 131 151 L 132 150 L 134 151 L 135 150 L 139 151 L 141 150 L 144 151 L 147 150 L 148 151 L 150 150 L 151 151 L 161 151 L 162 150 L 164 151 L 235 151 L 236 150 L 238 151 L 253 151 L 254 150 L 256 151 L 286 151 L 287 150 L 288 151 L 307 151 L 308 149 L 310 151 L 319 151 L 320 150 L 321 151 L 323 150 L 325 151 L 328 150 L 330 151 L 334 150 L 337 151 L 341 150 L 342 151 L 355 151 L 356 150 L 361 150 L 368 152 L 369 151 L 393 151 L 394 152 L 396 151 L 398 152 L 399 151 L 402 152 L 404 151 L 422 151 L 423 152 L 429 152 L 430 151 L 456 151 L 459 149 L 463 151 L 470 151 L 471 150 L 472 151 L 476 150 L 484 151 L 486 149 L 489 151 L 491 148 L 493 149 L 492 148 L 493 145 L 496 149 L 495 151 L 497 149 L 498 151 L 504 151 L 505 152 L 506 151 L 508 152 L 509 151 L 511 152 L 515 151 L 528 151 L 529 152 L 532 151 L 537 152 L 540 151 L 562 151 L 563 152 L 564 151 L 565 152 L 567 151 L 568 152 L 570 151 L 571 152 L 578 152 L 579 151 L 587 152 L 588 151 L 590 152 L 592 151 L 595 152 L 596 151 L 597 152 L 598 151 L 601 153 L 600 154 L 564 154 L 563 155 L 562 154 L 497 154 L 496 157 L 494 156 L 494 154 L 491 155 L 490 154 L 488 155 L 477 154 L 476 156 L 471 154 L 469 155 L 468 154 L 466 155 L 464 154 L 457 154 L 456 155 L 455 154 L 415 154 L 414 155 L 412 154 L 402 154 L 401 155 L 398 154 L 379 154 L 378 155 L 377 154 L 376 155 L 375 154 L 374 155 L 373 154 L 362 154 L 361 155 L 360 154 L 337 154 L 336 153 L 333 155 L 332 154 L 331 156 L 329 154 L 328 155 L 327 154 L 323 155 L 322 154 L 303 154 L 302 155 L 301 154 L 264 154 L 263 155 L 262 154 L 214 154 L 213 155 L 212 154 L 210 155 L 208 154 L 137 154 L 136 155 L 129 153 L 128 154 L 125 153 L 124 154 L 122 153 L 121 154 L 106 154 L 104 153 L 103 154 L 90 154 L 88 155 L 85 153 L 83 154 L 77 154 L 76 153 L 75 154 L 69 154 L 68 153 L 67 154 L 48 154 L 47 153 L 46 154 L 40 154 L 39 153 L 36 154 L 34 153 L 8 154 L 7 153 L 2 153 L 0 154 L 0 159 L 4 160 L 5 159 L 73 159 L 74 158 L 79 160 L 80 159 L 85 160 L 87 159 L 103 159 L 104 160 L 106 159 L 125 159 L 126 160 L 127 159 L 137 160 L 138 159 L 139 160 L 142 159 L 143 160 L 145 159 L 155 159 L 156 160 L 161 160 L 162 159 L 165 160 L 173 160 L 174 159 L 176 160 L 179 159 L 181 160 L 192 160 L 193 159 L 194 160 L 199 160 L 200 159 L 201 160 L 205 159 L 206 160 L 208 159 L 209 160 L 217 160 L 218 159 L 222 160 L 224 159 L 228 160 L 236 160 L 237 159 L 238 160 L 243 160 L 244 159 L 245 160 L 312 160 L 313 159 L 314 160 L 316 159 L 317 160 L 318 159 L 319 160 L 320 159 L 322 160 L 327 160 L 328 159 L 329 160 L 334 160 L 335 159 L 336 160 L 344 160 L 345 159 L 346 160 L 348 159 L 350 160 L 356 160 L 357 159 L 358 160 L 361 159 L 368 159 L 369 160 L 379 160 L 380 159 L 385 159 L 386 160 L 418 160 L 419 159 L 420 160 L 439 160 L 440 159 L 441 160 L 446 159 L 447 160 L 451 159 L 452 160 L 476 160 L 478 159 L 479 160 L 492 160 L 497 159 L 498 157 L 499 160 L 527 160 L 528 159 L 529 160 L 642 160 L 642 145 L 631 145 L 629 147 L 627 147 L 625 145 L 623 146 L 621 145 L 609 145 L 608 146 L 606 145 L 604 146 L 602 145 L 587 145 L 586 146 L 584 145 L 573 145 L 572 146 L 571 145 L 557 145 L 556 146 L 555 145 L 546 145 L 545 146 L 544 145 L 524 145 L 523 146 L 521 145 L 515 145 L 514 146 L 513 145 L 500 145 L 499 146 L 498 145 L 496 146 L 492 145 L 490 147 L 485 145 L 484 146 L 482 145 L 478 147 L 474 145 L 473 148 L 474 149 L 472 151 L 470 147 L 471 145 L 470 146 L 466 145 L 465 146 L 461 145 L 459 146 L 458 145 L 456 146 L 455 145 L 448 145 L 447 146 L 446 145 L 436 145 L 435 146 L 434 145 L 428 145 L 427 146 L 425 145 L 341 145 L 340 146 L 335 145 L 334 146 L 333 145 L 304 145 L 303 144 L 301 145 L 284 145 L 283 144 L 280 145 L 275 144 L 274 145 L 262 145 L 261 144 L 259 145 L 258 144 L 257 145 L 252 145 L 251 144 L 246 145 L 238 145 L 237 144 L 227 145 L 226 144 L 225 145 L 223 144 L 222 145 L 215 145 L 214 144 L 211 145 L 207 144 L 206 145 L 195 145 L 194 144 L 193 145 L 186 145 L 185 144 L 183 145 L 172 145 L 171 144 L 170 145 L 168 144 L 167 145 L 164 144 L 162 145 L 151 145 L 150 144 L 146 145 L 140 145 L 139 144 L 134 144 L 133 145 L 129 144 L 127 145 L 122 145 L 121 144 L 120 145 L 118 144 L 112 144 L 111 145 L 110 144 L 107 145 L 104 144 L 102 145 L 100 144 L 98 145 L 75 145 L 74 144 L 73 145 L 71 144 L 68 145 L 66 144 L 64 145 L 62 144 L 56 144 L 55 145 L 53 144 L 51 145 L 48 144 L 34 144 L 33 145 L 32 144 L 30 145 L 29 144 L 20 144 L 19 145 L 14 145 L 13 144 Z M 332 158 L 333 157 L 334 158 L 333 159 Z M 493 157 L 494 156 L 495 157 L 494 158 Z M 637 153 L 638 152 L 639 153 L 638 154 Z M 630 153 L 631 152 L 632 153 L 631 154 Z M 617 153 L 618 152 L 629 152 L 630 153 L 629 154 L 618 154 Z M 601 153 L 602 152 L 603 153 L 602 154 Z M 612 153 L 614 151 L 617 153 L 616 154 Z M 341 149 L 342 148 L 343 149 L 342 150 Z M 475 148 L 476 147 L 478 148 L 477 149 Z M 488 147 L 489 146 L 490 147 L 489 148 Z" fill="#000000" fill-rule="evenodd"/>
<path d="M 21 92 L 18 93 L 14 97 L 14 100 L 19 104 L 21 104 L 24 101 L 25 102 L 24 100 L 26 98 Z" fill="#000000" fill-rule="evenodd"/>
<path d="M 39 90 L 32 97 L 38 103 L 46 97 Z" fill="#000000" fill-rule="evenodd"/>
<path d="M 321 89 L 318 93 L 315 94 L 315 96 L 318 97 L 321 100 L 322 99 L 323 100 L 329 95 L 323 89 Z" fill="#000000" fill-rule="evenodd"/>
<path d="M 304 89 L 296 96 L 304 103 L 310 97 Z M 305 99 L 306 98 L 307 99 L 306 100 Z" fill="#000000" fill-rule="evenodd"/>
<path d="M 601 88 L 596 94 L 601 99 L 604 99 L 608 93 L 603 88 Z" fill="#000000" fill-rule="evenodd"/>
<path d="M 583 88 L 577 95 L 584 100 L 589 94 Z" fill="#000000" fill-rule="evenodd"/>
<path d="M 442 87 L 440 87 L 434 93 L 434 95 L 440 101 L 448 94 Z" fill="#000000" fill-rule="evenodd"/>
<path d="M 180 87 L 177 88 L 173 92 L 178 98 L 180 98 L 185 94 L 184 91 Z" fill="#000000" fill-rule="evenodd"/>
<path d="M 462 86 L 459 87 L 458 90 L 455 92 L 460 98 L 464 97 L 468 93 L 468 91 Z" fill="#000000" fill-rule="evenodd"/>
<path d="M 159 86 L 153 94 L 160 100 L 163 99 L 168 93 Z" fill="#000000" fill-rule="evenodd"/>
<path d="M 28 81 L 25 83 L 22 88 L 27 93 L 30 93 L 36 88 L 36 86 Z" fill="#000000" fill-rule="evenodd"/>
<path d="M 594 79 L 589 80 L 586 83 L 586 86 L 591 90 L 593 90 L 598 84 Z" fill="#000000" fill-rule="evenodd"/>
<path d="M 312 79 L 308 82 L 306 86 L 313 92 L 319 87 L 319 85 Z M 311 87 L 312 86 L 313 87 L 312 88 Z M 313 85 L 314 84 L 315 85 L 314 86 Z" fill="#000000" fill-rule="evenodd"/>
<path d="M 453 76 L 450 77 L 445 82 L 445 84 L 447 84 L 451 88 L 453 88 L 455 85 L 459 83 Z" fill="#000000" fill-rule="evenodd"/>
<path d="M 169 76 L 163 83 L 170 89 L 175 84 L 175 81 Z" fill="#000000" fill-rule="evenodd"/>
<path d="M 376 57 L 382 59 L 385 58 L 388 55 L 385 53 L 384 54 L 383 52 L 378 52 L 381 53 L 377 54 Z" fill="#000000" fill-rule="evenodd"/>
<path d="M 530 55 L 529 54 L 526 55 L 523 51 L 515 55 L 515 56 L 521 60 Z" fill="#000000" fill-rule="evenodd"/>
<path d="M 88 55 L 90 57 L 96 59 L 99 57 L 100 54 L 98 52 L 94 51 L 91 54 Z" fill="#000000" fill-rule="evenodd"/>
<path d="M 247 55 L 242 53 L 240 50 L 233 55 L 233 57 L 240 59 L 245 55 Z" fill="#000000" fill-rule="evenodd"/>
<path d="M 594 47 L 591 47 L 588 50 L 588 52 L 578 64 L 577 67 L 564 85 L 560 93 L 551 105 L 548 113 L 549 120 L 552 125 L 558 129 L 563 130 L 576 126 L 588 115 L 590 111 L 599 120 L 605 124 L 616 128 L 630 125 L 636 117 L 637 114 L 636 112 L 637 111 L 633 100 L 625 87 L 621 83 L 621 81 L 619 80 L 614 72 L 609 67 L 606 61 Z M 592 53 L 596 56 L 605 70 L 612 77 L 613 80 L 615 81 L 624 94 L 626 100 L 631 108 L 631 113 L 630 114 L 631 116 L 629 119 L 620 122 L 616 122 L 606 119 L 595 110 L 594 108 L 599 102 L 592 97 L 587 103 L 589 106 L 586 111 L 575 121 L 565 125 L 559 124 L 553 118 L 555 109 L 566 93 L 568 88 L 573 82 L 574 78 Z" fill="#000000" fill-rule="evenodd"/>
<path d="M 311 47 L 306 48 L 307 49 L 304 51 L 305 52 L 304 55 L 301 56 L 299 61 L 296 63 L 295 66 L 284 80 L 281 86 L 276 91 L 276 93 L 273 96 L 272 100 L 268 105 L 265 117 L 270 127 L 274 129 L 279 130 L 283 129 L 288 130 L 291 128 L 293 129 L 304 123 L 311 115 L 320 122 L 324 124 L 327 124 L 328 126 L 334 128 L 335 127 L 344 128 L 351 124 L 355 119 L 357 111 L 355 109 L 355 105 L 352 101 L 351 97 L 344 86 L 342 85 L 342 83 L 334 73 L 326 65 L 322 63 L 323 62 L 322 59 L 314 53 L 315 52 Z M 312 107 L 313 106 L 314 107 L 313 108 Z M 351 103 L 352 102 L 353 103 L 352 104 Z M 321 64 L 322 63 L 323 64 L 322 65 Z M 307 54 L 311 53 L 315 57 L 318 58 L 316 60 L 336 83 L 337 86 L 348 101 L 349 106 L 351 107 L 351 118 L 348 121 L 346 121 L 344 123 L 336 123 L 329 120 L 325 120 L 316 113 L 316 109 L 319 104 L 318 103 L 315 104 L 314 100 L 308 105 L 310 110 L 307 114 L 300 120 L 293 124 L 284 125 L 279 122 L 274 121 L 270 118 L 271 110 L 275 104 L 276 100 L 299 67 L 299 65 L 304 60 Z M 310 49 L 311 48 L 312 49 L 311 50 Z" fill="#000000" fill-rule="evenodd"/>
<path d="M 169 46 L 166 47 L 163 53 L 152 67 L 152 69 L 145 75 L 126 106 L 125 117 L 124 118 L 126 123 L 132 128 L 147 129 L 150 127 L 153 127 L 162 122 L 170 114 L 173 115 L 179 121 L 184 124 L 196 127 L 202 127 L 210 123 L 214 119 L 215 106 L 207 89 L 174 54 L 174 52 L 172 51 Z M 210 106 L 209 107 L 210 109 L 209 116 L 206 120 L 194 121 L 193 122 L 191 120 L 180 116 L 172 109 L 176 103 L 176 101 L 173 98 L 169 97 L 165 102 L 165 104 L 168 107 L 168 110 L 163 115 L 154 121 L 147 124 L 145 123 L 137 124 L 131 122 L 129 118 L 130 114 L 129 113 L 132 104 L 141 91 L 143 85 L 145 84 L 145 82 L 167 54 L 187 74 L 191 79 L 189 80 L 190 81 L 191 80 L 203 91 Z" fill="#000000" fill-rule="evenodd"/>
<path d="M 453 45 L 451 45 L 444 53 L 433 69 L 428 79 L 420 88 L 408 110 L 407 114 L 408 122 L 417 129 L 434 128 L 443 122 L 450 113 L 466 125 L 474 128 L 484 126 L 485 127 L 487 125 L 491 124 L 495 119 L 496 111 L 491 98 L 479 83 L 478 80 L 476 81 L 475 80 L 476 78 L 473 73 L 469 70 L 457 54 Z M 489 109 L 490 108 L 491 109 L 490 110 Z M 484 95 L 485 94 L 486 95 L 485 96 Z M 471 78 L 472 77 L 473 78 L 472 79 Z M 450 53 L 468 76 L 471 78 L 474 85 L 484 97 L 488 106 L 490 107 L 489 111 L 492 116 L 489 117 L 490 118 L 486 121 L 471 122 L 465 119 L 454 110 L 454 107 L 458 103 L 458 101 L 452 96 L 445 103 L 449 108 L 448 111 L 437 121 L 428 124 L 415 124 L 411 120 L 413 110 L 424 91 L 433 79 L 433 77 L 437 73 Z" fill="#000000" fill-rule="evenodd"/>
<path d="M 359 47 L 359 48 L 367 52 L 372 51 L 373 49 L 376 49 L 369 45 L 364 45 Z" fill="#000000" fill-rule="evenodd"/>
<path d="M 27 45 L 16 59 L 8 74 L 0 85 L 0 95 L 4 89 L 4 87 L 11 78 L 18 64 L 27 52 L 31 55 L 33 60 L 60 92 L 67 105 L 68 116 L 64 121 L 58 123 L 48 123 L 40 119 L 37 119 L 32 114 L 33 110 L 36 107 L 29 101 L 24 106 L 24 108 L 27 112 L 19 123 L 8 126 L 0 125 L 0 130 L 3 131 L 4 130 L 14 130 L 21 126 L 28 117 L 36 123 L 50 129 L 63 127 L 70 122 L 73 116 L 73 107 L 71 102 L 60 84 L 52 76 L 44 64 L 39 60 L 32 49 L 29 47 L 29 45 Z" fill="#000000" fill-rule="evenodd"/>
<path d="M 387 51 L 391 53 L 394 53 L 395 51 L 399 51 L 400 49 L 403 48 L 400 47 L 397 44 L 393 44 L 387 48 Z" fill="#000000" fill-rule="evenodd"/>
<path d="M 526 49 L 535 53 L 538 50 L 543 48 L 534 43 L 527 47 Z" fill="#000000" fill-rule="evenodd"/>
<path d="M 501 47 L 502 49 L 507 50 L 510 53 L 515 49 L 517 49 L 511 44 L 509 45 L 508 43 L 503 47 Z" fill="#000000" fill-rule="evenodd"/>
<path d="M 243 48 L 251 52 L 252 50 L 254 50 L 258 47 L 248 43 Z" fill="#000000" fill-rule="evenodd"/>
<path d="M 219 47 L 219 49 L 226 53 L 232 51 L 233 49 L 236 49 L 235 47 L 231 46 L 228 43 L 221 45 Z" fill="#000000" fill-rule="evenodd"/>
<path d="M 101 47 L 101 49 L 106 52 L 117 48 L 108 43 Z" fill="#000000" fill-rule="evenodd"/>
<path d="M 73 47 L 75 47 L 83 52 L 85 52 L 91 48 L 88 47 L 84 43 L 76 45 Z" fill="#000000" fill-rule="evenodd"/>
<path d="M 628 46 L 632 50 L 634 50 L 642 55 L 642 50 L 638 46 L 642 42 L 642 38 Z" fill="#000000" fill-rule="evenodd"/>
<path d="M 513 40 L 514 42 L 519 45 L 523 45 L 530 41 L 530 40 L 527 40 L 522 36 L 520 36 Z" fill="#000000" fill-rule="evenodd"/>
<path d="M 389 42 L 389 40 L 383 38 L 382 36 L 376 38 L 373 42 L 372 40 L 373 42 L 375 42 L 377 45 L 380 46 Z M 381 39 L 382 38 L 383 39 L 382 40 Z M 377 38 L 378 37 L 380 38 L 379 39 Z" fill="#000000" fill-rule="evenodd"/>
<path d="M 230 40 L 231 42 L 239 45 L 246 41 L 246 40 L 244 40 L 239 36 L 236 36 Z" fill="#000000" fill-rule="evenodd"/>
<path d="M 104 41 L 96 35 L 88 38 L 87 42 L 91 43 L 95 46 L 101 42 L 104 42 Z" fill="#000000" fill-rule="evenodd"/>
<path d="M 26 29 L 11 48 L 0 66 L 0 74 L 24 37 L 27 35 L 32 40 L 37 48 L 45 56 L 46 59 L 53 67 L 55 72 L 71 91 L 79 106 L 78 107 L 79 108 L 79 120 L 76 126 L 72 130 L 65 133 L 60 133 L 59 134 L 45 133 L 40 130 L 33 128 L 30 125 L 28 125 L 18 133 L 11 134 L 8 136 L 0 136 L 0 141 L 1 140 L 16 139 L 28 131 L 31 131 L 46 138 L 53 138 L 54 139 L 59 139 L 71 136 L 82 126 L 84 121 L 84 104 L 82 101 L 82 97 L 79 92 L 66 78 L 66 76 L 60 70 L 57 64 L 44 48 L 42 47 L 41 44 L 36 40 L 34 35 L 30 31 L 30 29 Z" fill="#000000" fill-rule="evenodd"/>
<path d="M 594 28 L 589 31 L 587 35 L 582 40 L 575 51 L 575 53 L 572 55 L 547 88 L 540 102 L 540 105 L 538 106 L 535 116 L 535 125 L 538 130 L 541 132 L 541 134 L 543 136 L 545 136 L 548 140 L 568 142 L 583 137 L 592 128 L 599 134 L 605 136 L 607 138 L 610 137 L 618 140 L 633 138 L 639 135 L 642 132 L 642 122 L 641 126 L 634 132 L 629 134 L 612 134 L 598 128 L 593 121 L 584 131 L 574 136 L 570 136 L 565 138 L 564 137 L 557 137 L 548 133 L 541 126 L 540 116 L 547 98 L 577 57 L 586 42 L 592 36 L 596 40 L 606 55 L 614 62 L 628 84 L 636 93 L 642 105 L 642 108 L 642 94 L 634 81 L 627 74 L 620 62 L 612 55 L 604 43 L 602 42 L 599 35 L 596 33 Z" fill="#000000" fill-rule="evenodd"/>
<path d="M 453 28 L 448 31 L 437 48 L 426 61 L 418 74 L 416 75 L 416 77 L 408 87 L 406 93 L 403 96 L 397 108 L 396 120 L 398 126 L 402 132 L 413 139 L 420 139 L 421 140 L 425 139 L 426 140 L 430 137 L 432 139 L 441 135 L 450 127 L 453 128 L 459 134 L 466 137 L 484 139 L 485 138 L 490 138 L 497 135 L 507 125 L 508 122 L 507 108 L 502 96 L 500 95 L 500 93 L 496 89 L 496 87 L 484 72 L 480 65 L 476 62 L 470 54 L 469 50 Z M 492 89 L 493 88 L 494 89 L 493 90 Z M 489 83 L 490 82 L 491 84 L 490 85 Z M 484 76 L 485 75 L 486 76 L 485 77 Z M 451 36 L 454 38 L 463 52 L 465 53 L 465 55 L 471 61 L 471 63 L 480 73 L 487 84 L 489 85 L 490 89 L 496 96 L 501 107 L 501 110 L 503 114 L 502 125 L 496 130 L 489 132 L 485 135 L 484 134 L 467 133 L 466 131 L 464 132 L 457 127 L 451 120 L 444 127 L 435 133 L 417 135 L 405 128 L 401 122 L 401 114 L 403 106 L 409 97 L 409 95 L 412 92 L 415 84 Z" fill="#000000" fill-rule="evenodd"/>
<path d="M 311 28 L 307 29 L 306 33 L 303 35 L 300 42 L 297 44 L 287 59 L 281 65 L 280 69 L 278 70 L 276 75 L 265 89 L 258 101 L 254 113 L 254 124 L 255 127 L 263 136 L 268 137 L 271 139 L 289 140 L 294 139 L 297 136 L 300 137 L 309 128 L 312 128 L 319 134 L 322 134 L 326 137 L 327 136 L 332 138 L 333 136 L 336 139 L 347 139 L 357 135 L 361 131 L 364 132 L 365 130 L 365 125 L 364 124 L 367 122 L 368 114 L 367 113 L 367 107 L 365 105 L 363 96 L 360 93 L 349 75 L 337 62 L 334 56 L 332 55 L 332 53 L 323 45 L 322 42 L 315 35 L 314 30 L 312 30 Z M 362 110 L 363 109 L 364 110 L 363 111 Z M 316 41 L 317 40 L 319 41 L 318 42 Z M 301 39 L 302 38 L 303 39 L 302 40 Z M 309 35 L 314 39 L 313 40 L 326 54 L 327 57 L 329 58 L 329 60 L 333 63 L 333 65 L 342 74 L 359 100 L 361 105 L 361 109 L 364 115 L 363 116 L 363 122 L 361 126 L 353 133 L 343 135 L 340 134 L 339 135 L 337 134 L 334 135 L 330 134 L 328 131 L 326 132 L 320 130 L 313 123 L 308 123 L 303 129 L 293 134 L 288 135 L 287 134 L 286 135 L 284 134 L 282 135 L 280 134 L 271 134 L 268 133 L 259 123 L 259 117 L 258 116 L 259 111 L 262 106 L 262 103 L 270 90 L 274 86 L 277 79 L 281 75 L 295 55 L 296 52 L 304 42 L 303 40 L 307 38 Z" fill="#000000" fill-rule="evenodd"/>
<path d="M 169 28 L 163 33 L 157 43 L 152 48 L 151 52 L 149 53 L 151 56 L 155 52 L 164 38 L 169 36 L 179 49 L 193 63 L 203 75 L 204 78 L 212 86 L 222 107 L 221 108 L 222 109 L 221 121 L 216 129 L 209 133 L 204 133 L 203 134 L 202 133 L 198 134 L 189 132 L 180 128 L 172 122 L 168 123 L 165 127 L 162 128 L 160 127 L 153 132 L 140 135 L 129 133 L 123 130 L 117 122 L 116 117 L 117 110 L 129 86 L 134 81 L 136 76 L 139 74 L 142 67 L 146 63 L 146 59 L 148 57 L 145 58 L 143 62 L 138 67 L 135 73 L 133 74 L 132 79 L 128 81 L 127 84 L 124 87 L 124 89 L 122 90 L 120 96 L 113 108 L 112 121 L 114 126 L 119 133 L 128 139 L 129 138 L 131 139 L 132 138 L 134 139 L 144 139 L 148 137 L 152 137 L 155 135 L 161 134 L 166 131 L 169 127 L 184 135 L 192 137 L 195 139 L 210 138 L 217 134 L 225 124 L 227 117 L 227 108 L 226 103 L 224 101 L 220 90 L 210 76 L 207 74 L 207 72 L 203 69 L 198 61 L 179 41 Z" fill="#000000" fill-rule="evenodd"/>
<path d="M 559 47 L 552 42 L 544 39 L 543 37 L 539 36 L 521 26 L 506 34 L 503 37 L 488 43 L 482 49 L 517 67 L 524 68 L 541 57 L 554 51 Z M 490 48 L 494 45 L 506 40 L 520 31 L 524 32 L 527 35 L 535 38 L 551 47 L 546 52 L 545 51 L 543 52 L 541 55 L 539 54 L 523 64 L 520 64 L 506 56 L 499 54 Z" fill="#000000" fill-rule="evenodd"/>
<path d="M 343 47 L 346 51 L 354 54 L 365 61 L 372 63 L 380 68 L 385 68 L 388 65 L 406 55 L 407 53 L 409 53 L 416 49 L 417 46 L 409 41 L 408 43 L 404 38 L 379 26 L 357 40 L 350 42 Z M 371 61 L 372 60 L 374 61 L 373 62 Z M 350 47 L 352 45 L 371 36 L 373 33 L 374 34 L 377 31 L 385 32 L 403 42 L 405 41 L 406 43 L 408 43 L 411 46 L 409 50 L 405 51 L 404 53 L 402 52 L 401 55 L 398 55 L 396 58 L 391 59 L 383 65 L 378 62 L 379 63 L 377 64 L 375 62 L 376 61 L 371 60 L 370 59 L 371 58 L 365 57 L 355 50 L 352 50 Z M 374 30 L 375 29 L 376 30 L 375 31 Z M 375 29 L 376 28 L 377 29 L 376 30 Z" fill="#000000" fill-rule="evenodd"/>
<path d="M 201 46 L 201 48 L 205 52 L 207 52 L 209 54 L 219 58 L 224 62 L 238 68 L 244 66 L 245 64 L 248 64 L 254 59 L 258 58 L 266 52 L 275 48 L 275 46 L 267 41 L 264 41 L 261 38 L 254 35 L 247 30 L 241 28 L 238 25 Z M 208 48 L 211 44 L 222 39 L 236 30 L 253 38 L 267 47 L 264 50 L 238 65 L 234 61 L 232 62 L 231 60 L 228 60 Z" fill="#000000" fill-rule="evenodd"/>
<path d="M 56 46 L 56 48 L 60 51 L 66 53 L 73 58 L 75 58 L 93 68 L 94 67 L 99 68 L 105 62 L 109 62 L 114 58 L 122 55 L 133 48 L 133 46 L 126 42 L 124 42 L 116 36 L 95 25 L 91 26 L 86 30 L 69 39 L 67 39 L 66 41 L 62 42 Z M 63 46 L 71 41 L 85 35 L 92 30 L 97 30 L 105 36 L 123 45 L 124 48 L 121 51 L 119 51 L 117 53 L 115 53 L 106 58 L 103 61 L 101 61 L 100 63 L 94 64 L 82 57 L 79 57 L 77 55 L 75 55 L 64 48 Z" fill="#000000" fill-rule="evenodd"/>
<path d="M 0 11 L 0 18 L 84 18 L 85 19 L 88 18 L 174 18 L 175 19 L 176 18 L 235 18 L 236 19 L 262 19 L 263 18 L 277 18 L 278 19 L 280 18 L 285 19 L 294 19 L 295 18 L 296 19 L 300 18 L 302 19 L 304 18 L 331 19 L 332 18 L 334 19 L 335 18 L 336 19 L 338 18 L 339 19 L 341 18 L 342 19 L 371 19 L 372 20 L 374 19 L 377 20 L 380 19 L 382 20 L 385 19 L 399 19 L 400 20 L 401 19 L 414 19 L 415 18 L 419 20 L 420 19 L 425 19 L 426 20 L 427 19 L 432 20 L 433 19 L 439 19 L 440 20 L 442 19 L 445 20 L 447 19 L 450 20 L 452 19 L 458 19 L 459 20 L 462 19 L 464 20 L 467 19 L 468 20 L 490 20 L 491 19 L 500 20 L 501 19 L 504 20 L 512 20 L 513 19 L 517 20 L 524 20 L 525 19 L 526 20 L 535 20 L 536 19 L 537 20 L 540 19 L 542 20 L 630 20 L 631 19 L 633 20 L 642 20 L 642 14 L 639 13 L 627 14 L 626 15 L 625 14 L 615 14 L 614 13 L 612 14 L 562 13 L 559 15 L 557 13 L 532 13 L 531 14 L 530 13 L 509 13 L 508 14 L 507 13 L 503 14 L 501 13 L 494 13 L 493 14 L 492 13 L 491 14 L 490 13 L 486 14 L 485 13 L 475 13 L 474 14 L 473 13 L 427 13 L 426 14 L 425 13 L 423 14 L 422 13 L 419 14 L 418 13 L 414 14 L 412 13 L 409 14 L 408 13 L 407 14 L 405 13 L 381 13 L 380 14 L 375 13 L 371 14 L 370 13 L 365 13 L 364 14 L 362 13 L 348 13 L 347 14 L 345 13 L 343 14 L 342 13 L 340 14 L 339 13 L 327 13 L 326 14 L 325 13 L 299 13 L 298 14 L 292 12 L 291 13 L 278 13 L 277 14 L 276 13 L 256 13 L 255 12 L 254 13 L 247 13 L 246 12 L 244 13 L 241 12 L 240 13 L 232 13 L 231 12 L 230 13 L 228 12 L 227 13 L 222 12 L 221 13 L 208 13 L 207 12 L 206 13 L 195 13 L 194 12 L 193 13 L 192 12 L 190 13 L 185 12 L 184 13 L 182 12 L 181 13 L 179 12 L 171 14 L 164 12 L 162 13 L 159 12 L 157 13 L 154 12 L 152 13 L 151 12 L 150 13 L 149 12 L 144 12 L 143 13 L 141 12 L 140 13 L 137 12 L 134 13 L 133 12 L 128 13 L 127 12 L 117 12 L 116 13 L 115 12 L 106 12 L 105 13 L 104 12 L 97 12 L 95 13 L 94 12 L 54 12 L 53 11 L 51 12 L 50 11 L 49 12 L 44 12 L 43 11 L 42 12 L 38 11 L 37 12 L 34 11 L 33 12 L 25 12 L 24 11 L 19 13 L 14 11 L 12 12 L 10 11 Z M 344 18 L 345 17 L 346 18 L 345 19 Z" fill="#000000" fill-rule="evenodd"/>
<path d="M 0 2 L 0 8 L 12 8 L 13 7 L 16 8 L 19 7 L 20 8 L 22 7 L 30 8 L 31 6 L 32 8 L 52 8 L 53 9 L 57 8 L 73 8 L 74 9 L 75 8 L 78 9 L 79 8 L 82 9 L 86 8 L 120 8 L 122 9 L 123 8 L 153 8 L 154 7 L 155 8 L 157 7 L 158 8 L 163 7 L 164 8 L 169 8 L 170 7 L 172 8 L 176 7 L 177 8 L 179 7 L 182 8 L 184 7 L 185 8 L 204 8 L 205 7 L 214 9 L 216 8 L 245 8 L 246 7 L 248 9 L 249 8 L 254 8 L 255 9 L 264 9 L 265 8 L 270 9 L 271 8 L 274 9 L 275 8 L 277 9 L 278 8 L 280 9 L 282 8 L 283 9 L 284 8 L 290 8 L 291 9 L 292 8 L 296 9 L 298 8 L 301 9 L 311 8 L 312 9 L 313 8 L 314 9 L 322 7 L 325 9 L 335 6 L 336 9 L 338 7 L 341 8 L 343 7 L 345 9 L 348 7 L 352 9 L 357 9 L 358 8 L 366 8 L 367 9 L 369 8 L 370 9 L 371 8 L 380 8 L 381 9 L 382 8 L 383 9 L 384 8 L 385 9 L 386 8 L 387 9 L 392 8 L 393 9 L 400 9 L 401 8 L 403 9 L 411 9 L 412 8 L 417 9 L 419 8 L 420 9 L 422 8 L 423 9 L 481 9 L 482 10 L 483 9 L 485 10 L 486 9 L 489 10 L 490 9 L 494 10 L 495 9 L 527 9 L 528 10 L 529 9 L 531 10 L 532 9 L 533 10 L 535 9 L 543 9 L 544 10 L 545 9 L 549 10 L 555 10 L 556 9 L 560 10 L 577 10 L 578 9 L 579 10 L 582 9 L 587 10 L 600 10 L 601 9 L 602 10 L 632 10 L 633 9 L 634 10 L 642 10 L 642 3 L 524 3 L 523 2 L 522 3 L 504 3 L 503 2 L 502 3 L 470 3 L 469 2 L 465 3 L 463 2 L 462 3 L 455 3 L 454 2 L 451 3 L 449 2 L 444 2 L 443 3 L 433 3 L 432 2 L 428 3 L 423 2 L 422 3 L 367 2 L 365 3 L 364 2 L 359 4 L 355 2 L 353 4 L 351 2 L 350 3 L 347 2 L 342 3 L 341 2 L 339 3 L 336 2 L 334 3 L 333 2 L 330 4 L 327 2 L 324 3 L 322 2 L 319 3 L 318 2 L 312 2 L 311 3 L 310 2 L 295 2 L 294 3 L 293 2 L 292 3 L 291 2 L 286 3 L 284 2 L 276 2 L 275 3 L 266 2 L 265 3 L 263 2 L 224 2 L 223 3 L 222 2 L 203 2 L 202 3 L 200 2 L 196 3 L 194 2 L 191 3 L 190 2 L 177 2 L 176 3 L 171 2 L 169 3 L 168 2 L 147 2 L 146 1 L 145 2 L 143 1 L 139 2 L 136 1 L 133 2 L 116 2 L 115 1 L 114 2 L 104 2 L 103 1 L 102 2 L 97 1 L 95 2 L 93 1 L 91 2 L 88 1 L 87 2 L 86 1 L 85 2 L 83 1 L 82 2 L 71 2 L 70 1 L 68 2 L 67 1 L 66 2 L 63 1 L 62 2 L 58 1 L 57 2 L 56 1 L 54 2 L 48 2 L 47 1 L 43 2 L 40 1 L 39 2 L 38 1 L 36 2 L 30 2 L 29 1 L 28 2 L 24 1 L 22 2 L 17 2 L 16 1 L 15 2 L 4 1 L 3 2 L 2 1 Z M 336 6 L 337 5 L 338 6 L 337 7 Z" fill="#000000" fill-rule="evenodd"/>
</svg>