<svg xmlns="http://www.w3.org/2000/svg" width="485" height="107" viewBox="0 0 485 107">
<path d="M 148 103 L 148 104 L 153 104 L 154 105 L 158 104 L 159 105 L 244 105 L 245 106 L 246 105 L 349 105 L 350 104 L 351 105 L 355 104 L 357 105 L 366 105 L 367 104 L 368 105 L 475 105 L 476 106 L 481 106 L 479 105 L 481 102 L 370 102 L 369 103 L 368 102 L 353 102 L 352 103 L 351 102 L 347 103 L 346 102 L 312 102 L 311 103 L 307 102 L 299 102 L 298 103 L 297 102 L 252 102 L 251 103 L 250 102 L 247 103 L 246 102 L 239 102 L 238 103 L 237 102 L 232 102 L 231 103 L 227 102 L 200 102 L 199 103 L 195 102 L 181 102 L 180 103 L 179 102 L 171 102 L 168 103 L 166 102 L 163 103 L 162 102 L 161 103 Z" fill="#000000" fill-rule="evenodd"/>
<path d="M 5 102 L 5 106 L 6 105 L 64 105 L 65 106 L 66 105 L 138 105 L 139 104 L 143 105 L 144 103 L 142 104 L 139 102 L 135 103 L 132 102 L 127 103 L 118 102 L 117 103 L 114 102 L 111 103 L 108 102 L 103 102 L 102 103 L 99 102 L 91 102 L 90 103 L 88 102 L 87 103 L 85 102 L 81 103 L 80 102 L 79 103 L 77 102 L 52 102 L 51 103 L 46 102 L 44 103 L 41 102 L 39 103 L 35 102 L 33 103 L 31 102 Z" fill="#000000" fill-rule="evenodd"/>
<path d="M 4 82 L 4 89 L 5 89 L 5 82 Z" fill="#000000" fill-rule="evenodd"/>
<path d="M 479 76 L 475 75 L 471 78 L 474 79 L 476 77 L 478 78 Z" fill="#000000" fill-rule="evenodd"/>
<path d="M 202 74 L 200 75 L 195 89 L 206 89 L 207 88 L 204 82 Z" fill="#000000" fill-rule="evenodd"/>
<path d="M 361 73 L 355 88 L 360 87 L 365 88 L 366 87 Z" fill="#000000" fill-rule="evenodd"/>
<path d="M 40 73 L 34 86 L 38 85 L 39 86 L 45 86 L 44 81 L 42 79 Z" fill="#000000" fill-rule="evenodd"/>
<path d="M 6 73 L 4 73 L 4 75 L 8 78 L 10 82 L 10 87 L 9 90 L 4 95 L 4 97 L 7 96 L 12 91 L 14 86 L 12 79 Z" fill="#000000" fill-rule="evenodd"/>
<path d="M 469 71 L 459 79 L 458 88 L 459 90 L 464 93 L 474 94 L 478 91 L 468 92 L 463 88 L 462 81 L 467 75 L 474 72 L 478 73 L 478 71 Z" fill="#000000" fill-rule="evenodd"/>
<path d="M 16 75 L 28 72 L 35 72 L 36 70 L 16 68 Z" fill="#000000" fill-rule="evenodd"/>
<path d="M 386 67 L 367 69 L 365 71 L 385 74 L 386 73 Z" fill="#000000" fill-rule="evenodd"/>
<path d="M 336 75 L 343 73 L 351 73 L 355 71 L 337 67 L 336 68 Z" fill="#000000" fill-rule="evenodd"/>
<path d="M 227 68 L 224 67 L 204 71 L 226 74 Z" fill="#000000" fill-rule="evenodd"/>
<path d="M 176 68 L 177 75 L 183 73 L 197 72 L 198 71 L 178 67 Z" fill="#000000" fill-rule="evenodd"/>
<path d="M 64 66 L 59 68 L 45 70 L 45 71 L 63 73 L 64 72 Z" fill="#000000" fill-rule="evenodd"/>
<path d="M 478 58 L 474 59 L 457 71 L 452 77 L 450 81 L 450 87 L 455 95 L 466 99 L 469 98 L 472 99 L 478 97 L 477 96 L 472 97 L 460 96 L 455 91 L 453 87 L 453 82 L 458 74 L 465 69 L 466 67 L 472 64 Z" fill="#000000" fill-rule="evenodd"/>
<path d="M 37 55 L 35 58 L 37 60 L 39 67 L 41 68 L 42 63 L 46 56 Z" fill="#000000" fill-rule="evenodd"/>
<path d="M 357 54 L 356 55 L 357 59 L 359 62 L 360 67 L 362 68 L 368 55 Z" fill="#000000" fill-rule="evenodd"/>
<path d="M 195 53 L 198 59 L 200 68 L 202 69 L 203 68 L 203 63 L 207 54 L 206 53 L 204 54 Z" fill="#000000" fill-rule="evenodd"/>
<path d="M 122 45 L 121 45 L 119 52 L 116 57 L 118 59 L 119 58 L 127 58 L 127 55 L 125 53 L 125 50 Z" fill="#000000" fill-rule="evenodd"/>
<path d="M 441 44 L 439 45 L 434 58 L 446 58 L 446 56 L 443 52 Z" fill="#000000" fill-rule="evenodd"/>
<path d="M 280 43 L 275 57 L 286 57 L 281 43 Z" fill="#000000" fill-rule="evenodd"/>
<path d="M 288 87 L 290 93 L 299 99 L 316 100 L 322 98 L 330 92 L 332 87 L 332 82 L 328 76 L 320 72 L 309 72 L 303 75 L 296 83 L 296 87 L 300 92 L 305 93 L 308 95 L 309 94 L 316 94 L 319 93 L 324 88 L 324 82 L 320 78 L 311 77 L 305 80 L 307 82 L 308 80 L 311 79 L 317 79 L 321 83 L 321 87 L 319 91 L 315 93 L 306 93 L 303 91 L 299 86 L 300 82 L 303 78 L 311 74 L 319 74 L 324 76 L 329 82 L 329 88 L 324 95 L 315 98 L 299 97 L 293 93 L 291 89 L 291 86 L 295 77 L 299 72 L 306 68 L 362 43 L 377 52 L 412 67 L 426 75 L 430 80 L 430 88 L 425 94 L 421 96 L 411 98 L 410 97 L 403 97 L 397 94 L 393 89 L 394 80 L 398 76 L 405 74 L 411 74 L 419 77 L 421 80 L 420 87 L 413 91 L 404 90 L 401 85 L 405 80 L 416 81 L 415 79 L 410 77 L 406 77 L 400 80 L 398 83 L 398 87 L 406 93 L 415 93 L 420 91 L 425 85 L 424 84 L 425 81 L 421 75 L 412 71 L 403 71 L 396 74 L 390 81 L 389 86 L 390 90 L 398 97 L 406 99 L 408 98 L 409 99 L 418 99 L 426 96 L 433 89 L 434 85 L 431 76 L 420 68 L 385 53 L 383 51 L 371 46 L 364 41 L 360 41 L 333 54 L 321 58 L 313 63 L 308 64 L 303 68 L 301 68 L 291 78 Z" fill="#000000" fill-rule="evenodd"/>
<path d="M 128 83 L 128 90 L 130 93 L 137 98 L 143 100 L 144 99 L 155 100 L 168 96 L 172 91 L 174 84 L 173 80 L 165 73 L 153 71 L 140 78 L 138 82 L 138 88 L 142 93 L 147 95 L 152 95 L 160 93 L 163 91 L 166 87 L 166 81 L 161 77 L 152 77 L 147 80 L 146 83 L 149 84 L 152 80 L 156 79 L 161 80 L 163 82 L 163 86 L 159 91 L 148 93 L 145 92 L 142 88 L 142 82 L 147 76 L 153 74 L 160 74 L 164 75 L 169 79 L 171 85 L 167 93 L 154 99 L 153 98 L 148 98 L 147 99 L 137 96 L 131 89 L 131 83 L 134 78 L 140 73 L 147 69 L 149 69 L 160 62 L 191 49 L 200 43 L 214 48 L 242 63 L 247 64 L 253 69 L 263 74 L 270 82 L 270 88 L 263 96 L 258 98 L 244 98 L 237 95 L 231 88 L 232 81 L 236 76 L 244 74 L 253 75 L 258 77 L 261 82 L 261 86 L 256 92 L 254 93 L 244 93 L 240 89 L 241 82 L 244 80 L 249 80 L 250 81 L 254 81 L 254 80 L 249 77 L 245 77 L 240 79 L 236 84 L 236 88 L 243 95 L 255 95 L 259 93 L 264 87 L 264 82 L 263 79 L 255 73 L 240 72 L 232 76 L 228 81 L 228 88 L 235 97 L 242 100 L 257 100 L 267 96 L 273 89 L 273 81 L 262 70 L 253 66 L 242 59 L 240 59 L 230 53 L 228 53 L 204 41 L 199 41 L 179 52 L 148 65 L 138 71 L 131 78 Z" fill="#000000" fill-rule="evenodd"/>
<path d="M 4 58 L 4 59 L 6 59 L 9 57 L 12 57 L 13 55 L 14 56 L 19 54 L 31 47 L 42 44 L 54 51 L 61 53 L 65 56 L 74 59 L 76 61 L 100 72 L 105 76 L 109 82 L 107 92 L 101 97 L 91 99 L 82 98 L 75 95 L 72 91 L 70 84 L 75 77 L 82 74 L 93 75 L 98 79 L 99 86 L 93 92 L 85 92 L 81 89 L 79 85 L 85 80 L 90 80 L 92 82 L 94 82 L 90 78 L 79 80 L 77 82 L 76 85 L 78 90 L 84 94 L 93 94 L 102 88 L 103 83 L 102 80 L 97 75 L 89 72 L 78 73 L 70 79 L 67 85 L 68 90 L 73 96 L 82 100 L 96 100 L 101 99 L 108 95 L 111 92 L 112 89 L 112 82 L 108 75 L 103 71 L 41 41 L 37 42 L 31 46 L 28 46 L 22 50 L 19 50 L 15 54 L 8 55 Z" fill="#000000" fill-rule="evenodd"/>
<path d="M 460 43 L 459 40 L 460 39 L 458 37 L 441 41 Z" fill="#000000" fill-rule="evenodd"/>
<path d="M 417 38 L 418 44 L 435 41 L 435 40 L 424 39 L 419 37 Z" fill="#000000" fill-rule="evenodd"/>
<path d="M 302 37 L 286 39 L 284 41 L 302 43 Z" fill="#000000" fill-rule="evenodd"/>
<path d="M 258 37 L 258 44 L 259 45 L 262 43 L 276 41 L 276 40 L 271 40 L 267 38 Z" fill="#000000" fill-rule="evenodd"/>
<path d="M 146 44 L 145 37 L 144 38 L 126 40 L 126 41 Z" fill="#000000" fill-rule="evenodd"/>
<path d="M 101 38 L 101 44 L 120 41 L 120 40 L 108 39 L 102 37 Z" fill="#000000" fill-rule="evenodd"/>
<path d="M 305 33 L 309 37 L 316 40 L 321 41 L 330 40 L 335 38 L 342 32 L 343 24 L 342 24 L 341 27 L 340 26 L 340 30 L 333 37 L 320 39 L 313 37 L 308 32 L 307 24 L 305 26 Z" fill="#000000" fill-rule="evenodd"/>
<path d="M 445 23 L 443 24 L 442 23 L 440 24 L 435 23 L 434 24 L 439 37 L 441 36 L 444 26 L 446 24 Z" fill="#000000" fill-rule="evenodd"/>
<path d="M 117 23 L 119 28 L 119 32 L 122 38 L 125 27 L 127 24 L 126 23 Z" fill="#000000" fill-rule="evenodd"/>
<path d="M 274 22 L 273 23 L 275 25 L 279 34 L 279 37 L 280 37 L 283 27 L 286 23 Z" fill="#000000" fill-rule="evenodd"/>
<path d="M 13 23 L 7 21 L 12 25 L 12 30 L 8 33 L 4 33 L 4 35 L 7 34 L 9 35 L 15 31 L 15 25 Z" fill="#000000" fill-rule="evenodd"/>
<path d="M 313 28 L 317 33 L 326 35 L 333 33 L 336 30 L 336 25 L 333 22 L 328 21 L 332 23 L 333 30 L 329 33 L 323 33 L 320 31 L 319 32 L 316 25 L 317 24 L 316 22 L 319 20 L 318 19 L 316 21 L 316 24 L 315 25 L 314 24 L 316 26 Z M 334 28 L 335 27 L 336 28 L 335 29 Z" fill="#000000" fill-rule="evenodd"/>
<path d="M 332 17 L 334 19 L 342 22 L 338 19 Z" fill="#000000" fill-rule="evenodd"/>
<path d="M 471 16 L 467 18 L 462 25 L 463 28 L 468 33 L 472 35 L 477 35 L 478 33 L 471 33 L 466 27 L 466 23 L 471 18 L 477 18 L 478 17 L 477 16 Z" fill="#000000" fill-rule="evenodd"/>
<path d="M 381 26 L 382 32 L 385 36 L 393 40 L 398 41 L 399 40 L 400 41 L 406 40 L 412 36 L 401 39 L 394 39 L 388 36 L 385 32 L 384 27 L 388 20 L 395 18 L 401 18 L 406 21 L 407 25 L 406 30 L 403 32 L 394 32 L 393 31 L 392 26 L 396 22 L 399 22 L 399 21 L 391 23 L 388 28 L 394 34 L 399 35 L 407 33 L 411 27 L 410 24 L 404 18 L 394 16 L 388 18 L 386 21 L 384 21 Z" fill="#000000" fill-rule="evenodd"/>
<path d="M 313 16 L 311 16 L 307 20 L 311 19 Z" fill="#000000" fill-rule="evenodd"/>
<path d="M 7 16 L 4 17 L 4 18 L 14 19 L 20 27 L 20 30 L 18 32 L 19 33 L 12 39 L 4 41 L 11 41 L 17 38 L 22 33 L 23 25 L 17 19 Z" fill="#000000" fill-rule="evenodd"/>
<path d="M 408 14 L 411 16 L 414 22 L 414 28 L 413 29 L 413 34 L 414 34 L 417 29 L 417 23 L 415 21 L 415 19 Z" fill="#000000" fill-rule="evenodd"/>
<path d="M 25 16 L 13 12 L 11 13 L 10 12 L 3 12 L 3 13 L 7 14 L 11 13 L 21 16 L 26 21 L 28 25 L 26 34 L 20 40 L 4 48 L 5 49 L 12 47 L 27 38 L 31 30 L 31 25 L 30 22 Z" fill="#000000" fill-rule="evenodd"/>
<path d="M 331 12 L 329 11 L 328 12 L 323 12 Z" fill="#000000" fill-rule="evenodd"/>
<path d="M 193 25 L 189 18 L 183 13 L 179 12 L 174 13 L 172 11 L 171 13 L 168 11 L 164 11 L 154 14 L 150 17 L 145 27 L 146 32 L 153 38 L 160 41 L 162 40 L 163 41 L 173 40 L 181 35 L 185 30 L 184 24 L 179 19 L 174 17 L 163 17 L 157 21 L 156 23 L 156 29 L 160 33 L 172 34 L 177 30 L 178 28 L 176 24 L 171 21 L 170 22 L 174 25 L 174 28 L 171 32 L 167 33 L 163 32 L 159 27 L 160 22 L 164 19 L 170 19 L 171 18 L 173 18 L 181 23 L 182 28 L 181 31 L 175 37 L 172 37 L 168 39 L 155 38 L 150 33 L 149 30 L 150 29 L 149 28 L 150 24 L 149 23 L 155 16 L 160 13 L 162 14 L 172 12 L 173 13 L 178 13 L 183 16 L 189 22 L 190 27 L 189 32 L 184 38 L 176 42 L 175 44 L 164 50 L 150 55 L 124 69 L 104 62 L 102 60 L 100 60 L 81 50 L 79 50 L 77 48 L 71 46 L 57 35 L 54 26 L 57 19 L 63 15 L 78 13 L 87 15 L 91 17 L 96 22 L 95 32 L 88 38 L 84 39 L 71 38 L 64 31 L 64 24 L 68 20 L 74 18 L 83 19 L 88 24 L 88 28 L 85 32 L 76 33 L 73 30 L 72 26 L 74 23 L 79 21 L 71 23 L 69 25 L 69 29 L 72 33 L 76 35 L 81 35 L 82 34 L 83 35 L 88 33 L 91 30 L 92 26 L 87 19 L 82 17 L 70 17 L 65 19 L 60 25 L 60 30 L 62 34 L 72 41 L 87 41 L 93 38 L 99 31 L 100 23 L 92 15 L 87 14 L 84 12 L 66 12 L 56 16 L 53 19 L 50 25 L 50 30 L 57 39 L 68 47 L 78 51 L 98 62 L 124 72 L 131 69 L 136 65 L 160 53 L 162 53 L 164 50 L 168 50 L 175 47 L 188 39 L 192 34 Z" fill="#000000" fill-rule="evenodd"/>
<path d="M 300 8 L 301 10 L 305 9 Z" fill="#000000" fill-rule="evenodd"/>
<path d="M 3 8 L 3 9 L 6 10 L 11 10 L 12 9 L 18 9 L 19 10 L 22 9 L 25 10 L 28 9 L 30 10 L 72 10 L 73 9 L 76 10 L 77 9 L 78 10 L 80 9 L 82 10 L 84 9 L 86 10 L 102 10 L 103 9 L 104 10 L 108 9 L 111 10 L 113 9 L 114 10 L 115 9 L 122 9 L 122 8 L 110 8 L 109 9 L 108 8 L 106 9 L 105 8 L 11 8 L 10 9 Z" fill="#000000" fill-rule="evenodd"/>
<path d="M 315 3 L 317 5 L 321 4 L 322 5 L 327 5 L 328 4 L 330 6 L 331 5 L 332 6 L 334 5 L 335 6 L 359 6 L 360 5 L 361 6 L 396 6 L 397 5 L 398 6 L 404 6 L 405 7 L 404 8 L 334 8 L 333 9 L 339 9 L 340 10 L 345 10 L 346 9 L 348 10 L 349 9 L 352 10 L 353 9 L 355 10 L 357 9 L 359 10 L 364 9 L 366 10 L 381 10 L 382 9 L 383 10 L 384 9 L 386 10 L 391 9 L 392 10 L 390 12 L 382 13 L 381 15 L 378 16 L 379 17 L 378 18 L 376 18 L 374 20 L 372 28 L 375 34 L 381 40 L 389 43 L 392 46 L 403 51 L 406 54 L 440 71 L 445 71 L 478 51 L 478 50 L 472 51 L 467 55 L 457 60 L 448 67 L 446 67 L 444 69 L 441 69 L 420 59 L 413 54 L 411 54 L 409 52 L 397 47 L 394 44 L 388 42 L 387 40 L 383 39 L 376 31 L 375 27 L 376 22 L 375 21 L 380 18 L 382 14 L 383 16 L 392 13 L 402 13 L 402 12 L 398 11 L 396 12 L 395 10 L 396 9 L 402 9 L 403 10 L 406 8 L 404 6 L 405 5 L 412 5 L 413 6 L 414 5 L 415 6 L 417 5 L 418 6 L 419 5 L 422 6 L 423 5 L 428 6 L 430 5 L 438 6 L 439 5 L 440 6 L 441 5 L 446 7 L 445 8 L 423 8 L 422 9 L 421 8 L 412 8 L 411 7 L 410 8 L 409 7 L 409 8 L 412 9 L 414 8 L 418 10 L 419 9 L 422 10 L 423 9 L 425 10 L 426 9 L 428 10 L 429 9 L 433 10 L 434 9 L 443 10 L 444 9 L 447 10 L 448 9 L 460 10 L 465 9 L 470 11 L 464 13 L 458 17 L 455 22 L 455 30 L 464 39 L 475 40 L 478 38 L 477 37 L 469 38 L 462 35 L 459 31 L 458 23 L 465 15 L 470 13 L 478 13 L 476 11 L 470 11 L 469 10 L 470 9 L 477 9 L 478 10 L 480 9 L 478 7 L 481 5 L 480 3 L 431 3 L 430 4 L 428 3 L 427 4 L 425 3 L 423 4 L 422 3 L 415 3 L 414 4 L 413 3 L 412 4 L 411 3 L 331 3 L 327 5 L 326 3 L 323 4 Z M 391 11 L 392 10 L 395 11 L 394 12 Z M 474 7 L 475 6 L 478 7 L 477 8 Z M 456 7 L 464 5 L 472 7 L 471 8 L 457 8 Z" fill="#000000" fill-rule="evenodd"/>
<path d="M 313 3 L 311 3 L 309 5 L 308 4 L 310 5 L 313 4 Z" fill="#000000" fill-rule="evenodd"/>
<path d="M 3 4 L 5 6 L 110 6 L 111 5 L 112 6 L 113 5 L 121 6 L 124 4 L 126 5 L 131 5 L 132 4 L 134 6 L 135 5 L 140 6 L 204 6 L 205 5 L 206 6 L 212 6 L 213 5 L 214 6 L 227 6 L 228 7 L 227 8 L 130 8 L 129 9 L 124 8 L 125 10 L 128 8 L 129 9 L 139 9 L 140 10 L 157 10 L 158 9 L 178 9 L 179 10 L 189 10 L 190 9 L 191 10 L 198 10 L 199 9 L 203 10 L 213 9 L 214 10 L 216 9 L 217 10 L 226 10 L 227 11 L 226 12 L 218 14 L 213 20 L 211 25 L 212 27 L 211 29 L 215 36 L 218 39 L 230 46 L 279 71 L 283 70 L 338 43 L 344 39 L 352 30 L 352 22 L 345 14 L 339 12 L 333 12 L 340 13 L 346 16 L 350 20 L 351 25 L 348 32 L 338 41 L 336 41 L 332 44 L 330 44 L 312 54 L 305 56 L 280 69 L 257 58 L 255 56 L 253 56 L 237 46 L 235 46 L 221 38 L 216 32 L 215 28 L 216 20 L 221 15 L 227 13 L 243 13 L 250 16 L 255 21 L 256 29 L 255 32 L 249 37 L 240 38 L 239 37 L 237 38 L 230 35 L 225 29 L 225 24 L 228 20 L 233 18 L 239 18 L 243 19 L 248 24 L 248 28 L 245 31 L 236 31 L 234 30 L 233 25 L 238 22 L 239 23 L 239 22 L 233 22 L 230 24 L 229 28 L 232 32 L 237 34 L 246 33 L 250 30 L 251 23 L 250 21 L 245 18 L 242 18 L 238 16 L 229 17 L 223 22 L 221 27 L 222 31 L 229 37 L 235 40 L 247 40 L 253 37 L 258 32 L 259 25 L 256 18 L 253 15 L 243 11 L 244 10 L 253 10 L 254 9 L 255 10 L 256 9 L 258 10 L 260 9 L 264 10 L 265 9 L 266 10 L 271 10 L 272 9 L 273 10 L 276 9 L 278 10 L 283 9 L 284 10 L 293 10 L 298 9 L 298 8 L 230 8 L 229 7 L 230 6 L 273 6 L 274 5 L 275 6 L 276 5 L 277 6 L 286 6 L 287 5 L 289 6 L 295 6 L 296 5 L 302 6 L 306 4 L 304 3 L 301 4 L 300 3 L 298 4 L 297 3 L 295 4 L 294 3 L 288 3 L 287 4 L 286 3 L 200 3 L 199 4 L 198 3 L 197 4 L 195 3 L 173 3 L 172 4 L 171 3 L 166 4 L 165 3 L 160 4 L 159 3 L 148 3 L 147 4 L 143 3 L 142 4 L 132 4 L 131 5 L 130 4 L 120 4 L 119 3 L 118 4 L 99 4 L 98 3 L 93 3 L 92 4 L 91 3 Z M 350 26 L 351 25 L 352 26 L 351 27 Z M 108 5 L 109 4 L 110 5 L 109 6 Z" fill="#000000" fill-rule="evenodd"/>
</svg>