<svg xmlns="http://www.w3.org/2000/svg" width="512" height="512" viewBox="170 0 520 740"><rect width="520" height="740" x="170" fill="#07090d" rx="120"/><path fill="#f8f1e4" fill-rule="evenodd" d="M457 16h-23l-1 2-15 2-5 4h-5l-5 4h-5l-3 4h-3l-1 2-7 2-3 4h-3l-3 4h-3l-3 4h-3l-3 4h-3l-7 8h-3v3l-4 1-36 36v3l-6 5v3l-10 9v3l-4 1-1 4h-3l-9 10h-3l-3 4-7 2-3 4h-5l-5 4h-7l-1 2h-9l-1 2h-21l-1-2h-11l-1-2h-7l-1-2-11-2-3-4h-3l2 2v3l4 3v3l10 10h3l9 10h3l1 2h3l1 2h3l5 4h5l1 2 15 2 5 4 2-2h7l1 2h15l1-2h5l1-2h13l1-2h5l1-2 11-2 1-2h3l1-2h3l5-4h9l5-4h5l1-2h5l5-4h7l1-2h5l1-2h5l1-2h5l1-2h5l1-2h11l1 2h3l1 4 4 3v13l2 1v15l2 1v13l2 1v9l2 1v5l-3 3h-9l-1 2h-9l-1 2h-19l-2 2-3-3-2-11-6-6h-3l-1-2h-29l-1 2h-7l-1 2h-3l-1 2h-3l-1 2h-3l-1 2-7 2-3 4h-3l-1 2-7 2-3 4h-7l-1 2h-5l-1 2h-13l-1 2h-11l-1 2-21 1h9l1 2h11l1 2h11l1 2h11l1 2h17l1 2h5l2 2 1-2h5l5-4h5l5-4h5l1-2h5l2-2 1 2h7l1 2h5l1 2h3l1 2h3l1 2h3l3 3v5l-2 1v5l-2 1v9l-2 1v5l-2 1v9l-2 1v7l-2 1v9l-5 5h-3l-1 2h-3l-1 2h-3l-1 2-7 2-3 4h-3l-3 4h-3l-3 4h-3l-7 8h-3l-16 16v3l-6 5v3l-6 5v3l-2 1v3l-2 1v3l-2 1v3l-2 1v3l-4 5v5l-4 5v7l-2 1v7l-2 1v7l-2 1v7l-2 1v11l-2 1v9l-2 1v17l-2 1v25l2 1v15l2 1v11l2 1v13l2 1v7l2 1v13l2 1v17l2 1v33l2 2h5l1 2h3l5 4h5l5 4h5l1 2h7v-7l4-3 1 8-2 2 4 4h7l1 2h7l1 2h3l7-8h3l5-6h3l7-8h3l9-10h5l5-6h3l2-2v-3h-5l-5-4h-5l-1-2h-7l-5-4h-5l-1-2h-5l-1-2h-5l-1-2h-5l-1-2-4-1-2-19-6-3 1-2h3v-9l-2-1v-9l-2-1v-5l-4-5 1-2h7l1 2h3l1 2h3l1 2h3l1 2h3l1 2h3l1 2h3l1 2h3l1 2h3l1 2 7 2 3 4h5l5 4h5l9 8h5l1 2 7 2 3 4h3l1 2 7 2 5 5v63l2 1v35l2 1v3l2 1 2 7 4 1v3l2 1v3l2 1v3l2 1v3l2 1v3l2 1 2 7 4 3v3h3v-5l8-9v-3l2-1v-3l2-1 2-7 4-3 2-7 4-3v-3l2-1v-55l2-1v-3l-2-1 2-7-2-2 2-1v-31l4-1 1-2h3l1-2h3l1-2h3l1-2h3l1-2h3l3-4h3l1-2h3l1-2h3l1-2h3l1-2h3l1-2h3l1-2 7-2 3-4h5l1-2h3l3-4h3l5-4h5l1-2h3l1-2h3l1-2h3l1-2h3l2-2 1 6-2 1v5l-2 1v7l-2 1v7l-2 1v11l-2 1v11l-2 1v5l-4 1-1 2h-3l-1 2h-5l-1 2h-5l-1 2h-5l-1 2h-5l-1 2h-5l-1 2h-5l-1 2-11 2v3h3l5 6h3l5 6 7 2 9 10h3l5 6h3l9 8h13l1-2h5l1-2h9l5-4h5l5-4h5l1-2h3l5-4h5l1-2h3v-43l2-1v-11l2-1v-11l2-1v-13l2-1v-17l2-1v-7l2-1v-7l2-1v-25l-2-1v-13l-2-1v-11l-2-1v-7l-2-1-2-19-2-1v-5l-2-1v-7l-2-1-2-11-2-1v-3l-2-1v-3l-2-1v-3l-2-1-2-7-4-3-2-7-6-5v-3l-6-5v-3h-3l-5-5v-3h-3l-9-10h-3l-5-6h-3l-9-8h-3l-1-2h-3l-1-2h-3l-1-2h-3l-5-4h-5l-3-3v-5l-2-1v-7l-2-1v-9l-2-1v-5l-2-1v-9l-2-1v-5l-2-1v-11l-2-1v-9l2-1v-5l2-1v-23l-2-1v-5l-4-4h-3l-1-2h-5l-1-2h-21l-1 2-11 2-1 2h-3l-5 4-6-1 4-4v-3l4-3v-3l21-21h3l7-8h3l7-8 7-2 4-4v-3l4-3v-3l2-1v-7l2-1v-9l2-1V82l-2-1v-7l-2-1v-7l-4-5v-5l-2-1-2-7-4-3v-3l-4-3v-3l-12-12h-3l-5-4h-5l-1-2h-5Zm-46 662 2-1 1 2-2 1Zm-126-64 2-1 1 2-2 1Zm-16-20 2-1 1 2-2 1Zm176-12 2-1 1 2-2 1Zm-153-25 4 3-1 4h-3l-3-3Zm83-13 2-1 1 2-2 1Zm-40-36 2-1 1 2-2 1Zm-7-13 2 1-1 4-2-1Zm-41-15 6-1 1 2-6 1Zm70 10 4-1v-3l23-23h3l5 5v3h3l15 15v3h3l16 16 42-42 7 8 4 1v3l18 17v3l-71 71h-3l-29-29v-3l-10-10h-3l-3-3v-3l-18-18h-3l-3-3Zm11-35 2 1-1 4-2-1Zm-35-105 2-1 1 2-2 1Zm93-7h3l65 65v3h3l3 3v3l-71 71h-3l-1-4h-3l-1-4h-3l-1-4h-3l-1-4h-3l-1-4h-3l-5-5v-3h-3l-1-4h-3l-1-4h-3l-1-4h-3l-1-4h-3l-1-4h-3l-9-9v-3h-3l-9-9v-5l16-15v-3l4-1v-3l19-19h3l14-14v-3l4-1 8-8Zm-87-19 2-1 1 2-2 1Zm18-32 2-1 1 2-2 1Zm85-57h5l5-4h17l1 2h7l1 2h3l1 2h3l1 2h3l3 3v7l-2 1v9l-2 1v5l-2 1v9l-2 1v7l-2 1v7l-2 1-1 4h-11l-1-2h-13l-3-3v-3l-2-1v-9l-2-1v-7l-2-1v-9l-2-1v-7l-2-1v-9l-2-1v-3Zm-78-4h5l1 2h9l1 2h11l1 2h11l1 2 10 1v5l-2 1v5l-2 1v7l-2 1v9l-2 1-2 15-2 1v5l-3 3h-11l-1 2h-9l-1 2h-5l-3-3v-7l-2-1v-7l-2-1v-9l-2-1v-7l-2-1v-7l-2-1v-3l2-1v-7l2-1Zm-33-1 2-1 1 2-2 1Zm-4 1 1-4 4 1-3 4Zm-10-59 2-1 1 2-2 1Zm3-5 2 1-1 4-2-1Zm1-13 2-1 1 2-2 1Zm-4-4 2-1 1 2-2 1Zm28-2 2-1 3 4-4 1Zm-22 0 2-1 1 2-2 1Zm0-6 4-1 1 2-4 1Zm6-2 4-1 1 2-4 1Zm30-4 2-1 1 2-2 1Zm-26-2 2-1 1 2-2 1Zm8-5 1-4 4 1-3 4Zm8-7 4-1 1 2-4 1Zm-12 0 2-1 1 2-2 1Zm6-4 4-1 1 4-2 1Zm2-10 4-1 1 4-2 1Zm2-10 2-1 1 2-2 1Zm3-3 4 1-1 6-4-5Zm-3 0 1-4 4 1-3 4Zm3-12 2 1-1 4-2-1Z"/></svg>