<svg xmlns="http://www.w3.org/2000/svg" width="512" height="512" viewBox="0 0 512 512"><rect width="512" height="512" fill="#07090d" rx="112"/><path stroke="#d9a441" stroke-linecap="round" stroke-width="18" d="M72 84h368" opacity=".9"/><path stroke="#7a4b00" stroke-linecap="round" stroke-width="10" d="M92 118h328" opacity=".75"/><circle cx="256" cy="264" r="172" fill="#111419" stroke="#d9a441" stroke-width="10"/><path fill="#f8f1e4" fill-rule="evenodd" d="M266.52 67.76h-8.28l-.36.72-5.4.72-1.8 1.44h-1.8l-1.8 1.44h-1.8l-1.08 1.44h-1.08l-.36.72-2.52.72-1.08 1.44h-1.08L237 77.84h-1.08l-1.08 1.44h-1.08l-1.08 1.44h-1.08l-2.52 2.88H228v1.08l-1.44.36L213.6 98v1.08l-2.16 1.8v1.08l-3.6 3.24v1.08l-1.44.36-.36 1.44h-1.08l-3.24 3.6h-1.08l-1.08 1.44-2.52.72-1.08 1.44h-1.8l-1.8 1.44h-2.52l-.36.72h-3.24l-.36.72h-7.56l-.36-.72H174l-.36-.72h-2.52l-.36-.72-3.96-.72-1.08-1.44h-1.08l.72.72v1.08l1.44 1.08v1.08l3.6 3.6h1.08l3.24 3.6h1.08l.36.72h1.08l.36.72h1.08l1.8 1.44h1.8l.36.72 5.4.72 1.8 1.44.72-.72h2.52l.36.72h5.4l.36-.72h1.8l.36-.72h4.68l.36-.72h1.8l.36-.72 3.96-.72.36-.72h1.08l.36-.72h1.08l1.8-1.44h3.24l1.8-1.44h1.8l.36-.72h1.8l1.8-1.44h2.52l.36-.72h1.8l.36-.72h1.8l.36-.72h1.8l.36-.72h1.8l.36-.72h3.96l.36.72h1.08l.36 1.44 1.44 1.08V125l.72.36v5.4l.72.36v4.68l.72.36v3.24l.72.36v1.8l-1.08 1.08h-3.24l-.36.72h-3.24l-.36.72h-6.84l-.72.72-1.08-1.08-.72-3.96-2.16-2.16h-1.08l-.36-.72h-10.44l-.36.72h-2.52l-.36.72h-1.08l-.36.72h-1.08l-.36.72h-1.08l-.36.72-2.52.72-1.08 1.44h-1.08l-.36.72-2.52.72-1.08 1.44h-2.52l-.36.72h-1.8l-.36.72H192l-.36.72h-3.96l-.36.72-7.56.36H183l.36.72h3.96l.36.72h3.96l.36.72h3.96l.36.72h6.12l.36.72h1.8l.72.72.36-.72h1.8l1.8-1.44h1.8l1.8-1.44h1.8l.36-.72h1.8l.72-.72.36.72h2.52l.36.72h1.8l.36.72h1.08l.36.72h1.08l.36.72h1.08l1.08 1.08v1.8l-.72.36v1.8l-.72.36v3.24l-.72.36v1.8l-.72.36v3.24l-.72.36v2.52l-.72.36v3.24l-1.8 1.8h-1.08l-.36.72h-1.08l-.36.72h-1.08l-.36.72-2.52.72-1.08 1.44h-1.08l-1.08 1.44h-1.08l-1.08 1.44h-1.08l-2.52 2.88h-1.08l-5.76 5.76v1.08l-2.16 1.8v1.08l-2.16 1.8V197l-.72.36v1.08l-.72.36v1.08l-.72.36v1.08l-.72.36v1.08l-1.44 1.8v1.8l-1.44 1.8v2.52l-.72.36v2.52l-.72.36v2.52l-.72.36v2.52l-.72.36v3.96l-.72.36v3.24l-.72.36v6.12l-.72.36v9l.72.36v5.4l.72.36v3.96l.72.36v4.68l.72.36v2.52l.72.36v4.68l.72.36v6.12l.72.36v11.88l.72.72h1.8l.36.72h1.08l1.8 1.44h1.8l1.8 1.44h1.8l.36.72h2.52v-2.52l1.44-1.08.36 2.88-.72.72 1.44 1.44h2.52l.36.72h2.52l.36.72h1.08l2.52-2.88h1.08l1.8-2.16H219l2.52-2.88h1.08l3.24-3.6h1.8l1.8-2.16h1.08l.72-.72v-1.08h-1.8l-1.8-1.44h-1.8l-.36-.72h-2.52l-1.8-1.44h-1.8l-.36-.72h-1.8l-.36-.72h-1.8l-.36-.72h-1.8l-.36-.72-1.44-.36-.72-6.84-2.16-1.08.36-.72h1.08v-3.24l-.72-.36v-3.24l-.72-.36v-1.8l-1.44-1.8.36-.72h2.52l.36.72h1.08l.36.72h1.08l.36.72h1.08l.36.72h1.08l.36.72h1.08l.36.72h1.08l.36.72h1.08l.36.72h1.08l.36.72 2.52.72 1.08 1.44h1.8l1.8 1.44h1.8l3.24 2.88h1.8l.36.72 2.52.72 1.08 1.44h1.08l.36.72 2.52.72 1.8 1.8v22.68l.72.36V305l.72.36v1.08l.72.36.72 2.52 1.44.36v1.08l.72.36v1.08l.72.36v1.08l.72.36v1.08l.72.36v1.08l.72.36.72 2.52 1.44 1.08v1.08h1.08v-1.8l2.88-3.24v-1.08l.72-.36V314l.72-.36.72-2.52 1.44-1.08.72-2.52 1.44-1.08v-1.08l.72-.36v-19.8l.72-.36v-1.08l-.72-.36.72-2.52-.72-.72.72-.36v-11.16l1.44-.36.36-.72h1.08l.36-.72h1.08l.36-.72h1.08l.36-.72h1.08l.36-.72h1.08l1.08-1.44h1.08l.36-.72h1.08l.36-.72h1.08l.36-.72h1.08l.36-.72h1.08l.36-.72h1.08l.36-.72 2.52-.72 1.08-1.44h1.8l.36-.72h1.08l1.08-1.44h1.08l1.8-1.44h1.8l.36-.72h1.08l.36-.72h1.08l.36-.72h1.08l.36-.72h1.08l.72-.72.36 2.16-.72.36v1.8l-.72.36v2.52l-.72.36v2.52l-.72.36v3.96l-.72.36v3.96l-.72.36v1.8l-1.44.36-.36.72h-1.08l-.36.72h-1.8l-.36.72h-1.8l-.36.72h-1.8l-.36.72h-1.8l-.36.72h-1.8l-.36.72h-1.8l-.36.72-3.96.72v1.08h1.08l1.8 2.16h1.08l1.8 2.16 2.52.72 3.24 3.6h1.08l1.8 2.16h1.08l3.24 2.88h4.68l.36-.72h1.8l.36-.72H309l1.8-1.44h1.8l1.8-1.44h1.8l.36-.72h1.08l1.8-1.44h1.8l.36-.72h1.08v-15.48l.72-.36v-3.96l.72-.36v-3.96l.72-.36v-4.68l.72-.36v-6.12l.72-.36v-2.52l.72-.36v-2.52l.72-.36v-9l-.72-.36v-4.68l-.72-.36v-3.96l-.72-.36v-2.52l-.72-.36-.72-6.84-.72-.36v-1.8l-.72-.36v-2.52l-.72-.36-.72-3.96-.72-.36v-1.08l-.72-.36v-1.08l-.72-.36v-1.08l-.72-.36-.72-2.52-1.44-1.08-.72-2.52-2.16-1.8v-1.08l-2.16-1.8v-1.08h-1.08l-1.8-1.8v-1.08h-1.08l-3.24-3.6h-1.08l-1.8-2.16H300l-3.24-2.88h-1.08l-.36-.72h-1.08l-.36-.72h-1.08l-.36-.72h-1.08l-1.8-1.44h-1.8l-1.08-1.08v-1.8l-.72-.36v-2.52l-.72-.36v-3.24l-.72-.36v-1.8l-.72-.36v-3.24l-.72-.36v-1.8l-.72-.36V152l-.72-.36v-3.24l.72-.36v-1.8l.72-.36v-8.28l-.72-.36v-1.8l-1.44-1.44h-1.08l-.36-.72h-1.8l-.36-.72h-7.56l-.36.72-3.96.72-.36.72H264l-1.8 1.44-2.16-.36 1.44-1.44v-1.08l1.44-1.08v-1.08l7.56-7.56h1.08l2.52-2.88h1.08l2.52-2.88 2.52-.72 1.44-1.44v-1.08l1.44-1.08v-1.08l.72-.36v-2.52l.72-.36v-3.24l.72-.36V91.52l-.72-.36v-2.52l-.72-.36v-2.52l-1.44-1.8v-1.8l-.72-.36-.72-2.52-1.44-1.08v-1.08l-1.44-1.08v-1.08l-4.32-4.32h-1.08l-1.8-1.44h-1.8l-.36-.72h-1.8Zm-16.56 238.32.72-.36.36.72-.72.36Zm-45.36-23.04.72-.36.36.72-.72.36Zm-5.76-7.2.72-.36.36.72-.72.36Zm63.36-4.32.72-.36.36.72-.72.36Zm-55.08-9 1.44 1.08-.36 1.44h-1.08l-1.08-1.08Zm29.88-4.68.72-.36.36.72-.72.36Zm-14.4-12.96.72-.36.36.72-.72.36Zm-2.52-4.68.72.36-.36 1.44-.72-.36Zm-14.76-5.4 2.16-.36.36.72-2.16.36Zm25.2 3.6 1.44-.36v-1.08l8.28-8.28h1.08l1.8 1.8v1.08h1.08l5.4 5.4v1.08h1.08l5.76 5.76 15.12-15.12 2.52 2.88 1.44.36V233l6.48 6.12v1.08l-25.56 25.56h-1.08l-10.44-10.44v-1.08l-3.6-3.6h-1.08l-1.08-1.08v-1.08l-6.48-6.48h-1.08l-1.08-1.08Zm3.96-12.6.72.36-.36 1.44-.72-.36Zm-12.6-37.8.72-.36.36.72-.72.36Zm33.48-2.52h1.08l23.4 23.4v1.08h1.08l1.08 1.08v1.08l-25.56 25.56h-1.08l-.36-1.44h-1.08l-.36-1.44h-1.08l-.36-1.44h-1.08l-.36-1.44h-1.08l-.36-1.44h-1.08l-1.8-1.8v-1.08h-1.08l-.36-1.44h-1.08l-.36-1.44h-1.08l-.36-1.44h-1.08l-.36-1.44h-1.08l-.36-1.44h-1.08l-3.24-3.24v-1.08h-1.08l-3.24-3.24v-1.8l5.76-5.4v-1.08l1.44-.36v-1.08l6.84-6.84h1.08l5.04-5.04v-1.08l1.44-.36 2.88-2.88Zm-31.32-6.84.72-.36.36.72-.72.36Zm6.48-11.52.72-.36.36.72-.72.36Zm30.6-20.52h1.8l1.8-1.44h6.12l.36.72h2.52l.36.72h1.08l.36.72h1.08l.36.72h1.08l1.08 1.08v2.52l-.72.36v3.24l-.72.36v1.8l-.72.36V161l-.72.36v2.52l-.72.36v2.52l-.72.36-.36 1.44h-3.96l-.36-.72h-4.68l-1.08-1.08v-1.08l-.72-.36v-3.24l-.72-.36v-2.52l-.72-.36v-3.24l-.72-.36v-2.52l-.72-.36v-3.24l-.72-.36v-1.08Zm-28.08-1.44h1.8l.36.72h3.24l.36.72h3.96l.36.72h3.96l.36.72 3.6.36v1.8l-.72.36v1.8l-.72.36v2.52l-.72.36v3.24l-.72.36-.72 5.4-.72.36v1.8l-1.08 1.08h-3.96l-.36.72h-3.24l-.36.72h-1.8l-1.08-1.08v-2.52l-.72-.36v-2.52l-.72-.36v-3.24l-.72-.36v-2.52l-.72-.36v-2.52l-.72-.36V152l.72-.36v-2.52l.72-.36Zm-11.88-.36.72-.36.36.72-.72.36Zm-1.44.36.36-1.44 1.44.36-1.08 1.44Zm-3.6-21.24.72-.36.36.72-.72.36Zm1.08-1.8.72.36-.36 1.44-.72-.36Zm.36-4.68.72-.36.36.72-.72.36Zm-1.44-1.44.72-.36.36.72-.72.36Zm10.08-.72.72-.36 1.08 1.44-1.44.36Zm-7.92 0 .72-.36.36.72-.72.36Zm0-2.16 1.44-.36.36.72-1.44.36Zm2.16-.72 1.44-.36.36.72-1.44.36Zm10.8-1.44.72-.36.36.72-.72.36Zm-9.36-.72.72-.36.36.72-.72.36Zm2.88-1.8.36-1.44 1.44.36-1.08 1.44Zm2.88-2.52 1.44-.36.36.72-1.44.36Zm-4.32 0 .72-.36.36.72-.72.36Zm2.16-1.44 1.44-.36.36 1.44-.72.36Zm.72-3.6 1.44-.36.36 1.44-.72.36Zm.72-3.6.72-.36.36.72-.72.36ZM228 96.2l1.44.36-.36 2.16-1.44-1.8Zm-1.08 0 .36-1.44 1.44.36-1.08 1.44Zm1.08-4.32.72.36-.36 1.44-.72-.36Z"/></svg>