<svg xmlns="http://www.w3.org/2000/svg" width="862" height="1044" viewBox="0 0 862 1044"><path fill="#f4f1e8" fill-rule="evenodd" d="m718 952 5 1 3 3v65l-6 4h21l-5-1-3-3v-65l3-3 15 2 5 5v3l2 1v5l2 1v3l-2 1v7l-9 9-9 1h9l1-2 7-2 6-6v-3l2-1v-15l-2-1v-3l-2-2h-3l-5-4ZM448 1025h17l2-2v-5l2-1v-3l2-1v-3l2-1v-3l4-5v-5l4-3v-3l2-1v-3l2-1v-3l4-5v-5l4-3v-3l2-1 2-7 5-5h9l5 5 2 7 4 3v3l2 1 2 7 4 3v5l4 3v3l2 1v3l4 5v7l-2 1v3l-4 3v3l-5 5h-7l13 1 2-2v-3l2-1v-3l2-1v-3l2-1v-3l2-1v-5l4-3v-3l2-1v-3l2-1v-3l2-1v-3l2-1v-3l2-1v-3l2-1v-3l2-1v-3l2-1v-3l4-5v-3l3-3 5-1h-13l2 3-4 5v5l-4 3v3l-2 1v5l-2 1v3l-2 1v3l-2 1v3l-2 1v3l-3 3-8-9v-3l-2-1v-3l-2-1v-3l-2-1v-3l-2-1v-3l-2-1v-3l-2-1v-3l-4-5 4-3h-33l2 2v3l-2 1v5l-2 1v3l-2 1v3l-2 1v3l-2 1v3l-2 1v3l-2 1v3l-2 1v3l-2 1-1 4-4-1v-3l-2-1v-3l-2-1-2-7-4-3v-5l-4-3v-3l-2-1v-3l-4-5v-3l2-2h-17l5 1 3 3v3l2 1v3l2 1v3l2 1v3l2 1 2 7 4 3v3l2 1 2 7 8 9v3l-2 1v3l-2 1-2 7-7 7ZM386 952l5 1 3 3v59l-2 1v7l-6 2h17l1-2h3l1 2h7l1-2h7l3-4h3v-3l4-3v-3l2-1v-9l-2-1-2-7-4-4h-3l-1-2h-5l-1-2h-17l-1-6 2-2-2-1v-7l2-1v-13l6-2Zm16 33h7l1 2h5l9 7v3l2 1v17l-2 1-1 4h-3l-1 2h-5l-1 2h-5l-1-2h-3l-3-3-2-31ZM292 952l5 1 3 3v65l-6 4h23l-7-1-1-4-2-1 1-32h37l1-2 6 1v35l-6 4h7l1-2h3l1 2h9l-5-1-3-3v-65l6-4h-21l8 2v19l2 2-2 1-1 8h-43l-1-28 6-4ZM198 952l5 1 3 3v63l-2 1v3l-4 2h9l1-2 2 2h9l-5-1-3-3v-3l-2-1v-3l2-1-2-2v-7l2-1v-7l-2-1 2-2v-3l-2-2 3-3h21l1 2 2-2 2 2h3l1-2h7l1 2 2-2h3l1 34-2 1v3l-4 2h21l-5-1-3-3v-11l-2-1 2-2v-53l6-2h-17l4 4-1 28h-43l-1-6-2-1v-19l2-1v-3l4-2ZM806 950v5l-4 5v5l-2 1v5l-2 1-2 11-4 5-2 11-4 5v7l-2 1-2 7-5 5-5 1h11l1-2 2 2h5l-4-2v-7l2-1v-7l4-5 1-6h23l3 3v3l2 1v5l2 1v5l4 5v5h17l-5-1-3-4-4-1v-5l-4-5v-5l-4-5v-5l-2-1v-3l-2-1v-5l-4-5v-5l-2-1v-5l-2-1-2-11-2-1v-3Zm-2 15h3l1 4 2 1v7l2 1v5l2 1v5l2 1-1 4-20-1 2-2v-5l2-1v-7l2-1v-5l2-1ZM711 1024h-3l-1-2h-3l-3-3v-3l-2-1v-5l-2-1v-5l-2-1v-3l-2-1v-5l-4-5v-7l-4-5v-5l-4-5v-5l-4-5v-5l-3-2v5l-2 1v3l-2 1v5l-4 5v5l-2 1-2 11-4 5v5l-2 1v5l-2 1-2 11-7 9h-9l-1-2-4-1v-3l-2-1v-3l-4-5v-5l-2-1v-3l-4-5v-5l-2-1v-3l-4-5v-7l-4-5-2-11-2-1v-3l-3-2-2 2v3l-2 1v5l-2 1-2 11-4 5v7l-4 3v5l-4 5v7l-4 5v5l-2 1v3l-3 3-5 1h17l-4-2v-5l2-1 2-11 4-5v-5l2-1v-7l2-1v-7l4-5v-5l2-1 1-4 4 3 2 11 4 5v7l2 1v3l2 1v5l4 5v5l2 1v5l2 1v7h27l1-2h3l1 2h5l-4-2v-3l-2-2 4-5v-5l4-5 1-6h23l3 3 2 11 2 1v3l4 5v5Zm-37-59 2 1v5l2 1v5l2 1v5l2 1v5l2 1-1 4-18-1v-7l2-1v-5l2-1v-7l2-1v-3ZM140 950l-1 2h-9l-1 2h-3l-5 6h-3l-4 4v3l-4 5v5l-2 1v21l4 5v5l6 5v3h3l3 4h3l1 2h3l2 2 2-3h-3l-5-6h-3l-3-3v-5l-4-3v-3l-2-1v-25l2-1v-7l4-3v-3l7-7h5l1-2h19l1 2h5l3 4h3l1 4 4 3v3l2 1v5l2 1v5l2 1v7l-2 1v15l-2 1-2 7-7 7h-3l-5 4h-11l3 3 1-2h9l1-2 7-2 5-6h3v-3l4-3v-3l2-1v-5l2-1v-7l2-1v-3l-2-1v-11l-2-1v-7l-6-5v-3h-3l-3-4h-3l-5-4h-7l-1-2ZM50 950l2 3h3l2-2 1 2 11 2 5 5v3l4 3v3l4 5v5l2 1v19l-2 1v9l-4 3v3l-5 5h-3l-5 4H46l-1-2-7-2-9-9v-5l-4-5v-7l-4-5v-3l2-1v-7l2-1-2-2v-3l2-1v-3l4-3v-3l7-7 3-1-7 2-10 10v3l-2 1v5l-2 1v7l-2 1v7l2 1v13l2 1v3l12 12h3l5 4h5l1 2h9l1-2h9l1-2 7-2 12-12v-3l4-5v-5l2-1v-13l-2-1v-9l-2-1-2-7-4-4h-3l-1-2-3 2-1-4-2-2h-3l-1-2h-7l-1-2ZM678 788l2 3h9l3 3v3l2 1v105l-2 1v5l-3 3h-9v3h61v-3h-11l-1-2h-3l-1-6-2-1v-49l52-1 1-2 4 3v11l-2 1v41l-5 5h-7l-2 3h23l1-2h9l1 2h27v-3h-11l-5-5v-31l-2-1v-23l2-1v-3l-2-1 2-2v-3l-2-1 2-2v-3l-2-1 2-2v-39l3-3h9l2-3h-61l2 3h11l1 4 2 1v33l2 1v5l-2 1-1 4-54-1v-43l2-1 1-4h11v-3ZM596 788l2 3h7l3 3v3l2 1v105l-2 1v3l-2 1-1 4h-9l-2 3h29l1-2 2 2h31l-2-3-14-1v-3l-2-1v-13l-2-1v-3l2-1v-7l-2-1 2-2v-9l-2-1v-37l2-1v-3l-2-1v-9l2-1v-9l-2-1v-3l2-1v-7l2-1v-3l8-1 4-3ZM476 788l5 1 1 2h5l3 3v49l2 1v39l-2 1v23l-5 5h-9v3h25l1-2h7l1 2h37l1-2h9l1-2h5l1-2h3l3-4h3l8-8v-3l4-5v-7l2-1-2-15-2-1-2-7-8-8h-3l-3-4h-5l-1-2h-7l-1-2h-9l-1-2-24-1v-39l2-1v-5l3-3h11v-3Zm46 59 2 2h11l1 2h5l9 9v3l4 3v9l2 1v15l-2 1-2 7-11 9h-13l-1-2h-3l-3-3v-3l-2-1v-49ZM288 788l4 3h5l5 5v105l-2 1v7l-3 3h-5l-4 3h13l1-2 2 2h45l-2-3h-3l-1 2-2-2h-5l-5-5v-15l-2-1v-27l2-1-2-2v-29l2-1-2-2v-5l2-1v-13l-2-1v-5l2-1v-9l3-3h3l1-2 7-1ZM170 788l7 1 5 5v5l2 1v5l-2 1 2 2v3l-2 1 2 2v75l-2 1v19l-3 3h-9l-2 3h71l1-2 15-2 1-2h3l3-4h3l6-6v-3l2-1v-3l4-5v-11l2-1v-3l-2-1v-5l-2-1-2-7-8-8h-3l-5-4h-5l-1-2h-7l-1-2h-9l-1-2-22-1v-39l2-1v-5l3-3h9l2-3Zm37 114 2-1 1 2-2 1Zm7-55 2 2h11l1 2h5l11 11v3l2 1v7l2 1v17l-2 1v5l-9 9h-3l-1 2h-15l-7-9v-49ZM459 786h-3l-1 2h-87l7 1 1 2h5l1 4 2 1v109l-2 1v3l-3 3h-9v3h63l-2-3h-11l-7-7v-51l-2-1 2-2v-51l32-1 1 2h5l3 3v7l3 2v-17l2-1Zm-58 76 2-1 1 2-2 1Zm2-4 2-1 1 2-2 1ZM86 786v3l-4 3v5l-4 5v5l-4 5v5l-4 5v5l-4 5-2 11-2 1v3l-2 1v3l-2 1v3l-2 1v3l-4 5-2 11-4 5v7l-4 3v3l-2 1v3l-2 1-1 4H22v29h3v-9l9-7h109l1 2h3l1 2 4 1v3l2 1v7h3v-23l2-1v-7h-3l-1 2h-15l-3-3v-3l-4-5v-5l-4-3v-5l-4-5v-5l-2-1v-3l-2-1v-3l-2-1v-3l-4-5v-5l-4-5-2-11-6-5v-7l-2-1v-5l-4-3-2-11-2-1v-3l-2-1-2-7Zm-8 47 4 1v5l2 1v7l2 1v3l2 1v5l2 1v3l4 5v5l2 1 2 11 2 1v3l4 5v5l2 1-1 4H66l-1 2h-5l-1-2-6-1v-3l2-1v-5l2-1v-3l2-1v-5l2-1v-5l2-1v-3l4-5v-5l2-1v-5l2-1v-7l2-1v-5l2-1v-3l2-1ZM372 492v3l50 50h3l3 4 10-10h3v-3l5-5h3v-3l4-1v-3l4-1v-3l4-1v-3l4-1v-3l5-5h3v-3l9-9h3v-3h-3l-1-4h-3l-1-4-4-1v-3h-5l-7 10h-3l-29 30h-3l-15-16-4-1v-3l-20-20h-3Zm41 32 2-1 1 2-2 1Zm-1-5 2 1-1 4-2-1ZM426 360l-28 28v3l-4 1v3l-4 1-18 18v3l57 56 2-2v-3l3-3h3l6-6v-3l11-11h3l18-18v-3l4-1 6-7-4-3v-3h-3l-19-19v-3h-3l-19-19v-3l-4-1v-3l-2-2Z"/><path fill="#f4f1e8" fill-rule="evenodd" d="M457 16h-23l-1 2-15 2-5 4h-5l-5 4h-5l-3 4h-3l-1 2-7 2-3 4h-3l-3 4h-3l-3 4h-3l-3 4h-3l-7 8h-3v3l-4 1-36 36v3l-6 5v3l-10 9v3l-4 1-1 4h-3l-9 10h-3l-3 4-7 2-3 4h-5l-5 4h-7l-1 2h-9l-1 2h-21l-1-2h-11l-1-2h-7l-1-2-11-2-3-4h-3l2 2v3l4 3v3l10 10h3l9 10h3l1 2h3l1 2h3l5 4h5l1 2 15 2 5 4 2-2h7l1 2h15l1-2h5l1-2h13l1-2h5l1-2 11-2 1-2h3l1-2h3l5-4h9l5-4h5l1-2h5l5-4h7l1-2h5l1-2h5l1-2h5l1-2h5l1-2h11l1 2h3l1 4 4 3v13l2 1v15l2 1v13l2 1v9l2 1v5l-3 3h-9l-1 2h-9l-1 2h-19l-2 2-3-3-2-11-6-6h-3l-1-2h-29l-1 2h-7l-1 2h-3l-1 2h-3l-1 2h-3l-1 2-7 2-3 4h-3l-1 2-7 2-3 4h-7l-1 2h-5l-1 2h-13l-1 2h-11l-1 2-21 1h9l1 2h11l1 2h11l1 2h11l1 2h17l1 2h5l2 2 1-2h5l5-4h5l5-4h5l1-2h5l2-2 1 2h7l1 2h5l1 2h3l1 2h3l1 2h3l3 3v5l-2 1v5l-2 1v9l-2 1v5l-2 1v9l-2 1v7l-2 1v9l-5 5h-3l-1 2h-3l-1 2h-3l-1 2-7 2-3 4h-3l-3 4h-3l-3 4h-3l-7 8h-3l-16 16v3l-6 5v3l-6 5v3l-2 1v3l-2 1v3l-2 1v3l-2 1v3l-4 5v5l-4 5v7l-2 1v7l-2 1v7l-2 1v7l-2 1v11l-2 1v9l-2 1v17l-2 1v25l2 1v15l2 1v11l2 1v13l2 1v7l2 1v13l2 1v17l2 1v33l2 2h5l1 2h3l5 4h5l5 4h5l1 2h7v-7l4-3 1 8-2 2 4 4h7l1 2h7l1 2h3l7-8h3l5-6h3l7-8h3l9-10h5l5-6h3l2-2v-3h-5l-5-4h-5l-1-2h-7l-5-4h-5l-1-2h-5l-1-2h-5l-1-2h-5l-1-2-4-1-2-19-6-3 1-2h3v-9l-2-1v-9l-2-1v-5l-4-5 1-2h7l1 2h3l1 2h3l1 2h3l1 2h3l1 2h3l1 2h3l1 2h3l1 2h3l1 2 7 2 3 4h5l5 4h5l9 8h5l1 2 7 2 3 4h3l1 2 7 2 5 5v63l2 1v35l2 1v3l2 1 2 7 4 1v3l2 1v3l2 1v3l2 1v3l2 1v3l2 1 2 7 4 3v3h3v-5l8-9v-3l2-1v-3l2-1 2-7 4-3 2-7 4-3v-3l2-1v-55l2-1v-3l-2-1 2-7-2-2 2-1v-31l4-1 1-2h3l1-2h3l1-2h3l1-2h3l1-2h3l3-4h3l1-2h3l1-2h3l1-2h3l1-2h3l1-2h3l1-2 7-2 3-4h5l1-2h3l3-4h3l5-4h5l1-2h3l1-2h3l1-2h3l1-2h3l2-2 1 6-2 1v5l-2 1v7l-2 1v7l-2 1v11l-2 1v11l-2 1v5l-4 1-1 2h-3l-1 2h-5l-1 2h-5l-1 2h-5l-1 2h-5l-1 2h-5l-1 2h-5l-1 2-11 2v3h3l5 6h3l5 6 7 2 9 10h3l5 6h3l9 8h13l1-2h5l1-2h9l5-4h5l5-4h5l1-2h3l5-4h5l1-2h3v-43l2-1v-11l2-1v-11l2-1v-13l2-1v-17l2-1v-7l2-1v-7l2-1v-25l-2-1v-13l-2-1v-11l-2-1v-7l-2-1-2-19-2-1v-5l-2-1v-7l-2-1-2-11-2-1v-3l-2-1v-3l-2-1v-3l-2-1-2-7-4-3-2-7-6-5v-3l-6-5v-3h-3l-5-5v-3h-3l-9-10h-3l-5-6h-3l-9-8h-3l-1-2h-3l-1-2h-3l-1-2h-3l-5-4h-5l-3-3v-5l-2-1v-7l-2-1v-9l-2-1v-5l-2-1v-9l-2-1v-5l-2-1v-11l-2-1v-9l2-1v-5l2-1v-23l-2-1v-5l-4-4h-3l-1-2h-5l-1-2h-21l-1 2-11 2-1 2h-3l-5 4-6-1 4-4v-3l4-3v-3l21-21h3l7-8h3l7-8 7-2 4-4v-3l4-3v-3l2-1v-7l2-1v-9l2-1V82l-2-1v-7l-2-1v-7l-4-5v-5l-2-1-2-7-4-3v-3l-4-3v-3l-12-12h-3l-5-4h-5l-1-2h-5Zm-46 662 2-1 1 2-2 1Zm-126-64 2-1 1 2-2 1Zm-16-20 2-1 1 2-2 1Zm176-12 2-1 1 2-2 1Zm-153-25 4 3-1 4h-3l-3-3Zm83-13 2-1 1 2-2 1Zm-40-36 2-1 1 2-2 1Zm-7-13 2 1-1 4-2-1Zm-41-15 6-1 1 2-6 1Zm70 10 4-1v-3l23-23h3l5 5v3h3l15 15v3h3l16 16 42-42 7 8 4 1v3l18 17v3l-71 71h-3l-29-29v-3l-10-10h-3l-3-3v-3l-18-18h-3l-3-3Zm11-35 2 1-1 4-2-1Zm-35-105 2-1 1 2-2 1Zm93-7h3l65 65v3h3l3 3v3l-71 71h-3l-1-4h-3l-1-4h-3l-1-4h-3l-1-4h-3l-1-4h-3l-5-5v-3h-3l-1-4h-3l-1-4h-3l-1-4h-3l-1-4h-3l-1-4h-3l-9-9v-3h-3l-9-9v-5l16-15v-3l4-1v-3l19-19h3l14-14v-3l4-1 8-8Zm-87-19 2-1 1 2-2 1Zm18-32 2-1 1 2-2 1Zm85-57h5l5-4h17l1 2h7l1 2h3l1 2h3l1 2h3l3 3v7l-2 1v9l-2 1v5l-2 1v9l-2 1v7l-2 1v7l-2 1-1 4h-11l-1-2h-13l-3-3v-3l-2-1v-9l-2-1v-7l-2-1v-9l-2-1v-7l-2-1v-9l-2-1v-3Zm-78-4h5l1 2h9l1 2h11l1 2h11l1 2 10 1v5l-2 1v5l-2 1v7l-2 1v9l-2 1-2 15-2 1v5l-3 3h-11l-1 2h-9l-1 2h-5l-3-3v-7l-2-1v-7l-2-1v-9l-2-1v-7l-2-1v-7l-2-1v-3l2-1v-7l2-1Zm-33-1 2-1 1 2-2 1Zm-4 1 1-4 4 1-3 4Zm-10-59 2-1 1 2-2 1Zm3-5 2 1-1 4-2-1Zm1-13 2-1 1 2-2 1Zm-4-4 2-1 1 2-2 1Zm28-2 2-1 3 4-4 1Zm-22 0 2-1 1 2-2 1Zm0-6 4-1 1 2-4 1Zm6-2 4-1 1 2-4 1Zm30-4 2-1 1 2-2 1Zm-26-2 2-1 1 2-2 1Zm8-5 1-4 4 1-3 4Zm8-7 4-1 1 2-4 1Zm-12 0 2-1 1 2-2 1Zm6-4 4-1 1 4-2 1Zm2-10 4-1 1 4-2 1Zm2-10 2-1 1 2-2 1Zm3-3 4 1-1 6-4-5Zm-3 0 1-4 4 1-3 4Zm3-12 2 1-1 4-2-1Z"/></svg>