<svg xmlns="http://www.w3.org/2000/svg" width="800" height="113" viewBox="0 0 800 113"><path fill="#7a4b00" fill-rule="evenodd" d="M0 101v8h799v-7h-52l-1-1h-2l-1 1-2-1h-3l-1 1-1-1-1 1h-48l-1-1-2 1-2-1h-3l-1 1-1-1-1 1-2-1h-2l-1 1h-44l-1-1h-5l-1 1h-46l-1-1h-7l-1 1h-4l-1-1-2 1h-53l-1-1h-2l-1 1h-4l-1-1-1 1h-51l-1-1h-3l-1 1h-3l-1-1-2 1h-56l-1-1-2 1-2-1-2 1h-45l-1-1h-9l-1 1h-6l-1-1h-19l-1 1h-15l-1-1h-2l-1 1h-7l-1-1h-3l-1 1h-3l-1-1-1 1h-47l-1-1h-5l-1 1-2-1h-5l-1 1h-53l-1-1ZM782 50l-1 1v4l1 2h1l16 17V63l-4-3-9-10Z"/><path fill="#7a4b00" fill-rule="evenodd" d="M0 23v8h7l1 1-1 2 1 7-1 1-3-3-4-1v7l1 2 3 2 4 6v7l-1 1-6-6v-1H0v10l8 9v11l-1 1-2-1H0v8h799v-8h-52l-1-1V72l17-14v-5l-1-1h-2l-9 6-4 4-1-1v-9l2-1 8-9-1-4h-5l-3 4-1-1v-9l1-1h51l1 1v8l-1 1-3-3h-2l-2 1v2l-1 1 1 1v2l8 9V23Zm686 8h52l1 1v9l-1 1-4-4h-2l-2 2v4l4 4v1l2 1 1 2-1 1 1-1 2 2v8l-1 1-9-9v-1l-3-2v-1h-4l-2 2 1 4 2 1 1 2 8 7 2 4 5 4v12l-1 1-1-1h-51l-1-1V73l5-5 1 1v-1l12-11v-4l-1-1h-3l-11 8-1 2-2-1v-8l10-10v-4l-2-2-3 1-4 3-1-1v-8Zm-60 0h51l1 1v8l-1 1-2-2-4-1-1 1v5l7 8 2 4v6l-1 1-2-1-1-2h-1l-9-10h-4l-1 1v4l12 12v1l7 8v9l-2 2-1-1h-50l-1-1V73l8-8 6-4 4-5-1-4h-4l-8 6-3 4-2-1v-9l3-2v-1l2-1 5-6-1-4-2-1-3 2-2-1 1 1-2 2-1-1v-8Zm-61 0h52l1 1v9l-1 1-1-2-3-2h-2l-2 2v5l4 3 5 6v7l-2 1-6-6v-1h-1l-1-2-3-2v-1h-4l-1 1v4l1 2 17 17v12l-1 1-1-1h-49l-1 1-2-2V73l18-16v-5h-4l-6 4v1l-6 5-2-1v-8l4-4h1v-1l4-3 1-2v-4l-3-3-5 5-2-1v-8Zm-63 1 1-1h53l1 1v9l-1 1-3-4h-3l-1 2v4l5 7 3 2 1 2v7l-1 1-14-14h-3l-1 5 1 2 18 19v10l-1 1h-53l-1 1-1-1V72l7-5 2-3 6-4 3-3v-3l-1-2h-4l-12 10-1-1v-9l5-5h1l4-5-1-4-2-1-3 1-3 4-1-1Zm-60-1h52l1 1v9l-1 1-4-4h-2l-2 2v4l3 3-1 2 1-1 6 7v7l-1 1-9-9v-1l-4-3h-3l-2 2 1 4 13 13v1l5 4v12l-1 1-2-1h-50l-1-1V73l13-12h1l4-5v-3l-1-1h-3l-9 6-3 4-2-1v-8l10-10v-4l-2-2-3 1-3 3-2-1v-8Zm-61 1 1-1h51l1 1v8l-1 1-3-3h-2l-2 1v5l9 11v7l-1 1-2-1-11-12h-4l-1 1v4l2 3 2 1 15 16v10l-3 2-1-1h-49l-1-1V73l1-2 7-6 2-1 1 1-1-1 7-6 1-4-1-2h-3l-9 6-3 4-2-1v-9l4-3 6-7v-3l-2-2-4 1-3 4-1-1Zm-60-1h52l1 1v9l-1 1-5-4-3 2v4l9 10v8l-1 1-5-5v-1h-1l-4-4-1-2-2-1h-4v5l1 2 17 17v12l-1 1-1-1h-48l-1 1-3-2V73l18-16v-4l-1-1h-3l-13 10-1-1v-8l7-7h1l2-3v-4l-2-2-3 1-2 2h-2l-1-1v-7Zm-63 1 1-1h53l1 1v9l-1 1-3-4h-2l-2 2v5l8 8v2l1 1v6l-1 1-2-1-1-2-2-1-9-10h-3l-1 2v4l19 20v10l-1 1h-53l-1 1-1-1V72l15-13h1l2-2v-3l-1-2h-3l-5 3-8 7-1-1v-9l9-8v-2l1-1-1-1v-2l-3-1-2 1-3 4-1-1Zm-61 0 1-1h51l2 2v8l-1 1-4-4h-2l-2 2v4l9 10v8l-1 1-2-1-7-8v-1l-3-2v-1h-4l-2 4 1 2 13 13v1l3 2 2 3v10l-1 1h-52l-1-1V73l18-16v-3l-1-2h-3l-5 3-5 5h-1l-1 2-2-1v-8l10-10v-4l-2-2-3 1-3 3-2-2Zm-59-1h51l1 1v8l-1 1-5-3-2 1v5l9 12v7l-1 1-13-14-2-1-3 2v4l2 3 2 1 14 15 1 2v10l-1 1h-2l-1-1h-48l-1 1-1-1V72l14-12h1l3-4v-3l-1-1h-4l-7 6-4 2-1 2-1-1v-9l4-4h1l5-6v-3l-3-2-1 1h-2l-3 4-1-1v-9Zm-62 1 1-1h52l1 1v9l-2 1-3-4h-3l-1 2v4l9 10v8l-1 1-12-13h-4l-2 3 1 1v2l18 19v10l-1 1H80l-1 1-3-2V73l18-16v-4l-1-1h-3l-2 2-3 1-2 3-3 1-3 3-1-1v-2l1-1-1-1v-4l7-7h1l3-4-1-1v-2l-3-2-4 3h-2l-1-1Zm-61 0 1-1h52l1 1v9l-1 1-2-3-4-1-2 4 1 1v2l7 7 2 4v7l-1 1-1-2h-1l-1-2-2-1-1-2-9-8-3 2v4l2 3 3 2 1 2 3 2 1 2 9 9v10l-1 1H16l-1-1V72l8-7h1l9-9v-3l-1-1h-3l-2 2h-2l-3 2v1l-6 5-1-1v-9l6-6h1l3-5v-2h-1l-1-2h-3l-4 4-1-1ZM799 3 420 4l-1 1H181l-1 1H0v9h69l1-1h231l1-1h209l1-1h210l1-1h76Z"/></svg>