<svg xmlns="http://www.w3.org/2000/svg" width="800" height="110" viewBox="0 0 800 110"><path fill="#7a4b00" fill-rule="evenodd" d="M0 15v24l1 1-1 1v12l7 9v27l-1 1-2-1-1 1H0v18h799V90h-51l-2-2V62l30-38 2-1 1 1 1-1h3l5 6 2 4 6 6 3 5V32l-1-1 1-1V15Zm737 33 1-1 1 1-1 1Zm-72 0 1-1 1 1-1 1Zm-74 0 1-1 1 1-1 1Zm-219 0 1-1 1 1-1 1Zm-74 0 1-1 1 1-1 1Zm-72 0 1-1 1 1-1 1ZM5 48l1-1 1 1-1 1Zm585-1 1-1 1 1-1 1Zm-72 0 1-1 1 1-1 1Zm-74 0 1-1 1 2-1 1Zm-293 0 1-1 1 1-1 1ZM4 47l1-1 1 1-1 1Zm732-1 1-1 1 2-1 1Zm-219 0 1-1 1 1-1 1Zm-74 0 1-1 1 1-1 1Zm-72 0 1-1 1 2-1 1Zm-221 0 1-1 1 1-1 1Zm-72 0 1-1 1 2-1 1Zm-63 0 1-1 1 1-1 1Zm720-1 1-1 1 1-1 1Zm-72 0 1-1 2 3-1 1Zm-208 0 1-1 1 1-1 1Zm-13 0 1-1 1 1-1 1Zm-59 0 1-1 1 1-1 1Zm-13 0 1-1 1 1-1 1Zm-208 0 1-1 1 1-1 1Zm-72 0 1-1 1 1-1 1Zm-13 0 1-1 1 1-1 1Zm-61 0 1-1 1 1-1 1ZM3 45l1-1 1 1-1 1Zm746-1 1-1 1 1-1 1Zm-15 0 1-1 1 1-1 1Zm-72 0 1-1 1 1-1 1Zm-74 0 1-1 2 3-1 1Zm-58 0 1-1 1 1-1 1Zm-74 0 1-1 1 1-1 1Zm-15 0 1-1 1 1-1 1Zm-57 0 1-1 1 1-1 1Zm-15 0 1-1 1 1-1 1Zm-74 0 1-1 3 4-1 1Zm-132 0 1-1 1 1-1 1Zm-72 0 1-1 1 1-1 1Zm-15 0 1-1 1 1-1 1Zm-59 0 1-1 1 1-1 1ZM2 44l1-1 1 1-1 1Zm585-1 1-1 1 1-1 1Zm-72 0 1-1 1 1-1 1Zm-58 0 1-1 1 1-1 1Zm-163 0 1-1 1 1-1 1Zm-72 0 1-1 4 4v1l-1 1-4-4Zm-74 0 1-1 2 3-1 1Zm-56 0 1-1 1 1-1 1ZM1 43l1-1 1 1-1 1Zm749-1 1-1 1 1-1 1Zm-164 0 1-1 1 1-1 1Zm-72 0 1-1 1 1-1 1Zm-74 0 1-1 1 2-1 1Zm-293 0 1-1 1 1-1 1Zm-54 0 1-1 1 1-1 1Zm-18 0 1-1 1 1-1 1Zm-57 0 1-1 1 1-1 1Zm714-1 1-1 2 3-1 1Zm-53 0 1-1 1 1-1 1Zm-19 0 1-1 2 3-1 1Zm-293 0 1-1 2 3-1 1Zm-55 0 1-1 1 1-1 1Zm-166 0 1-1 1 1-1 1Zm-72 0 1-1 1 1-1 1Zm-55 0 1-1 1 1-1 1ZM0 41l1-1 1 1-1 1Zm731-1 1-1 1 1-1 1Zm-72 0 1-1 1 1-1 1Zm-147 0 1-1 1 1-1 1Zm-53 0 1-1 1 1-1 1Zm-21 0 2-1 1 2-1 1Zm-51 0 1-1 1 1-1 1Zm-21 0 1-1 1 1-1 1Zm-74 0 1-1 2 3-1 1ZM94 40l1-1 1 1-1 1Zm-21 0 1-1 1 1-1 1Zm657-1 1-1 1 1-1 1Zm-72 0 1-1 1 1-1 1Zm-74 0 1-1 2 3-1 1Zm-147 0 1-1 1 1-1 1Zm-72 0 1-1 1 1-1 1Zm-74 0 1-1 1 1-1 1Zm-72 0 1-1 3 4-1 1Zm-75 0 2-1 1 2-1 1Zm-72 0 1-1 1 1-1 1Zm585-1 1-1 1 1-1 1Zm-74 0 1-1 1 1-1 1Zm-72 0 1-1 1 1-1 1Zm-221 0 1-1 1 1-1 1Zm-72 0 1-1 1 1-1 1Zm510-1 1-1 1 1-1 1Zm-72 0 1-1 1 1-1 1Zm-74 0 1-1 1 1-1 1Zm-72 0 1-1 1 1-1 1Zm-221 0 1-1 1 1-1 1Zm-72 0 1-1 1 1-1 1Zm-74 0 1-1 1 1-1 1Zm-72 0 1-1 1 1-1 1Zm438-1 1-1 1 1-1 1Zm-74 0 1-1 1 1-1 1Zm-72 0 1-1 1 1-1 1Zm-147 0 1-1 1 1-1 1Zm-74 0 1-1 1 1-1 1Zm-72 0 1-1 1 1-1 1Zm657-1 1-1 1 1-1 1Zm-72 0 1-1 1 2-1 1Zm-147 0 1-1 1 1-1 1Zm-74 0 1-1 1 1-1 1Zm-136 0 1-1 1 1-1 1Zm-157 0 1-1 1 1-1 1Zm-72 0 1-1 1 1-1 1Zm-45 0 1-1 1 1-1 1Zm702-1 1-1 1 1-1 1Zm-72 0 1-1 1 1-1 1Zm-221 0 1-1 1 1-1 1Zm-72 0 1-1 1 1-1 1Zm-74 0 1-1 1 1-1 1ZM68 34l1-1 1 1-1 1Zm657-1 1-1 1 1-1 1Zm-72 0 1-1 1 1-1 1Zm-42 0 1-1 1 1-1 1Zm-32 0 1-1 3 4-1 1Zm-72 0 1-1 1 2-1 1Zm-75 0 1-1 1 1-1 1Zm-72 0 1-1 1 1-1 1Zm-74 0 1-1 1 1-1 1Zm-72 0 1-1 2 3-1 1Zm-114 0 1-1 1 1-1 1Zm563-1 1-1 1 1-1 1Zm-11 0 1-1 1 1-1 1Zm-74 0 1-1 1 1-1 1Zm-38 0 1-1 1 1-1 1Zm-34 0 1-1 1 1-1 1Zm-136 0 1-1 1 1-1 1Zm-51 0 1-1 1 1-1 1Zm-34 0 1-1 1 1-1 1Zm-38 0 1-1 1 1-1 1Zm-34 0 1-1 1 1-1 1Zm-40 0 1-1 1 1-1 1Zm-34 0 1-1 2 3-1 1Zm-38 0 1-1 1 1-1 1Zm-34 0 1-1 1 2-1 1Zm667-1 1-1 1 1-1 1Zm-121 0 1-1 1 1-1 1Zm-25 0 1-1 1 1-1 1Zm-11 0 1-1 1 1-1 1Zm-36 0 1-1 1 1-1 1Zm-36 0 1-1 1 1-1 1Zm-74 0 1-1 1 2-1 1Zm-136 0 1-1 1 1-1 1Zm-11 0 1-1 1 1-1 1Zm-61 0 1-1 1 1-1 1Zm-11 0 1-1 1 1-1 1Zm-38 0 1-1 1 1-1 1Zm-25 0 1-1 1 2-1 1Zm-11 0 1-1 1 1-1 1Zm-62 0 1-1 1 1-1 1Zm-10 0 1-1 1 1-1 1ZM2 31l1-1 1 1-1 1Zm795-1 1-1 1 1-1 1Zm-74 0 1-1 1 1-1 1Zm-72 0 1-1 1 2-1 1Zm-37 0 1-1 1 1-1 1Zm-110 0 1-1 1 1-1 1Zm-74 0 1-1 1 1-1 1Zm-62 0 1-1 1 1-1 1Zm-10 0 1-1 2 3-1 1Zm-64 0 1-1 1 1-1 1Zm-72 0 1-1 1 1-1 1Zm-85 0 1-1 1 1-1 1Zm-35 0 1-1 1 1-1 1Zm-37 0 1-1 1 1-1 1Zm731-1 1-1 1 1-1 1Zm-35 0 1-1 1 1-1 1Zm-39 0 1-1 1 1-1 1Zm-72 0 1-1 1 1-1 1Zm-64 0 1-1 1 1-1 1Zm-229 0 1-1 1 1-1 1Zm-64 0 1-1 1 1-1 1Zm-10 0 1-1 1 2-1 1Zm-62 0 1-1 1 1-1 1Zm-85 0 1-1 1 1-1 1Zm-72 0 1-1 1 1-1 1Zm731-1 1-1 1 1-1 1Zm-74 0 1-1 1 1-1 1Zm-72 0 1-1 1 1-1 1Zm-74 0 1-1 2 3-1 1Zm-32 0 1-1 1 1-1 1Zm-74 0 1-1 1 1-1 1Zm-102 0 1-1 1 1-1 1Zm-11 0 1-1 1 1-1 1Zm-74 0 1-1 1 1-1 1Zm-32 0 1-1 1 1-1 1Zm-40 0 1-1 2 3-1 1Zm-34 0 1-1 1 1-1 1Zm-72 0 1-1 1 1-1 1Zm555-1 1-1 1 1-1 1Zm-85 0 1-1 1 1-1 1Zm-72 0 1-1 2 3-1 1Zm-136 0 1-1 1 1-1 1Zm-115 0 1-1 1 1-1 1Zm-42 0 1-1 1 1-1 1Zm-32 0 1-1 1 1-1 1Zm617-1 1-1 1 1-1 1Zm-64 0 1-1 1 1-1 1Zm-72 0 1-1 1 1-1 1Zm-41 0 1-1 1 1-1 1Zm-44 0 1-1 1 1-1 1Zm-72 0 1-1 1 1-1 1Zm-74 0 1-1 3 4-1 1Zm-72 0 1-1 1 1-1 1Zm-64 0 1-1 1 1-1 1Zm-11 0 1-1 1 1-1 1Zm-72 0 1-1 1 1-1 1Zm-74 0 1-1 2 3-1 1Zm-72 0 1-1 2 3-1 1Zm657-1 1-1 1 1-1 1Zm-27 0 1-1 1 1-1 1Zm-35 0 1-1 1 1-1 1Zm-10 0 1-1 1 2-1 1Zm-64 0 1-1 1 1-1 1Zm-72 0 1-1 1 1-1 1Zm-11 0 1-1 1 1-1 1Zm-74 0 1-1 1 1-1 1Zm-72 0 1-1 1 1-1 1Zm-64 0 1-1 1 1-1 1Zm-83 0 1-1 1 1-1 1Zm-74 0 1-1 1 1-1 1Zm-72 0 1-1 1 1-1 1Zm731-1 1-1 1 1-1 1Zm-63 0 1-1 1 1-1 1Zm-11 0 1-1 1 1-1 1Zm-12-1h2l3 3v1l5 5 1 3 7 7 3 5 12 14v28l-1 1-1-1h-62l-1-1V62l7-10 2-1 2-4 2-1 3-5 4-4 3-5Zm-50 1 1-1 1 1-1 1Zm-10 0 1-1 1 1-1 1Zm-16 0 2-1h4l30 37 1 2v27l-1 1-2-1-1 1h-62l-1-1V61l4-4 1-3 5-5 5-7 3-3 1 1-1-2Zm-48 0 1-1 1 1-1 1Zm-10 0 1-1 1 2-1 1Zm-14 0h2l1-1 3 2 3 5 5 5v1l5 5v1l15 18 1 2v26l-2 2-62-1-1-1V61l4-6 6-6 3-5Zm-48 0 1-1 1 1-1 1Zm-28 1 4-2 1 1 2-1 6 6 3 5 6 6 2 4 5 5v1l5 5 5 7-1 1 1 1v23l-2 3h-64l-2-2V62l8-11 6-6 3-5 6-6Zm-46-1 1-1 1 1-1 1Zm-11 0 1-1 1 1-1 1Zm-14 0 2 1v-1l2-1 4 4v1l16 19 3 5 8 9-1 2 1 1v25l-1 1h-31l-1-1h-31l-1-1V62Zm-58 0 1-1 1 1-1 1Zm-16 0 2-1h4l31 38v28l-1 1h-65l-1-1V62l3-3v-2l9-10 3-5 6-6Zm-48 0 1-1 1 1-1 1Zm-10 0 1-1 1 2-1 1Zm-15 1 5-2 7 8 2 4 6 6 2 4 3 2 5 8h1l5 6v28l-1 1-63-1-1-1V61l3-3 2-4 5-5v-1l2-1 3-4 1-3 3-2v-1Zm-47-1 1-1 1 1-1 1Zm-26 0 2-1h4l3 5 2 1v1l22 26 4 6v27l-1 1h-33l-1-1-1 1h-30l-2-2 1-1V60l9-10 4-6 1 1-1-1 8-9h1v-2Zm-59 0 1-1 1 1-1 1Zm-12-1h3l3 5 10 11 3 5 5 5v1l5 5 1 3 4 4v26l-2 2-63-1-1-1V62l17-21v-1l10-11v-1l3-3 1 1-1-1Zm-49 1 1-1 1 1-1 1Zm-11 0 1-1 1 1-1 1Zm-16 0 7-1 3 5 15 18-1 1 1-1 2 2v1l5 5 5 7v28l-1 1H16l-2-2V62l3-5 5-5h1l-1-1 4-4 3-5 6-6ZM0 3v9h799V3Z"/></svg>