<svg xmlns="http://www.w3.org/2000/svg" width="800" height="127" viewBox="0 0 800 127"><path fill="#7a4b00" fill-rule="evenodd" d="M0 118v7h15l1 1h783v-8ZM0 16v7l2 2-1 1 1 1v11l1 1-1 3 1 1v5l1 1 2 11 4 6v2l1 1v2l2 2v2l6 9 4 4-1 1h2l7 7h1l1 2 3 2v1l4 1 6 4-1 1H0v7h799v-8h-31l-1 1h-2l-1-1h-6l-1-1 3-2 7-2v-1l2-1 2-3h1l7-7h1l8-11 1-4 4-5v-3l4-7v-3l2-5V16Zm312 90 1-1 1 1-1 1Zm430-1 1-1 1 1-1 1Zm-16 0 1-1 1 1-1 1Zm-266 0 1-1 1 1-1 1Zm-118 0 1-1 1 1-1 1Zm-16 0 1-1 1 1-1 1Zm-118 0 1-1 1 1-1 1Zm527-4 1 1v3l-1 1-1-1v-3Zm-6 1 1-1 1 1-1 1Zm-394-1 1 1v4l-1 1-1-1v-4Zm-6 1 1-1 1 1-1 1Zm-124 0 1-1 1 1-1 1Zm560-6-7 5-5 1-3 2h-2l-1 1h-3l-1-1 10-13 7 2Zm-60 0 7-3 2-2h3l4 4 6 9-1 1-6-1-3-2h-2l-4-2-2-2h-2Zm-74 0-8 6h-3l-10 4-1-1 10-14h3l2 2h3Zm-59 0 5-3h2l2-2h3l2 4 4 4 4 6-1 1-1-1-6-1-3-2h-2Zm-74 0-9 6h-2l-3 2h-2l-4 2-2-1 11-14h2l2 2h2Zm-59 0 5-3h2l2-2h3l10 13-1 1h-3l-1-1-8-2Zm-74 0-9 6h-2l-7 3h-3l-1-1 2-2 1-3 7-8 7 2 2 2h2Zm-60 0 5-3h2l2-2h3l4 4 1 3 5 6-1 1h-3l-1-1-8-2Zm-74 0-8 6-6 1-4 2h-3l-1-1 10-13h3l2 2h3Zm-59 0 4-3h3l3-2h2l10 14-1 1-1-1h-4l-5-3h-2l-4-2Zm-75 0-6 5h-2l-3 2h-2l-4 2h-3l-1 1-1-1 7-10 4-4h2Zm-59 0 7-4h2l2-2 3 3v2l9 10-2 1-4-2h-3l-2-2h-3l-4-2Zm184-8 6-9h4l3 2h3l6 3v1l-7 7h-1l-1 2-4-1-4-3ZM41 79l6 8-5 4-4 1-3 2-4-2-6-7 1-2h2l3-2h2l1-1 1 1 3-2Zm722-1 15 6v1l-6 6-1-1 1 1-4 3-12-6v-2Zm-56 0 7 8v2l-3 2h-2l-6 4h-2l-6-6v-1l-3-2 3-3h2Zm-78 0 15 6v1l-9 9-4-1-2-2-4-1-3-2 2-4Zm-56 0 5 5 3 5-1 1h-2l-2 2h-2l-6 3-5-4-4-6 1-1h3Zm-76 0 15 6v1l-2 1-4 5-1-1 1 1-2 1-1 2-7-2-7-4v-1Zm-56 0 7 9-3 3-10 4-3-4-6-5v-1Zm-78 0 15 6-1 2-9 8-3-2h-2l-2-2-1 1-5-4 2-1 2-4Zm-19 0 4 5 2 4v3l-7 9-1-1 1 1-3 4-1-1v-6l1-1v-4l1-1v-6Zm-37 0 7 8v2l-11 6h-2l-7-7v-1l-2-1v-1l1-1 1 1 7-4h2Zm-96 0 3 4v2l2 2 1 3-4 4-6 9-1-1 1-16 2-2v-4Zm-38 0 7 7 1 3-1 1h-2l-2 2h-2l-1 1-1-1 1 1-1 1-4 1-5-4-4-6 1-1h3l4-3h3Zm-85 9 4-6h2l-1-1 3-2 1 1h2l1 2 2-1 2 2h3l3 2-4 6-5 4-11-5Zm656-10 6 9v4l-10 13-1-1v-6l2-5v-7l2-2v-4Zm-18 0 1 1v3l2 3 1 11 1 1v4l-2 2-9-13v-2l4-6v-2Zm-115 0 1 1v2l3 4-1 1 2 1 1 3-10 13-1-1 1-16 2-2v-4Zm-19 0 2 3v3l2 3v8l1 1v7l-1 1-2-4-4-4-1-3-3-3Zm-114 0 4 7-1 1 3 2v2l-10 14-1-1v-7l2-5-1-4 2-3v-2Zm-18 0 1 1v4l2 4v5l1 1v5l1 1v4l-1 1-6-7-1-3-4-4 1-3 2-2v-2Zm-268 0 2 3v3l2 3v8l1 1v7l-1 1-2-4-4-4-1-3h-1l-2-3ZM77 77l4 8 2 2v2l-10 13-1-1 1-14 1-1 1-6Zm-19 0 2 1v4l2 3v7l1 1v8l-1 1-10-14 2-2v-2l3-4v-2Zm268-1 1 1v4l2 3v6l1 1v4l1 1v4l-2 2-2-4-7-9v-2l2-2v-2l2-2Zm53-8 1-1 1 1-1 1Zm393-2h4l1 1h3l1 1-1 1 1-1h3l4 2-3 6-5 6-3-2-8-2-4-3 2-4Zm-400 0h4l4 3 1-1h3l1 2 1-1 2 1-5 9-3 3-3-2-8-2-5-3Zm325-1 9 10-5 3-11 3-5-5-1-4-2-2 3-2h4Zm-59 1 2-1 7 3h4l3 2-3 6-4 5h-3l-3-2h-3l-7-4 3-5Zm-75-1 7 7v1l2 1v1l-5 3-11 3-5-6-2-5 3-2h4Zm-55 0 2 2h4l8 3-8 12-1-1-5-1-3-2h-2l-5-3 2-3Zm-77 0 5 5 3 5-4 3h-3l-3 2-6 1-4-5-3-6 1-1h2l4-2h4Zm-134 0 9 10-5 3h-3l-8 4-8-12 1-1 10-2Zm-66 10 4-6 5-4 7 3h4l3 2-5 9-3 2-13-4Zm-66-9 5 6v2l2 1-5 3-11 3-5-6-2-5 3-2 7-1 3-2Zm-60-1 5 2h3l2 2 2-1 4 2-2 2-3 6-4 4-8-4h-3l-4-3 4-6 2-1Zm-75 0 4 4 4 6-10 5h-3l-2 2-4-4-4-8 3-2h4Zm688-4 4 4v2l2 2 1 4-3 6-2 2v2l-3 2-2-2-1-3-3-2v-2l1-1 1-5 3-5v-2Zm-233 0 3 2 3 10 2 3-1 3-2 1-4 6-2-2v-2l-2-2-3-7 1-4 1-1 1 1 1-1-1 1-1-2Zm-32 0 3 6 2 2 1 4-3 4v2l-2 2-1 3-2 2-6-8v-4l2-2v-3l2-2v-3Zm299-1 2 2-1 2 2 1v2l2 3v3l2 2v3l-4 4-2 4-3-3-3-7-2-2v-3l3-6Zm-134 0 3 3v3l5 10-2 3-1-1 1 2-2 2-2-1 1 2-2 3-4-5v-2l-4-6 5-11Zm-34 0 3 3 5 9-3 6-2 2v2l-2 3h-2l-6-8 2-4v-2l2-3 1-5Zm-133 1 1-1 1 1-1 1Zm-99-1 3 5 1 5 3 5v3l-2 1-1 3-3 4-3-3v-2l-2-2-3-6v-2l2-4Zm-34 0 4 5v2l3 4v2l-3 6-2 2v2l-2 3-4-4v-2h-1l-2-3v-2l2-2v-3Zm-100 0 2 1 1 5 5 10-1 2-1-1 1 1-6 8-2-2-1-3-2-2v-2l-3-4 5-11Zm-33 0 1 1v2l4 5 2 5-2 2-1 3-2 2-1 4-2 2-6-7-1-3 4-8 1-5ZM85 60l3 6v2l2 2v3l2 3-2 3-1-1 1 1-5 7-5-8v-2l-2-3v-3l2-2 1-3 1-1 1 1-1-2 2-1Zm-34 0 3 4 4 9-4 6-2 5-2 2-7-9 5-11v-2Zm732-8h4l1 1 1-1h5l1 1-2 1 1 1v2l-2 3-1 5-2 2-1-1h-3l-11-4 5-7Zm-108 1 1-1h7l1 1 3-1 4 3 5 7-1 1-5 1-3 2h-4l-2 1-2-2v-2l-2-4v-3Zm-26-1h9l1 1 1-1 1 1-3 11-2 3-6-1-3-2h-3l-3-2 3-5Zm-107 1 1-1 1 1 1-1h8l1 1h2l1 1v2l2 1 3 5-3 2h-3l-1 1-8 2-2-3Zm-25-1h3l1 1 2-1h4l1 1-3 11-2 3-5-1-3-2h-3l-4-2 4-6Zm-108 1 1-1h11l4 3 5 7-4 2h-3l-3 2h-4l-2 1-3-6v-3Zm-26-1h4l1 1 4-1 2 2-3 11-2 2-1-1h-4l-3-2h-3l-4-2 5-7Zm-108 1 1-1h12l4 4v2h1l3 4-4 2h-3l-2 2h-5l-1 1-2-2-1-6Zm-28 0 2-1h11l1 1-2 8-3 6-2-1h-4l-3-2h-4l-2-2Zm-105 1 3-2h8l5 4 4 6-3 2-12 3-2-3Zm-26-2h3l1 1 1-1h5l1 1-1 1v4l-2 4v3l-2 2-5-2h-3l-7-3 5-7ZM8 53l1-1h11l9 10-3 2h-4l-3 2-6 1-1-1v-2l-2-4v-3Zm409-5 1-1 1 1-1 1Zm-54-1 2 3v4l2 3 2 7-4 6-3 2-1 2-2-3v-2l-2-3v-2l-2-3-1-4 1-1v-2l7-7Zm-56 0h2l7 8v3l-1 1-1 5-5 10-8-10 1-4 2-3 1-7Zm-56 1 1-1 1 1-1 1Zm512-2 1 1 1 6 1 1 1 5 2 3v2l-6 9-2 1-2-3v-2l-5-11v-2Zm-55 0 8 9v4l-2 2-2 8-3 5-8-10 1-4 2-3 1-7Zm-79 0 2 3v2l2 4-1 1 3 6v3l-7 9-3-4v-2l-2-3v-2l-3-7Zm-55 0 8 9v4l-2 3v3l-3 5v2l-2 2-8-10 2-4v-3l3-6v-3Zm-78 0 2 2v2l2 4v3l3 7-8 10-7-15v-4Zm-55 0 9 10-1 4-2 3v2l-2 2v3l-3 4-2-4-5-6v-2l2-3v-3Zm-212 0 3 6v3l3 7v3l-7 9-3-4v-3l-2-2v-2l-3-6 3-5Zm-55 0 9 11-2 3-1 5-2 2v2l-3 5-8-10 2-3v-4l2-3 1-6Zm-79 0 2 2-1 2 2 2 2 8 2 3-8 11-3-4v-3l-1-1 1-2-1 1-1-1v-2l-3-5 4-6Zm-55 0 5 5 4 6-2 3-1 5-2 2v3l-3 4-7-10v-2l4-10v-3Zm246-3 1-1 1 2-1 1Zm491-8 2 5v6l1 1v2l-9 12-1-1v-3l-2-3-1-6-2-3v-2l6-5h2l1-2Zm-84 0 5 2 7 6v3l-6 15-9-12 1-7 1-1v-5Zm-50 0 2 5 1 9-2 2v2l-5 5v1l-2 1-2-3v-4l-2-3 1-1-3-5 3-4Zm-83 0 6 3 6 6-2 2-2 10-3 4-8-10 1-11Zm-69 70 7-4h2l16-15 2-4 3-3 3-7 2-2v-3l5-10v-4l3-8v-9l1-1 1 1v6l1 1-1 3 2 3 1 8 1 1v2l2 2 2 8 2 2 2 5 8 11 5 5h1l2 3h1l5 5h2l2 2h2l3 2-1 1h-86Zm19-70 2 3v6l2 4-2 3-1-1 1 2-2 2-2-1 1 2-4 6-2-3-3-12-2-2 6-6Zm-83 0 8 4 2 3 2 1-2 4v4l-2 3v3l-2 3-3-2-6-9 1-10Zm-50 0 2 5-1 1 1 1 1 7-4 6-3 3-1-1 1 2-2 2-2-3v-3l-1-1-3-11 4-4Zm-84 0 8 4 4 4-1 6-2 3v3l-3 6-9-12 1-2v-5l1-1v-5Zm-50 0 1 1-1 1 2 4 1 9-2 3-2 1-2 4-3 2-2-3v-4l-2-3 1-1-3-5 4-5h2Zm-83 0 6 3 5 5-4 15-2 2-4-4-4-6 1-11Zm-51 0 2 3 1 12-2 3-2 1-1 3-2 2-1-1 1 1-1 2-2-2-1-6-3-7v-3l4-4 3-1Zm-83 0 8 4 4 5-4 10v3l-2 3-3-2-2-4-4-4 1-10Zm514-2h1l5 7-1 1 1-1 6 8-1 1-2-1-2 1-1-1h-5l-1-1v-5l-1-1v-7Zm-266 0 11 14-1 2-1-1h-8l-1-1v-3l-1-1v-9Zm400-1 5 8 6 7-1 2-1-1h-8l-1-1v-5l-1-1v-8Zm-140 1 1-1 1 1-1 1Zm-4-1 1 1-1 14-1 1-9 1-1-2 8-11 1 1-1-1Zm-258 1 1-1 1 1-1 1Zm-132-1 12 16-1 1-2-1h-8l-1-1v-5l-1-1v-8Zm-11 0 1 1-1 14-1 1h-8l-2 1-1-1ZM6 32l9 11 2 4-1 2-1-1h-2l-1 1-1-1H7l-1-1 1-1-1-1v-4l-1-1v-7Zm791-1 1 1v7l-1 1v5l-2 3h-8l-1 1-1-2Zm-134 0 1 1v9l-1 1v4l-2 2h-4l-1 1-2-1-2 1-1-2 2-1 3-4v-2l3-4 2-1Zm-256 0 11 15-1 2h-8l-2-2v-5l-1-1v-8Zm-10 0 1 1v6l-1 1v6l-2 3h-8l-1 1-1-2 4-4Zm-134 0 1 1v9l-1 1v4l-2 2h-8l-1-2 5-6 2-4 2-1Zm531-3 1 1-6 8-1-1 1 1-3 5-3 2-2-3v-5l-1-1v-2l3-2h4l1-2h4Zm-118 0h4l2 2 5 1 1 2 1-1 1 1v2l-1 1v6l-2 3-12-16Zm-16 0 1 1-5 8-2 2-1-1 1 1-5 6-2-4v-6l-1-2 4-2h3l4-3Zm-118 0h4l2 2h2l7 3-1 5-1 1v4l-1 1h-1l-12-15Zm-14 0 1 1-4 4-2 4-2 2-1-1 1 1-1 2-4 3-1-1v-5l-2-5 4-2h4l3-3Zm-118 0h3l4 3h4l3 2-1 2v5l-2 5-3-3-7-11-2-1Zm-16 0 1 1-12 16-2-4v-5l-1-1v-2l8-4Zm-119 1 1-1h4l4 3 5 1 1 1v2l-1 1v5l-3 2Zm-15-1 1 1-1 2-4 3 1 1-1 2-2 1-2 4-3 3-2-4v-6l-1-2 1-1 5-1 5-3Zm-118 0h4l2 1 1 2h4l4 2-1 5-1 1v4l-1 1-4-3-5-8-4-4Zm-15 0 1 1-4 4-5 8-4 3-1-1-1-10 2-2h4l4-3ZM9 28h3l5 3h3l3 2-1 2v6l-2 4-4-6h-1l-4-5-1-3-2-2Zm525 0 1-1 1 2-1 1Zm-132-2 1 1v11l1 1v8l1 1v4l1 1 1 6 4 7 1 5 2 2v2l8 11 9 9h1l3 4 2 1-1 1h3l4 3 1-1 3 2-3 2h-80l-1-1h-5l-1-1 3-2 7-2v-1l4-4 8-6 13-19 1-6 4-6v-3l2-5 1-12 1-1V27Zm-268 0 2 1v2l-1 1 1 2-1 1v2l1 1v7l1 1v4l2 5v4l4 8 1 5 12 18 14 13h2l2 2 4 1 1 1-2 2H91l-1-1 1-2 8-3 5-5h1v-1l9-8 6-9 2-1v-3l3-5 2-7 2-2v-3l1-1v-3l2-5v-6l1-1V27Zm545-1 1-2h111l1 1-3 2-6 1-2 2-8 3-4 4-9 6-7 10-4 4-10 23v4l-1 1v4l-1 1v9l-2 3-2-4v-9l-2-5v-5l-2-3v-2l-2-2v-3l-2-3 1-1-4-5 1-1-2-1-3-4-1-3-2-1v-1l-7-7v-1l-7-4-4-4-12-6h-5Zm-11-2 1 1 1 22 1 1 1 7 1 1 1 5 3 5 1 5 3 4 1 4 6 8 9 9h1l6 6 4 2h2l3 2-2 2h-2l-1-1-1 1h-35l-1-1h-5l-1 1h-41l-1-1 1-2 5-1 5-3 1 1-1-2 12-10 8-11 2-5 3-3-1-1 5-10 2-10 1-1v-8l1-1V24Zm-123 1 1-1h111l1 1-2 2h-5l-4 3-8 3-12 10v1l-7 7-1 3-2 1-3 4v2l-3 4-1 5-5 11v5l-2 5v12l-1 1 1 2-1 1-2-1V92l-2-5-1-10-3-5-1-5-2-2v-3l-4-5-1-3-10-11-1-3-1 1-4-4-3-1-3-4-4-1-7-4-6-1Zm-133 0 1-1h112l1 1-3 2h-4l-12 6-4 4-3 1-16 17-6 11v2l-2 2v4l-2 2v2l-1 1v4l-1 1v4l-1 1-1 17-1 1-1-1-1-16-1-1-1-8-1-1-1-5-2-3-1-5-2-2v-2l-2-4-3-3-2-4-5-5v-1l-7-7-4-2-4-4-4-1-2-2-6-3h-5Zm-11 0 1-1 1 2-1 1Zm-122 1 1-2h111l1 1-3 2-1-1-3 2h-2l-2 2-8 3-4 4-9 6v1l-11 13-10 23v4l-1 1v4l-1 1v8l-2 4-2-4v-9l-2-5v-5l-4-7-1-5-6-12-2-1-3-5-10-10-4-2-4-4-12-6h-5Zm-11-2 1 1 1 22 1 1v3l2 4v3l1 1 1 5 2 2v2l1 1-1 1 11 17 9 9h1l6 6 4 1 5 3-4 2-1-1h-5l-1 1h-78l-1-1 2-2 4-1 2-2h3l-1-1 14-12 11-17 1-5 4-7 1-7 2-4v-5l1-1V24Zm-123 1 1-1h111l1 1-2 2h-5l-4 3-8 3-5 5-3 1-6 6v1l-3 2-5 8-3 3v2l-4 6-1 6-4 8v6l-2 4v8l-1 1 1 4-2 3-1-1V92l-2-5-1-10-3-5-1-5-2-2v-3l-3-3-2-5-10-12h-1l-5-5-3-1-1-2-4-3h-2l-9-5h-4Zm-12 0 1-1 2 2-2 1ZM11 24l1-1h111l1 1-3 2h-3l-1 1h-2l-4 3h-2l-11 8-8 7-5 8-4 4-1 4-4 6-1 5-3 6v4l-1 1v4l-1 1v7l-1 1v9l-1 1-1-1v-5l-1-1V89l-2-3-1-10-3-4-1-5-2-3v-2l-2-4-6-7-2-4-9-9-3-1-5-5-6-3h-2l-2-2-6-1ZM0 3v8h799V3Z"/></svg>